<?xml version="1.0" encoding="UTF-8" standalone="no"?>
<!DOCTYPE svg PUBLIC "-//W3C//DTD SVG 1.1//EN"
 "http://www.w3.org/Graphics/SVG/1.1/DTD/svg11.dtd">
<!-- Generated by graphviz version 2.38.0 (20140413.2041)
 -->
<!-- Title: %3 Pages: 1 -->
<svg width="3227pt" height="620pt"
 viewBox="0.00 0.00 3226.65 620.00" xmlns="http://www.w3.org/2000/svg" xmlns:xlink="http://www.w3.org/1999/xlink">
<g id="graph0" class="graph" transform="scale(1 1) rotate(0) translate(4 616)">
<title>%3</title>
<polygon fill="white" stroke="none" points="-4,4 -4,-616 3222.65,-616 3222.65,4 -4,4"/>
<!-- [root] data.kubernetes_secret.postgresql (expand) -->
<g id="node1" class="node"><title>[root] data.kubernetes_secret.postgresql (expand)</title>
<polygon fill="none" stroke="black" points="1556.65,-396 1290.65,-396 1290.65,-360 1556.65,-360 1556.65,-396"/>
<text text-anchor="middle" x="1423.65" y="-374.3" font-family="Times,serif" font-size="14.00">data.kubernetes_secret.postgresql</text>
</g>
<!-- [root] helm_release.postgresql (expand) -->
<g id="node7" class="node"><title>[root] helm_release.postgresql (expand)</title>
<polygon fill="none" stroke="black" points="1519.15,-324 1328.15,-324 1328.15,-288 1519.15,-288 1519.15,-324"/>
<text text-anchor="middle" x="1423.65" y="-302.3" font-family="Times,serif" font-size="14.00">helm_release.postgresql</text>
</g>
<!-- [root] data.kubernetes_secret.postgresql (expand)&#45;&gt;[root] helm_release.postgresql (expand) -->
<g id="edge1" class="edge"><title>[root] data.kubernetes_secret.postgresql (expand)&#45;&gt;[root] helm_release.postgresql (expand)</title>
<path fill="none" stroke="black" d="M1423.65,-359.697C1423.65,-351.983 1423.65,-342.712 1423.65,-334.112"/>
<polygon fill="black" stroke="black" points="1427.15,-334.104 1423.65,-324.104 1420.15,-334.104 1427.15,-334.104"/>
</g>
<!-- [root] helm_release.airbyte (expand) -->
<g id="node2" class="node"><title>[root] helm_release.airbyte (expand)</title>
<polygon fill="none" stroke="black" points="1049.15,-468 882.154,-468 882.154,-432 1049.15,-432 1049.15,-468"/>
<text text-anchor="middle" x="965.654" y="-446.3" font-family="Times,serif" font-size="14.00">helm_release.airbyte</text>
</g>
<!-- [root] kubernetes_namespace.airbyte (expand) -->
<g id="node14" class="node"><title>[root] kubernetes_namespace.airbyte (expand)</title>
<polygon fill="none" stroke="black" points="1234.15,-396 993.154,-396 993.154,-360 1234.15,-360 1234.15,-396"/>
<text text-anchor="middle" x="1113.65" y="-374.3" font-family="Times,serif" font-size="14.00">kubernetes_namespace.airbyte</text>
</g>
<!-- [root] helm_release.airbyte (expand)&#45;&gt;[root] kubernetes_namespace.airbyte (expand) -->
<g id="edge2" class="edge"><title>[root] helm_release.airbyte (expand)&#45;&gt;[root] kubernetes_namespace.airbyte (expand)</title>
<path fill="none" stroke="black" d="M1001.86,-431.876C1021.91,-422.392 1047.03,-410.513 1068.37,-400.419"/>
<polygon fill="black" stroke="black" points="1070.02,-403.508 1077.57,-396.068 1067.03,-397.18 1070.02,-403.508"/>
</g>
<!-- [root] provider[&quot;registry.terraform.io/hashicorp/helm&quot;] -->
<g id="node23" class="node"><title>[root] provider[&quot;registry.terraform.io/hashicorp/helm&quot;]</title>
<polygon fill="none" stroke="black" points="333.654,-252 -0.154156,-234 333.654,-216 667.462,-234 333.654,-252"/>
<text text-anchor="middle" x="333.654" y="-230.3" font-family="Times,serif" font-size="14.00">provider[&quot;registry.terraform.io/hashicorp/helm&quot;]</text>
</g>
<!-- [root] helm_release.airbyte (expand)&#45;&gt;[root] provider[&quot;registry.terraform.io/hashicorp/helm&quot;] -->
<g id="edge3" class="edge"><title>[root] helm_release.airbyte (expand)&#45;&gt;[root] provider[&quot;registry.terraform.io/hashicorp/helm&quot;]</title>
<path fill="none" stroke="black" d="M882.072,-433.259C878.896,-432.808 875.749,-432.386 872.654,-432 813.643,-424.642 379.935,-438.806 338.654,-396 304.378,-360.457 315.005,-297.353 324.9,-261.615"/>
<polygon fill="black" stroke="black" points="328.298,-262.466 327.765,-251.884 321.583,-260.489 328.298,-262.466"/>
</g>
<!-- [root] helm_release.airflow (expand) -->
<g id="node3" class="node"><title>[root] helm_release.airflow (expand)</title>
<polygon fill="none" stroke="black" points="1419.65,-468 1255.65,-468 1255.65,-432 1419.65,-432 1419.65,-468"/>
<text text-anchor="middle" x="1337.65" y="-446.3" font-family="Times,serif" font-size="14.00">helm_release.airflow</text>
</g>
<!-- [root] kubernetes_secret.airflow_webserver (expand) -->
<g id="node21" class="node"><title>[root] kubernetes_secret.airflow_webserver (expand)</title>
<polygon fill="none" stroke="black" points="2130.65,-396 1844.65,-396 1844.65,-360 2130.65,-360 2130.65,-396"/>
<text text-anchor="middle" x="1987.65" y="-374.3" font-family="Times,serif" font-size="14.00">kubernetes_secret.airflow_webserver</text>
</g>
<!-- [root] helm_release.airflow (expand)&#45;&gt;[root] kubernetes_secret.airflow_webserver (expand) -->
<g id="edge4" class="edge"><title>[root] helm_release.airflow (expand)&#45;&gt;[root] kubernetes_secret.airflow_webserver (expand)</title>
<path fill="none" stroke="black" d="M1419.94,-433.261C1422.88,-432.816 1425.79,-432.394 1428.65,-432 1605.31,-407.744 1653.24,-413.858 1834.33,-396.113"/>
<polygon fill="black" stroke="black" points="1834.85,-399.578 1844.46,-395.109 1834.16,-392.612 1834.85,-399.578"/>
</g>
<!-- [root] helm_release.airflow (expand)&#45;&gt;[root] provider[&quot;registry.terraform.io/hashicorp/helm&quot;] -->
<g id="edge5" class="edge"><title>[root] helm_release.airflow (expand)&#45;&gt;[root] provider[&quot;registry.terraform.io/hashicorp/helm&quot;]</title>
<path fill="none" stroke="black" d="M1255.39,-433.092C1252.45,-432.695 1249.53,-432.329 1246.65,-432 1154.17,-421.426 487.19,-447.508 409.654,-396 385.801,-380.154 356.661,-302.898 342.385,-261.433"/>
<polygon fill="black" stroke="black" points="345.617,-260.065 339.088,-251.721 338.988,-262.315 345.617,-260.065"/>
</g>
<!-- [root] helm_release.grafana (expand) -->
<g id="node4" class="node"><title>[root] helm_release.grafana (expand)</title>
<polygon fill="none" stroke="black" points="1237.65,-468 1067.65,-468 1067.65,-432 1237.65,-432 1237.65,-468"/>
<text text-anchor="middle" x="1152.65" y="-446.3" font-family="Times,serif" font-size="14.00">helm_release.grafana</text>
</g>
<!-- [root] kubernetes_namespace.grafana (expand) -->
<g id="node17" class="node"><title>[root] kubernetes_namespace.grafana (expand)</title>
<polygon fill="none" stroke="black" points="1848.15,-324 1603.15,-324 1603.15,-288 1848.15,-288 1848.15,-324"/>
<text text-anchor="middle" x="1725.65" y="-302.3" font-family="Times,serif" font-size="14.00">kubernetes_namespace.grafana</text>
</g>
<!-- [root] helm_release.grafana (expand)&#45;&gt;[root] kubernetes_namespace.grafana (expand) -->
<g id="edge6" class="edge"><title>[root] helm_release.grafana (expand)&#45;&gt;[root] kubernetes_namespace.grafana (expand)</title>
<path fill="none" stroke="black" d="M1185.37,-431.951C1202.92,-422.26 1224.6,-409.407 1242.65,-396 1261.59,-381.935 1260.23,-369.879 1281.65,-360 1309.53,-347.144 1472.47,-329.94 1592.92,-318.67"/>
<polygon fill="black" stroke="black" points="1593.34,-322.146 1602.98,-317.734 1592.69,-315.176 1593.34,-322.146"/>
</g>
<!-- [root] helm_release.grafana (expand)&#45;&gt;[root] provider[&quot;registry.terraform.io/hashicorp/helm&quot;] -->
<g id="edge7" class="edge"><title>[root] helm_release.grafana (expand)&#45;&gt;[root] provider[&quot;registry.terraform.io/hashicorp/helm&quot;]</title>
<path fill="none" stroke="black" d="M1067.53,-433.24C1064.2,-432.791 1060.9,-432.375 1057.65,-432 982.382,-423.31 435.51,-443.722 376.654,-396 336.77,-363.661 331.52,-298.779 332.052,-262.02"/>
<polygon fill="black" stroke="black" points="335.551,-262.115 332.351,-252.015 328.554,-261.906 335.551,-262.115"/>
</g>
<!-- [root] helm_release.localstack (expand) -->
<g id="node5" class="node"><title>[root] helm_release.localstack (expand)</title>
<polygon fill="none" stroke="black" points="863.654,-468 675.654,-468 675.654,-432 863.654,-432 863.654,-468"/>
<text text-anchor="middle" x="769.654" y="-446.3" font-family="Times,serif" font-size="14.00">helm_release.localstack</text>
</g>
<!-- [root] kubernetes_namespace.localstack (expand) -->
<g id="node18" class="node"><title>[root] kubernetes_namespace.localstack (expand)</title>
<polygon fill="none" stroke="black" points="975.154,-396 712.154,-396 712.154,-360 975.154,-360 975.154,-396"/>
<text text-anchor="middle" x="843.654" y="-374.3" font-family="Times,serif" font-size="14.00">kubernetes_namespace.localstack</text>
</g>
<!-- [root] helm_release.localstack (expand)&#45;&gt;[root] kubernetes_namespace.localstack (expand) -->
<g id="edge8" class="edge"><title>[root] helm_release.localstack (expand)&#45;&gt;[root] kubernetes_namespace.localstack (expand)</title>
<path fill="none" stroke="black" d="M787.946,-431.697C797.087,-423.05 808.294,-412.449 818.254,-403.027"/>
<polygon fill="black" stroke="black" points="820.713,-405.519 825.572,-396.104 815.902,-400.434 820.713,-405.519"/>
</g>
<!-- [root] helm_release.localstack (expand)&#45;&gt;[root] provider[&quot;registry.terraform.io/hashicorp/helm&quot;] -->
<g id="edge9" class="edge"><title>[root] helm_release.localstack (expand)&#45;&gt;[root] provider[&quot;registry.terraform.io/hashicorp/helm&quot;]</title>
<path fill="none" stroke="black" d="M675.591,-433.349C672.24,-432.879 668.919,-432.427 665.654,-432 625.247,-426.71 328.02,-426.197 300.654,-396 268.422,-360.432 287.46,-334.151 300.654,-288 303.484,-278.099 308.759,-268.248 314.273,-259.773"/>
<polygon fill="black" stroke="black" points="317.191,-261.707 320.014,-251.495 311.439,-257.718 317.191,-261.707"/>
</g>
<!-- [root] helm_release.metrics&#45;server (expand) -->
<g id="node6" class="node"><title>[root] helm_release.metrics&#45;server (expand)</title>
<polygon fill="none" stroke="black" points="438.154,-468 217.154,-468 217.154,-432 438.154,-432 438.154,-468"/>
<text text-anchor="middle" x="327.654" y="-446.3" font-family="Times,serif" font-size="14.00">helm_release.metrics&#45;server</text>
</g>
<!-- [root] helm_release.metrics&#45;server (expand)&#45;&gt;[root] provider[&quot;registry.terraform.io/hashicorp/helm&quot;] -->
<g id="edge10" class="edge"><title>[root] helm_release.metrics&#45;server (expand)&#45;&gt;[root] provider[&quot;registry.terraform.io/hashicorp/helm&quot;]</title>
<path fill="none" stroke="black" d="M268.756,-431.958C251.53,-423.934 234.656,-412.395 224.654,-396 199.656,-355.023 199.193,-328.691 224.654,-288 234.542,-272.197 250.641,-260.984 267.467,-253.077"/>
<polygon fill="black" stroke="black" points="269.066,-256.199 276.855,-249.016 266.287,-249.774 269.066,-256.199"/>
</g>
<!-- [root] kubernetes_namespace.dbt (expand) -->
<g id="node16" class="node"><title>[root] kubernetes_namespace.dbt (expand)</title>
<polygon fill="none" stroke="black" points="1534.65,-252 1320.65,-252 1320.65,-216 1534.65,-216 1534.65,-252"/>
<text text-anchor="middle" x="1427.65" y="-230.3" font-family="Times,serif" font-size="14.00">kubernetes_namespace.dbt</text>
</g>
<!-- [root] helm_release.postgresql (expand)&#45;&gt;[root] kubernetes_namespace.dbt (expand) -->
<g id="edge11" class="edge"><title>[root] helm_release.postgresql (expand)&#45;&gt;[root] kubernetes_namespace.dbt (expand)</title>
<path fill="none" stroke="black" d="M1424.64,-287.697C1425.08,-279.983 1425.61,-270.712 1426.1,-262.112"/>
<polygon fill="black" stroke="black" points="1429.6,-262.288 1426.68,-252.104 1422.61,-261.888 1429.6,-262.288"/>
</g>
<!-- [root] helm_release.postgresql (expand)&#45;&gt;[root] provider[&quot;registry.terraform.io/hashicorp/helm&quot;] -->
<g id="edge12" class="edge"><title>[root] helm_release.postgresql (expand)&#45;&gt;[root] provider[&quot;registry.terraform.io/hashicorp/helm&quot;]</title>
<path fill="none" stroke="black" d="M1327.88,-298.849C1138.87,-286.711 716.414,-259.581 487.749,-244.896"/>
<polygon fill="black" stroke="black" points="487.885,-241.398 477.681,-244.249 487.436,-248.383 487.885,-241.398"/>
</g>
<!-- [root] helm_release.prometheus (expand) -->
<g id="node8" class="node"><title>[root] helm_release.prometheus (expand)</title>
<polygon fill="none" stroke="black" points="657.154,-468 456.154,-468 456.154,-432 657.154,-432 657.154,-468"/>
<text text-anchor="middle" x="556.654" y="-446.3" font-family="Times,serif" font-size="14.00">helm_release.prometheus</text>
</g>
<!-- [root] kubernetes_namespace.prometheus (expand) -->
<g id="node19" class="node"><title>[root] kubernetes_namespace.prometheus (expand)</title>
<polygon fill="none" stroke="black" points="694.154,-396 419.154,-396 419.154,-360 694.154,-360 694.154,-396"/>
<text text-anchor="middle" x="556.654" y="-374.3" font-family="Times,serif" font-size="14.00">kubernetes_namespace.prometheus</text>
</g>
<!-- [root] helm_release.prometheus (expand)&#45;&gt;[root] kubernetes_namespace.prometheus (expand) -->
<g id="edge13" class="edge"><title>[root] helm_release.prometheus (expand)&#45;&gt;[root] kubernetes_namespace.prometheus (expand)</title>
<path fill="none" stroke="black" d="M556.654,-431.697C556.654,-423.983 556.654,-414.712 556.654,-406.112"/>
<polygon fill="black" stroke="black" points="560.154,-406.104 556.654,-396.104 553.154,-406.104 560.154,-406.104"/>
</g>
<!-- [root] helm_release.prometheus (expand)&#45;&gt;[root] provider[&quot;registry.terraform.io/hashicorp/helm&quot;] -->
<g id="edge14" class="edge"><title>[root] helm_release.prometheus (expand)&#45;&gt;[root] provider[&quot;registry.terraform.io/hashicorp/helm&quot;]</title>
<path fill="none" stroke="black" d="M455.76,-432.356C371.941,-418.291 265.861,-399.836 262.654,-396 231.871,-359.171 241.139,-330.908 262.654,-288 269.201,-274.944 280.659,-264.281 292.484,-256.033"/>
<polygon fill="black" stroke="black" points="294.605,-258.829 301.095,-250.454 290.799,-252.955 294.605,-258.829"/>
</g>
<!-- [root] helm_release.superset (expand) -->
<g id="node9" class="node"><title>[root] helm_release.superset (expand)</title>
<polygon fill="none" stroke="black" points="1615.65,-468 1437.65,-468 1437.65,-432 1615.65,-432 1615.65,-468"/>
<text text-anchor="middle" x="1526.65" y="-446.3" font-family="Times,serif" font-size="14.00">helm_release.superset</text>
</g>
<!-- [root] helm_release.superset (expand)&#45;&gt;[root] data.kubernetes_secret.postgresql (expand) -->
<g id="edge15" class="edge"><title>[root] helm_release.superset (expand)&#45;&gt;[root] data.kubernetes_secret.postgresql (expand)</title>
<path fill="none" stroke="black" d="M1501.46,-431.876C1488.24,-422.893 1471.86,-411.763 1457.55,-402.034"/>
<polygon fill="black" stroke="black" points="1459.19,-398.916 1448.95,-396.19 1455.25,-404.705 1459.19,-398.916"/>
</g>
<!-- [root] kubernetes_namespace.superset (expand) -->
<g id="node20" class="node"><title>[root] kubernetes_namespace.superset (expand)</title>
<polygon fill="none" stroke="black" points="1826.65,-396 1574.65,-396 1574.65,-360 1826.65,-360 1826.65,-396"/>
<text text-anchor="middle" x="1700.65" y="-374.3" font-family="Times,serif" font-size="14.00">kubernetes_namespace.superset</text>
</g>
<!-- [root] helm_release.superset (expand)&#45;&gt;[root] kubernetes_namespace.superset (expand) -->
<g id="edge16" class="edge"><title>[root] helm_release.superset (expand)&#45;&gt;[root] kubernetes_namespace.superset (expand)</title>
<path fill="none" stroke="black" d="M1569.22,-431.876C1593.22,-422.222 1623.38,-410.087 1648.76,-399.878"/>
<polygon fill="black" stroke="black" points="1650.26,-403.048 1658.23,-396.068 1647.64,-396.554 1650.26,-403.048"/>
</g>
<!-- [root] kind_cluster.default (expand) -->
<g id="node10" class="node"><title>[root] kind_cluster.default (expand)</title>
<polygon fill="none" stroke="black" points="1583.15,-108 1424.15,-108 1424.15,-72 1583.15,-72 1583.15,-108"/>
<text text-anchor="middle" x="1503.65" y="-86.3" font-family="Times,serif" font-size="14.00">kind_cluster.default</text>
</g>
<!-- [root] provider[&quot;registry.terraform.io/kyma&#45;incubator/kind&quot;] -->
<g id="node26" class="node"><title>[root] provider[&quot;registry.terraform.io/kyma&#45;incubator/kind&quot;]</title>
<polygon fill="none" stroke="black" points="1503.65,-36 1134.99,-18 1503.65,-3.55271e-15 1872.32,-18 1503.65,-36"/>
<text text-anchor="middle" x="1503.65" y="-14.3" font-family="Times,serif" font-size="14.00">provider[&quot;registry.terraform.io/kyma&#45;incubator/kind&quot;]</text>
</g>
<!-- [root] kind_cluster.default (expand)&#45;&gt;[root] provider[&quot;registry.terraform.io/kyma&#45;incubator/kind&quot;] -->
<g id="edge17" class="edge"><title>[root] kind_cluster.default (expand)&#45;&gt;[root] provider[&quot;registry.terraform.io/kyma&#45;incubator/kind&quot;]</title>
<path fill="none" stroke="black" d="M1503.65,-71.6966C1503.65,-63.9827 1503.65,-54.7125 1503.65,-46.1124"/>
<polygon fill="black" stroke="black" points="1507.15,-46.1043 1503.65,-36.1043 1500.15,-46.1044 1507.15,-46.1043"/>
</g>
<!-- [root] kubernetes_cluster_role.dbt (expand) -->
<g id="node11" class="node"><title>[root] kubernetes_cluster_role.dbt (expand)</title>
<polygon fill="none" stroke="black" points="2982.15,-252 2763.15,-252 2763.15,-216 2982.15,-216 2982.15,-252"/>
<text text-anchor="middle" x="2872.65" y="-230.3" font-family="Times,serif" font-size="14.00">kubernetes_cluster_role.dbt</text>
</g>
<!-- [root] provider[&quot;registry.terraform.io/hashicorp/kubernetes&quot;] -->
<g id="node24" class="node"><title>[root] provider[&quot;registry.terraform.io/hashicorp/kubernetes&quot;]</title>
<polygon fill="none" stroke="black" points="1503.65,-180 1127.78,-162 1503.65,-144 1879.52,-162 1503.65,-180"/>
<text text-anchor="middle" x="1503.65" y="-158.3" font-family="Times,serif" font-size="14.00">provider[&quot;registry.terraform.io/hashicorp/kubernetes&quot;]</text>
</g>
<!-- [root] kubernetes_cluster_role.dbt (expand)&#45;&gt;[root] provider[&quot;registry.terraform.io/hashicorp/kubernetes&quot;] -->
<g id="edge18" class="edge"><title>[root] kubernetes_cluster_role.dbt (expand)&#45;&gt;[root] provider[&quot;registry.terraform.io/hashicorp/kubernetes&quot;]</title>
<path fill="none" stroke="black" d="M2762.77,-219.42C2750.26,-218.134 2737.69,-216.956 2725.65,-216 2391.07,-189.432 2003.81,-175.467 1756.46,-168.671"/>
<polygon fill="black" stroke="black" points="1756.35,-165.166 1746.26,-168.392 1756.16,-172.164 1756.35,-165.166"/>
</g>
<!-- [root] kubernetes_cluster_role_binding.dbt (expand) -->
<g id="node12" class="node"><title>[root] kubernetes_cluster_role_binding.dbt (expand)</title>
<polygon fill="none" stroke="black" points="3152.15,-396 2871.15,-396 2871.15,-360 3152.15,-360 3152.15,-396"/>
<text text-anchor="middle" x="3011.65" y="-374.3" font-family="Times,serif" font-size="14.00">kubernetes_cluster_role_binding.dbt</text>
</g>
<!-- [root] kubernetes_cluster_role_binding.dbt (expand)&#45;&gt;[root] kubernetes_cluster_role.dbt (expand) -->
<g id="edge19" class="edge"><title>[root] kubernetes_cluster_role_binding.dbt (expand)&#45;&gt;[root] kubernetes_cluster_role.dbt (expand)</title>
<path fill="none" stroke="black" d="M2994.89,-359.871C2970.36,-334.817 2924.59,-288.052 2896.54,-259.406"/>
<polygon fill="black" stroke="black" points="2898.98,-256.887 2889.48,-252.189 2893.97,-261.784 2898.98,-256.887"/>
</g>
<!-- [root] kubernetes_namespace.airflow (expand) -->
<g id="node15" class="node"><title>[root] kubernetes_namespace.airflow (expand)</title>
<polygon fill="none" stroke="black" points="2107.15,-324 1868.15,-324 1868.15,-288 2107.15,-288 2107.15,-324"/>
<text text-anchor="middle" x="1987.65" y="-302.3" font-family="Times,serif" font-size="14.00">kubernetes_namespace.airflow</text>
</g>
<!-- [root] kubernetes_cluster_role_binding.dbt (expand)&#45;&gt;[root] kubernetes_namespace.airflow (expand) -->
<g id="edge20" class="edge"><title>[root] kubernetes_cluster_role_binding.dbt (expand)&#45;&gt;[root] kubernetes_namespace.airflow (expand)</title>
<path fill="none" stroke="black" d="M2871.15,-360.815C2867.96,-360.531 2864.79,-360.259 2861.65,-360 2555.61,-334.698 2477.94,-346.13 2171.65,-324 2154.11,-322.732 2135.63,-321.227 2117.43,-319.645"/>
<polygon fill="black" stroke="black" points="2117.63,-316.149 2107.36,-318.759 2117.01,-323.122 2117.63,-316.149"/>
</g>
<!-- [root] kubernetes_config_map.prometheus_dashboard (expand) -->
<g id="node13" class="node"><title>[root] kubernetes_config_map.prometheus_dashboard (expand)</title>
<polygon fill="none" stroke="black" points="2853.15,-396 2494.15,-396 2494.15,-360 2853.15,-360 2853.15,-396"/>
<text text-anchor="middle" x="2673.65" y="-374.3" font-family="Times,serif" font-size="14.00">kubernetes_config_map.prometheus_dashboard</text>
</g>
<!-- [root] kubernetes_config_map.prometheus_dashboard (expand)&#45;&gt;[root] kubernetes_namespace.grafana (expand) -->
<g id="edge21" class="edge"><title>[root] kubernetes_config_map.prometheus_dashboard (expand)&#45;&gt;[root] kubernetes_namespace.grafana (expand)</title>
<path fill="none" stroke="black" d="M2494.1,-360.708C2490.93,-360.466 2487.78,-360.23 2484.65,-360 2206.73,-339.514 2136.15,-349.682 1858.65,-324 1858.55,-323.99 1858.44,-323.981 1858.34,-323.971"/>
<polygon fill="black" stroke="black" points="1858.74,-320.493 1848.45,-323.012 1858.06,-327.461 1858.74,-320.493"/>
</g>
<!-- [root] kubernetes_namespace.airbyte (expand)&#45;&gt;[root] provider[&quot;registry.terraform.io/hashicorp/kubernetes&quot;] -->
<g id="edge22" class="edge"><title>[root] kubernetes_namespace.airbyte (expand)&#45;&gt;[root] provider[&quot;registry.terraform.io/hashicorp/kubernetes&quot;]</title>
<path fill="none" stroke="black" d="M1129.67,-359.921C1161.33,-327.165 1235.45,-255.285 1311.65,-216 1344.52,-199.054 1383.44,-187.017 1417.61,-178.745"/>
<polygon fill="black" stroke="black" points="1418.64,-182.097 1427.58,-176.404 1417.04,-175.282 1418.64,-182.097"/>
</g>
<!-- [root] kubernetes_namespace.airflow (expand)&#45;&gt;[root] provider[&quot;registry.terraform.io/hashicorp/kubernetes&quot;] -->
<g id="edge23" class="edge"><title>[root] kubernetes_namespace.airflow (expand)&#45;&gt;[root] provider[&quot;registry.terraform.io/hashicorp/kubernetes&quot;]</title>
<path fill="none" stroke="black" d="M1929.27,-287.871C1836.73,-260.719 1657.27,-208.068 1563.69,-180.615"/>
<polygon fill="black" stroke="black" points="1564.4,-177.174 1553.82,-177.717 1562.43,-183.891 1564.4,-177.174"/>
</g>
<!-- [root] kubernetes_namespace.dbt (expand)&#45;&gt;[root] provider[&quot;registry.terraform.io/hashicorp/kubernetes&quot;] -->
<g id="edge24" class="edge"><title>[root] kubernetes_namespace.dbt (expand)&#45;&gt;[root] provider[&quot;registry.terraform.io/hashicorp/kubernetes&quot;]</title>
<path fill="none" stroke="black" d="M1446.44,-215.697C1456.04,-206.857 1467.85,-195.973 1478.25,-186.396"/>
<polygon fill="black" stroke="black" points="1480.88,-188.732 1485.87,-179.383 1476.14,-183.583 1480.88,-188.732"/>
</g>
<!-- [root] kubernetes_namespace.grafana (expand)&#45;&gt;[root] provider[&quot;registry.terraform.io/hashicorp/kubernetes&quot;] -->
<g id="edge25" class="edge"><title>[root] kubernetes_namespace.grafana (expand)&#45;&gt;[root] provider[&quot;registry.terraform.io/hashicorp/kubernetes&quot;]</title>
<path fill="none" stroke="black" d="M1698.88,-287.871C1658.31,-261.923 1581.33,-212.688 1537.13,-184.411"/>
<polygon fill="black" stroke="black" points="1538.79,-181.32 1528.48,-178.88 1535.02,-187.217 1538.79,-181.32"/>
</g>
<!-- [root] kubernetes_namespace.localstack (expand)&#45;&gt;[root] provider[&quot;registry.terraform.io/hashicorp/kubernetes&quot;] -->
<g id="edge26" class="edge"><title>[root] kubernetes_namespace.localstack (expand)&#45;&gt;[root] provider[&quot;registry.terraform.io/hashicorp/kubernetes&quot;]</title>
<path fill="none" stroke="black" d="M880.694,-359.99C951.592,-327.982 1111.96,-258.225 1252.65,-216 1305.42,-200.164 1365.8,-187.257 1414.11,-178.146"/>
<polygon fill="black" stroke="black" points="1415.04,-181.533 1424.23,-176.26 1413.76,-174.652 1415.04,-181.533"/>
</g>
<!-- [root] kubernetes_namespace.prometheus (expand)&#45;&gt;[root] provider[&quot;registry.terraform.io/hashicorp/kubernetes&quot;] -->
<g id="edge27" class="edge"><title>[root] kubernetes_namespace.prometheus (expand)&#45;&gt;[root] provider[&quot;registry.terraform.io/hashicorp/kubernetes&quot;]</title>
<path fill="none" stroke="black" d="M610.244,-359.9C712.704,-327.738 943.889,-257.732 1142.65,-216 1224.05,-198.911 1316.91,-185.41 1388.06,-176.312"/>
<polygon fill="black" stroke="black" points="1388.92,-179.731 1398.4,-175.001 1388.04,-172.787 1388.92,-179.731"/>
</g>
<!-- [root] kubernetes_namespace.superset (expand)&#45;&gt;[root] provider[&quot;registry.terraform.io/hashicorp/kubernetes&quot;] -->
<g id="edge28" class="edge"><title>[root] kubernetes_namespace.superset (expand)&#45;&gt;[root] provider[&quot;registry.terraform.io/hashicorp/kubernetes&quot;]</title>
<path fill="none" stroke="black" d="M1649.29,-359.948C1629.97,-351.533 1608.99,-339.741 1593.65,-324 1556.75,-286.109 1570.85,-261.367 1543.65,-216 1537.81,-206.26 1530.55,-196.167 1523.81,-187.436"/>
<polygon fill="black" stroke="black" points="1526.53,-185.223 1517.59,-179.538 1521.03,-189.558 1526.53,-185.223"/>
</g>
<!-- [root] kubernetes_secret.airflow_webserver (expand)&#45;&gt;[root] kubernetes_namespace.airflow (expand) -->
<g id="edge29" class="edge"><title>[root] kubernetes_secret.airflow_webserver (expand)&#45;&gt;[root] kubernetes_namespace.airflow (expand)</title>
<path fill="none" stroke="black" d="M1987.65,-359.697C1987.65,-351.983 1987.65,-342.712 1987.65,-334.112"/>
<polygon fill="black" stroke="black" points="1991.15,-334.104 1987.65,-324.104 1984.15,-334.104 1991.15,-334.104"/>
</g>
<!-- [root] random_password.airflow_webserver_secret_key (expand) -->
<g id="node27" class="node"><title>[root] random_password.airflow_webserver_secret_key (expand)</title>
<polygon fill="none" stroke="black" points="2548.65,-324 2180.65,-324 2180.65,-288 2548.65,-288 2548.65,-324"/>
<text text-anchor="middle" x="2364.65" y="-302.3" font-family="Times,serif" font-size="14.00">random_password.airflow_webserver_secret_key</text>
</g>
<!-- [root] kubernetes_secret.airflow_webserver (expand)&#45;&gt;[root] random_password.airflow_webserver_secret_key (expand) -->
<g id="edge30" class="edge"><title>[root] kubernetes_secret.airflow_webserver (expand)&#45;&gt;[root] random_password.airflow_webserver_secret_key (expand)</title>
<path fill="none" stroke="black" d="M2079.4,-359.966C2134.81,-349.677 2205.53,-336.547 2262.68,-325.933"/>
<polygon fill="black" stroke="black" points="2263.63,-329.317 2272.83,-324.05 2262.36,-322.435 2263.63,-329.317"/>
</g>
<!-- [root] kubernetes_secret.prometheus_datasource (expand) -->
<g id="node22" class="node"><title>[root] kubernetes_secret.prometheus_datasource (expand)</title>
<polygon fill="none" stroke="black" points="2476.15,-396 2149.15,-396 2149.15,-360 2476.15,-360 2476.15,-396"/>
<text text-anchor="middle" x="2312.65" y="-374.3" font-family="Times,serif" font-size="14.00">kubernetes_secret.prometheus_datasource</text>
</g>
<!-- [root] kubernetes_secret.prometheus_datasource (expand)&#45;&gt;[root] kubernetes_namespace.grafana (expand) -->
<g id="edge31" class="edge"><title>[root] kubernetes_secret.prometheus_datasource (expand)&#45;&gt;[root] kubernetes_namespace.grafana (expand)</title>
<path fill="none" stroke="black" d="M2163.34,-359.984C2074.75,-349.785 1960.26,-336.425 1858.65,-324 1858.55,-323.987 1858.44,-323.974 1858.34,-323.962"/>
<polygon fill="black" stroke="black" points="1858.83,-320.496 1848.48,-322.749 1857.98,-327.443 1858.83,-320.496"/>
</g>
<!-- [root] provider[&quot;registry.terraform.io/hashicorp/helm&quot;]&#45;&gt;[root] kind_cluster.default (expand) -->
<g id="edge49" class="edge"><title>[root] provider[&quot;registry.terraform.io/hashicorp/helm&quot;]&#45;&gt;[root] kind_cluster.default (expand)</title>
<path fill="none" stroke="black" d="M430.895,-221.198C653.692,-194.158 1198.44,-128.044 1413.86,-101.898"/>
<polygon fill="black" stroke="black" points="1414.36,-105.363 1423.86,-100.684 1413.52,-98.4143 1414.36,-105.363"/>
</g>
<!-- [root] provider[&quot;registry.terraform.io/hashicorp/kubernetes&quot;]&#45;&gt;[root] kind_cluster.default (expand) -->
<g id="edge59" class="edge"><title>[root] provider[&quot;registry.terraform.io/hashicorp/kubernetes&quot;]&#45;&gt;[root] kind_cluster.default (expand)</title>
<path fill="none" stroke="black" d="M1503.65,-143.697C1503.65,-135.983 1503.65,-126.712 1503.65,-118.112"/>
<polygon fill="black" stroke="black" points="1507.15,-118.104 1503.65,-108.104 1500.15,-118.104 1507.15,-118.104"/>
</g>
<!-- [root] provider[&quot;registry.terraform.io/hashicorp/random&quot;] -->
<g id="node25" class="node"><title>[root] provider[&quot;registry.terraform.io/hashicorp/random&quot;]</title>
<polygon fill="none" stroke="black" points="2364.65,-252 2012.58,-234 2364.65,-216 2716.73,-234 2364.65,-252"/>
<text text-anchor="middle" x="2364.65" y="-230.3" font-family="Times,serif" font-size="14.00">provider[&quot;registry.terraform.io/hashicorp/random&quot;]</text>
</g>
<!-- [root] random_password.airflow_webserver_secret_key (expand)&#45;&gt;[root] provider[&quot;registry.terraform.io/hashicorp/random&quot;] -->
<g id="edge62" class="edge"><title>[root] random_password.airflow_webserver_secret_key (expand)&#45;&gt;[root] provider[&quot;registry.terraform.io/hashicorp/random&quot;]</title>
<path fill="none" stroke="black" d="M2364.65,-287.697C2364.65,-279.983 2364.65,-270.712 2364.65,-262.112"/>
<polygon fill="black" stroke="black" points="2368.15,-262.104 2364.65,-252.104 2361.15,-262.104 2368.15,-262.104"/>
</g>
<!-- [root] meta.count&#45;boundary (EachMode fixup) -->
<g id="node28" class="node"><title>[root] meta.count&#45;boundary (EachMode fixup)</title>
<ellipse fill="none" stroke="black" cx="1506.65" cy="-522" rx="224.46" ry="18"/>
<text text-anchor="middle" x="1506.65" y="-518.3" font-family="Times,serif" font-size="14.00">[root] meta.count&#45;boundary (EachMode fixup)</text>
</g>
<!-- [root] meta.count&#45;boundary (EachMode fixup)&#45;&gt;[root] helm_release.airbyte (expand) -->
<g id="edge32" class="edge"><title>[root] meta.count&#45;boundary (EachMode fixup)&#45;&gt;[root] helm_release.airbyte (expand)</title>
<path fill="none" stroke="black" d="M1373.55,-507.476C1286.9,-498.142 1171.19,-484.687 1059.38,-468.055"/>
<polygon fill="black" stroke="black" points="1059.67,-464.56 1049.26,-466.54 1058.64,-471.483 1059.67,-464.56"/>
</g>
<!-- [root] meta.count&#45;boundary (EachMode fixup)&#45;&gt;[root] helm_release.airflow (expand) -->
<g id="edge33" class="edge"><title>[root] meta.count&#45;boundary (EachMode fixup)&#45;&gt;[root] helm_release.airflow (expand)</title>
<path fill="none" stroke="black" d="M1466.17,-504.233C1442.8,-494.55 1413.18,-482.283 1388.27,-471.965"/>
<polygon fill="black" stroke="black" points="1389.56,-468.709 1378.98,-468.116 1386.88,-475.177 1389.56,-468.709"/>
</g>
<!-- [root] meta.count&#45;boundary (EachMode fixup)&#45;&gt;[root] helm_release.grafana (expand) -->
<g id="edge34" class="edge"><title>[root] meta.count&#45;boundary (EachMode fixup)&#45;&gt;[root] helm_release.grafana (expand)</title>
<path fill="none" stroke="black" d="M1426.33,-505.116C1373.31,-494.632 1303.6,-480.848 1247.81,-469.815"/>
<polygon fill="black" stroke="black" points="1248.4,-466.365 1237.91,-467.859 1247.04,-473.232 1248.4,-466.365"/>
</g>
<!-- [root] meta.count&#45;boundary (EachMode fixup)&#45;&gt;[root] helm_release.localstack (expand) -->
<g id="edge35" class="edge"><title>[root] meta.count&#45;boundary (EachMode fixup)&#45;&gt;[root] helm_release.localstack (expand)</title>
<path fill="none" stroke="black" d="M1348.17,-509.212C1196.25,-497.657 976.478,-480.209 874.041,-468.096"/>
<polygon fill="black" stroke="black" points="874.258,-464.597 863.91,-466.867 873.415,-471.546 874.258,-464.597"/>
</g>
<!-- [root] meta.count&#45;boundary (EachMode fixup)&#45;&gt;[root] helm_release.metrics&#45;server (expand) -->
<g id="edge36" class="edge"><title>[root] meta.count&#45;boundary (EachMode fixup)&#45;&gt;[root] helm_release.metrics&#45;server (expand)</title>
<path fill="none" stroke="black" d="M1350.62,-509.032C1324.59,-507.217 1297.87,-505.465 1272.65,-504 909.127,-482.878 814.243,-501.678 448.532,-468.125"/>
<polygon fill="black" stroke="black" points="448.742,-464.629 438.463,-467.194 448.098,-471.6 448.742,-464.629"/>
</g>
<!-- [root] meta.count&#45;boundary (EachMode fixup)&#45;&gt;[root] helm_release.prometheus (expand) -->
<g id="edge37" class="edge"><title>[root] meta.count&#45;boundary (EachMode fixup)&#45;&gt;[root] helm_release.prometheus (expand)</title>
<path fill="none" stroke="black" d="M1348.39,-509.218C1323.06,-507.414 1297.14,-505.617 1272.65,-504 1006.72,-486.442 936.64,-496.386 667.387,-468.013"/>
<polygon fill="black" stroke="black" points="667.626,-464.519 657.312,-466.944 666.887,-471.48 667.626,-464.519"/>
</g>
<!-- [root] meta.count&#45;boundary (EachMode fixup)&#45;&gt;[root] helm_release.superset (expand) -->
<g id="edge38" class="edge"><title>[root] meta.count&#45;boundary (EachMode fixup)&#45;&gt;[root] helm_release.superset (expand)</title>
<path fill="none" stroke="black" d="M1511.6,-503.697C1513.83,-495.898 1516.51,-486.509 1518.99,-477.829"/>
<polygon fill="black" stroke="black" points="1522.39,-478.681 1521.77,-468.104 1515.65,-476.758 1522.39,-478.681"/>
</g>
<!-- [root] meta.count&#45;boundary (EachMode fixup)&#45;&gt;[root] kubernetes_cluster_role_binding.dbt (expand) -->
<g id="edge39" class="edge"><title>[root] meta.count&#45;boundary (EachMode fixup)&#45;&gt;[root] kubernetes_cluster_role_binding.dbt (expand)</title>
<path fill="none" stroke="black" d="M1710.38,-514.465C1895.49,-507.267 2175.91,-493.216 2418.65,-468 2590.2,-450.179 2788.07,-418.15 2906.34,-397.766"/>
<polygon fill="black" stroke="black" points="2907.22,-401.166 2916.48,-396.014 2906.03,-394.269 2907.22,-401.166"/>
</g>
<!-- [root] meta.count&#45;boundary (EachMode fixup)&#45;&gt;[root] kubernetes_config_map.prometheus_dashboard (expand) -->
<g id="edge40" class="edge"><title>[root] meta.count&#45;boundary (EachMode fixup)&#45;&gt;[root] kubernetes_config_map.prometheus_dashboard (expand)</title>
<path fill="none" stroke="black" d="M1724.48,-517.626C1889.32,-512.468 2120.84,-499.645 2321.65,-468 2423.73,-451.915 2539.42,-419.933 2609.43,-399.011"/>
<polygon fill="black" stroke="black" points="2610.85,-402.238 2619.42,-396.007 2608.84,-395.535 2610.85,-402.238"/>
</g>
<!-- [root] meta.count&#45;boundary (EachMode fixup)&#45;&gt;[root] kubernetes_secret.prometheus_datasource (expand) -->
<g id="edge41" class="edge"><title>[root] meta.count&#45;boundary (EachMode fixup)&#45;&gt;[root] kubernetes_secret.prometheus_datasource (expand)</title>
<path fill="none" stroke="black" d="M1729.64,-520.078C1949.12,-516.963 2257.33,-505.797 2298.65,-468 2315.29,-452.789 2317.63,-426.502 2316.5,-406.429"/>
<polygon fill="black" stroke="black" points="2319.97,-405.966 2315.62,-396.308 2313,-406.574 2319.97,-405.966"/>
</g>
<!-- [root] provider[&quot;registry.terraform.io/hashicorp/helm&quot;] (close) -->
<g id="node29" class="node"><title>[root] provider[&quot;registry.terraform.io/hashicorp/helm&quot;] (close)</title>
<ellipse fill="none" stroke="black" cx="965.654" cy="-522" rx="298.147" ry="18"/>
<text text-anchor="middle" x="965.654" y="-518.3" font-family="Times,serif" font-size="14.00">[root] provider[&quot;registry.terraform.io/hashicorp/helm&quot;] (close)</text>
</g>
<!-- [root] provider[&quot;registry.terraform.io/hashicorp/helm&quot;] (close)&#45;&gt;[root] helm_release.airbyte (expand) -->
<g id="edge42" class="edge"><title>[root] provider[&quot;registry.terraform.io/hashicorp/helm&quot;] (close)&#45;&gt;[root] helm_release.airbyte (expand)</title>
<path fill="none" stroke="black" d="M965.654,-503.697C965.654,-495.983 965.654,-486.712 965.654,-478.112"/>
<polygon fill="black" stroke="black" points="969.154,-478.104 965.654,-468.104 962.154,-478.104 969.154,-478.104"/>
</g>
<!-- [root] provider[&quot;registry.terraform.io/hashicorp/helm&quot;] (close)&#45;&gt;[root] helm_release.airflow (expand) -->
<g id="edge43" class="edge"><title>[root] provider[&quot;registry.terraform.io/hashicorp/helm&quot;] (close)&#45;&gt;[root] helm_release.airflow (expand)</title>
<path fill="none" stroke="black" d="M1051.93,-504.765C1109.86,-493.864 1186.11,-479.517 1245.27,-468.385"/>
<polygon fill="black" stroke="black" points="1246.17,-471.775 1255.35,-466.486 1244.88,-464.896 1246.17,-471.775"/>
</g>
<!-- [root] provider[&quot;registry.terraform.io/hashicorp/helm&quot;] (close)&#45;&gt;[root] helm_release.grafana (expand) -->
<g id="edge44" class="edge"><title>[root] provider[&quot;registry.terraform.io/hashicorp/helm&quot;] (close)&#45;&gt;[root] helm_release.grafana (expand)</title>
<path fill="none" stroke="black" d="M1010.92,-504.055C1037.03,-494.282 1070.04,-481.924 1097.64,-471.593"/>
<polygon fill="black" stroke="black" points="1099.02,-474.815 1107.16,-468.032 1096.56,-468.26 1099.02,-474.815"/>
</g>
<!-- [root] provider[&quot;registry.terraform.io/hashicorp/helm&quot;] (close)&#45;&gt;[root] helm_release.localstack (expand) -->
<g id="edge45" class="edge"><title>[root] provider[&quot;registry.terraform.io/hashicorp/helm&quot;] (close)&#45;&gt;[root] helm_release.localstack (expand)</title>
<path fill="none" stroke="black" d="M918.208,-504.055C890.725,-494.24 855.938,-481.816 826.937,-471.458"/>
<polygon fill="black" stroke="black" points="827.937,-468.099 817.343,-468.032 825.583,-474.691 827.937,-468.099"/>
</g>
<!-- [root] provider[&quot;registry.terraform.io/hashicorp/helm&quot;] (close)&#45;&gt;[root] helm_release.metrics&#45;server (expand) -->
<g id="edge46" class="edge"><title>[root] provider[&quot;registry.terraform.io/hashicorp/helm&quot;] (close)&#45;&gt;[root] helm_release.metrics&#45;server (expand)</title>
<path fill="none" stroke="black" d="M809.048,-506.658C708.686,-497.072 575.378,-483.606 448.464,-468.198"/>
<polygon fill="black" stroke="black" points="448.518,-464.678 438.168,-466.941 447.671,-471.627 448.518,-464.678"/>
</g>
<!-- [root] provider[&quot;registry.terraform.io/hashicorp/helm&quot;] (close)&#45;&gt;[root] helm_release.prometheus (expand) -->
<g id="edge47" class="edge"><title>[root] provider[&quot;registry.terraform.io/hashicorp/helm&quot;] (close)&#45;&gt;[root] helm_release.prometheus (expand)</title>
<path fill="none" stroke="black" d="M871.565,-504.897C810.328,-494.416 730.227,-480.707 666.137,-469.738"/>
<polygon fill="black" stroke="black" points="666.441,-466.239 655.994,-468.002 665.26,-473.139 666.441,-466.239"/>
</g>
<!-- [root] provider[&quot;registry.terraform.io/hashicorp/helm&quot;] (close)&#45;&gt;[root] helm_release.superset (expand) -->
<g id="edge48" class="edge"><title>[root] provider[&quot;registry.terraform.io/hashicorp/helm&quot;] (close)&#45;&gt;[root] helm_release.superset (expand)</title>
<path fill="none" stroke="black" d="M1112.94,-506.335C1201.39,-497 1316.38,-483.94 1427.45,-468.131"/>
<polygon fill="black" stroke="black" points="1428.09,-471.575 1437.49,-466.692 1427.1,-464.646 1428.09,-471.575"/>
</g>
<!-- [root] provider[&quot;registry.terraform.io/hashicorp/kubernetes&quot;] (close) -->
<g id="node30" class="node"><title>[root] provider[&quot;registry.terraform.io/hashicorp/kubernetes&quot;] (close)</title>
<ellipse fill="none" stroke="black" cx="1961.65" cy="-450" rx="328.442" ry="18"/>
<text text-anchor="middle" x="1961.65" y="-446.3" font-family="Times,serif" font-size="14.00">[root] provider[&quot;registry.terraform.io/hashicorp/kubernetes&quot;] (close)</text>
</g>
<!-- [root] provider[&quot;registry.terraform.io/hashicorp/kubernetes&quot;] (close)&#45;&gt;[root] data.kubernetes_secret.postgresql (expand) -->
<g id="edge50" class="edge"><title>[root] provider[&quot;registry.terraform.io/hashicorp/kubernetes&quot;] (close)&#45;&gt;[root] data.kubernetes_secret.postgresql (expand)</title>
<path fill="none" stroke="black" d="M1840.58,-433.247C1758.76,-422.602 1650.45,-408.509 1564.73,-397.355"/>
<polygon fill="black" stroke="black" points="1565.02,-393.864 1554.65,-396.045 1564.12,-400.806 1565.02,-393.864"/>
</g>
<!-- [root] provider[&quot;registry.terraform.io/hashicorp/kubernetes&quot;] (close)&#45;&gt;[root] kubernetes_cluster_role_binding.dbt (expand) -->
<g id="edge51" class="edge"><title>[root] provider[&quot;registry.terraform.io/hashicorp/kubernetes&quot;] (close)&#45;&gt;[root] kubernetes_cluster_role_binding.dbt (expand)</title>
<path fill="none" stroke="black" d="M2208.3,-438.072C2386.65,-429.307 2633.63,-415.402 2861.02,-396.024"/>
<polygon fill="black" stroke="black" points="2861.49,-399.498 2871.15,-395.157 2860.89,-392.523 2861.49,-399.498"/>
</g>
<!-- [root] provider[&quot;registry.terraform.io/hashicorp/kubernetes&quot;] (close)&#45;&gt;[root] kubernetes_config_map.prometheus_dashboard (expand) -->
<g id="edge52" class="edge"><title>[root] provider[&quot;registry.terraform.io/hashicorp/kubernetes&quot;] (close)&#45;&gt;[root] kubernetes_config_map.prometheus_dashboard (expand)</title>
<path fill="none" stroke="black" d="M2113.96,-434.026C2224.21,-423.187 2373.74,-408.486 2490.51,-397.005"/>
<polygon fill="black" stroke="black" points="2491.03,-400.472 2500.64,-396.01 2490.34,-393.505 2491.03,-400.472"/>
</g>
<!-- [root] provider[&quot;registry.terraform.io/hashicorp/kubernetes&quot;] (close)&#45;&gt;[root] kubernetes_namespace.airbyte (expand) -->
<g id="edge53" class="edge"><title>[root] provider[&quot;registry.terraform.io/hashicorp/kubernetes&quot;] (close)&#45;&gt;[root] kubernetes_namespace.airbyte (expand)</title>
<path fill="none" stroke="black" d="M1771.03,-435.324C1634.66,-425.252 1446.77,-410.787 1281.65,-396 1269.56,-394.917 1256.98,-393.739 1244.39,-392.526"/>
<polygon fill="black" stroke="black" points="1244.59,-389.029 1234.3,-391.546 1243.91,-395.996 1244.59,-389.029"/>
</g>
<!-- [root] provider[&quot;registry.terraform.io/hashicorp/kubernetes&quot;] (close)&#45;&gt;[root] kubernetes_namespace.localstack (expand) -->
<g id="edge54" class="edge"><title>[root] provider[&quot;registry.terraform.io/hashicorp/kubernetes&quot;] (close)&#45;&gt;[root] kubernetes_namespace.localstack (expand)</title>
<path fill="none" stroke="black" d="M1729.66,-437.243C1473.5,-424.137 1085.01,-403.85 985.148,-396.05"/>
<polygon fill="black" stroke="black" points="985.41,-392.56 975.156,-395.227 984.835,-399.537 985.41,-392.56"/>
</g>
<!-- [root] provider[&quot;registry.terraform.io/hashicorp/kubernetes&quot;] (close)&#45;&gt;[root] kubernetes_namespace.prometheus (expand) -->
<g id="edge55" class="edge"><title>[root] provider[&quot;registry.terraform.io/hashicorp/kubernetes&quot;] (close)&#45;&gt;[root] kubernetes_namespace.prometheus (expand)</title>
<path fill="none" stroke="black" d="M1732.35,-437.082C1696.31,-435.31 1659.48,-433.558 1624.65,-432 1218.27,-413.817 1113.2,-427.514 704.205,-396.086"/>
<polygon fill="black" stroke="black" points="704.419,-392.593 694.179,-395.312 703.879,-399.572 704.419,-392.593"/>
</g>
<!-- [root] provider[&quot;registry.terraform.io/hashicorp/kubernetes&quot;] (close)&#45;&gt;[root] kubernetes_namespace.superset (expand) -->
<g id="edge56" class="edge"><title>[root] provider[&quot;registry.terraform.io/hashicorp/kubernetes&quot;] (close)&#45;&gt;[root] kubernetes_namespace.superset (expand)</title>
<path fill="none" stroke="black" d="M1899.47,-432.322C1861.8,-422.219 1813.56,-409.28 1774.03,-398.678"/>
<polygon fill="black" stroke="black" points="1774.74,-395.246 1764.18,-396.036 1772.93,-402.007 1774.74,-395.246"/>
</g>
<!-- [root] provider[&quot;registry.terraform.io/hashicorp/kubernetes&quot;] (close)&#45;&gt;[root] kubernetes_secret.airflow_webserver (expand) -->
<g id="edge57" class="edge"><title>[root] provider[&quot;registry.terraform.io/hashicorp/kubernetes&quot;] (close)&#45;&gt;[root] kubernetes_secret.airflow_webserver (expand)</title>
<path fill="none" stroke="black" d="M1968.08,-431.697C1971.01,-423.813 1974.54,-414.304 1977.79,-405.546"/>
<polygon fill="black" stroke="black" points="1981.1,-406.697 1981.3,-396.104 1974.54,-404.26 1981.1,-406.697"/>
</g>
<!-- [root] provider[&quot;registry.terraform.io/hashicorp/kubernetes&quot;] (close)&#45;&gt;[root] kubernetes_secret.prometheus_datasource (expand) -->
<g id="edge58" class="edge"><title>[root] provider[&quot;registry.terraform.io/hashicorp/kubernetes&quot;] (close)&#45;&gt;[root] kubernetes_secret.prometheus_datasource (expand)</title>
<path fill="none" stroke="black" d="M2044.39,-432.5C2096.19,-422.169 2163.13,-408.82 2217.18,-398.041"/>
<polygon fill="black" stroke="black" points="2217.99,-401.448 2227.11,-396.059 2216.62,-394.583 2217.99,-401.448"/>
</g>
<!-- [root] provider[&quot;registry.terraform.io/hashicorp/random&quot;] (close) -->
<g id="node31" class="node"><title>[root] provider[&quot;registry.terraform.io/hashicorp/random&quot;] (close)</title>
<ellipse fill="none" stroke="black" cx="2590.65" cy="-522" rx="311.145" ry="18"/>
<text text-anchor="middle" x="2590.65" y="-518.3" font-family="Times,serif" font-size="14.00">[root] provider[&quot;registry.terraform.io/hashicorp/random&quot;] (close)</text>
</g>
<!-- [root] provider[&quot;registry.terraform.io/hashicorp/random&quot;] (close)&#45;&gt;[root] random_password.airflow_webserver_secret_key (expand) -->
<g id="edge60" class="edge"><title>[root] provider[&quot;registry.terraform.io/hashicorp/random&quot;] (close)&#45;&gt;[root] random_password.airflow_webserver_secret_key (expand)</title>
<path fill="none" stroke="black" d="M2721.26,-505.649C2908.65,-481.022 3224.67,-428.424 3160.65,-360 3120.38,-316.952 2781.59,-307.721 2559.17,-306.367"/>
<polygon fill="black" stroke="black" points="2559.01,-302.866 2548.99,-306.31 2558.97,-309.866 2559.01,-302.866"/>
</g>
<!-- [root] provider[&quot;registry.terraform.io/kyma&#45;incubator/kind&quot;] (close) -->
<g id="node32" class="node"><title>[root] provider[&quot;registry.terraform.io/kyma&#45;incubator/kind&quot;] (close)</title>
<ellipse fill="none" stroke="black" cx="2759.65" cy="-162" rx="323.043" ry="18"/>
<text text-anchor="middle" x="2759.65" y="-158.3" font-family="Times,serif" font-size="14.00">[root] provider[&quot;registry.terraform.io/kyma&#45;incubator/kind&quot;] (close)</text>
</g>
<!-- [root] provider[&quot;registry.terraform.io/kyma&#45;incubator/kind&quot;] (close)&#45;&gt;[root] kind_cluster.default (expand) -->
<g id="edge61" class="edge"><title>[root] provider[&quot;registry.terraform.io/kyma&#45;incubator/kind&quot;] (close)&#45;&gt;[root] kind_cluster.default (expand)</title>
<path fill="none" stroke="black" d="M2540.16,-148.767C2260.37,-133.174 1789.49,-106.93 1593.48,-96.0062"/>
<polygon fill="black" stroke="black" points="1593.4,-92.4967 1583.22,-95.4347 1593.01,-99.4858 1593.4,-92.4967"/>
</g>
<!-- [root] root -->
<g id="node33" class="node"><title>[root] root</title>
<ellipse fill="none" stroke="black" cx="1961.65" cy="-594" rx="58.4896" ry="18"/>
<text text-anchor="middle" x="1961.65" y="-590.3" font-family="Times,serif" font-size="14.00">[root] root</text>
</g>
<!-- [root] root&#45;&gt;[root] meta.count&#45;boundary (EachMode fixup) -->
<g id="edge63" class="edge"><title>[root] root&#45;&gt;[root] meta.count&#45;boundary (EachMode fixup)</title>
<path fill="none" stroke="black" d="M1910.34,-585.106C1839.26,-574.17 1709.04,-554.137 1615.71,-539.778"/>
<polygon fill="black" stroke="black" points="1616.08,-536.293 1605.66,-538.232 1615.01,-543.212 1616.08,-536.293"/>
</g>
<!-- [root] root&#45;&gt;[root] provider[&quot;registry.terraform.io/hashicorp/helm&quot;] (close) -->
<g id="edge64" class="edge"><title>[root] root&#45;&gt;[root] provider[&quot;registry.terraform.io/hashicorp/helm&quot;] (close)</title>
<path fill="none" stroke="black" d="M1905.25,-589.036C1764.75,-579.161 1393.81,-553.091 1162.25,-536.817"/>
<polygon fill="black" stroke="black" points="1162.23,-533.307 1152.01,-536.097 1161.74,-540.29 1162.23,-533.307"/>
</g>
<!-- [root] root&#45;&gt;[root] provider[&quot;registry.terraform.io/hashicorp/kubernetes&quot;] (close) -->
<g id="edge65" class="edge"><title>[root] root&#45;&gt;[root] provider[&quot;registry.terraform.io/hashicorp/kubernetes&quot;] (close)</title>
<path fill="none" stroke="black" d="M1961.65,-575.871C1961.65,-551.67 1961.65,-507.211 1961.65,-478.393"/>
<polygon fill="black" stroke="black" points="1965.15,-478.189 1961.65,-468.189 1958.15,-478.189 1965.15,-478.189"/>
</g>
<!-- [root] root&#45;&gt;[root] provider[&quot;registry.terraform.io/hashicorp/random&quot;] (close) -->
<g id="edge66" class="edge"><title>[root] root&#45;&gt;[root] provider[&quot;registry.terraform.io/hashicorp/random&quot;] (close)</title>
<path fill="none" stroke="black" d="M2015.55,-587.002C2109.6,-576.535 2306.72,-554.598 2443.8,-539.343"/>
<polygon fill="black" stroke="black" points="2444.42,-542.796 2453.97,-538.211 2443.65,-535.838 2444.42,-542.796"/>
</g>
<!-- [root] root&#45;&gt;[root] provider[&quot;registry.terraform.io/kyma&#45;incubator/kind&quot;] (close) -->
<g id="edge67" class="edge"><title>[root] root&#45;&gt;[root] provider[&quot;registry.terraform.io/kyma&#45;incubator/kind&quot;] (close)</title>
<path fill="none" stroke="black" d="M2020.18,-592.621C2268.04,-590.259 3218.65,-573.231 3218.65,-451 3218.65,-451 3218.65,-451 3218.65,-305 3218.65,-238.321 3039.64,-199.544 2905.2,-179.824"/>
<polygon fill="black" stroke="black" points="2905.59,-176.344 2895.2,-178.379 2904.59,-183.273 2905.59,-176.344"/>
</g>
</g>
</svg>
