<?xml version="1.0" encoding="UTF-8" standalone="no"?>
<!DOCTYPE svg PUBLIC "-//W3C//DTD SVG 1.1//EN"
 "http://www.w3.org/Graphics/SVG/1.1/DTD/svg11.dtd">
<!-- Generated by graphviz version 2.49.3 (20211023.0002)
 -->
<!-- Pages: 1 -->
<svg width="2459pt" height="548pt"
 viewBox="0.00 0.00 2458.88 548.00" xmlns="http://www.w3.org/2000/svg" xmlns:xlink="http://www.w3.org/1999/xlink">
<g id="graph0" class="graph" transform="scale(1 1) rotate(0) translate(4 544)">
<polygon fill="white" stroke="transparent" points="-4,4 -4,-544 2454.88,-544 2454.88,4 -4,4"/>
<!-- [root] data.kubernetes_secret.postgresql (expand) -->
<g id="node1" class="node">
<title>[root] data.kubernetes_secret.postgresql (expand)</title>
<polygon fill="none" stroke="black" points="1648,-324 1443,-324 1443,-288 1648,-288 1648,-324"/>
<text text-anchor="middle" x="1545.5" y="-302.3" font-family="Times,serif" font-size="14.00">data.kubernetes_secret.postgresql</text>
</g>
<!-- [root] kubernetes_namespace.dbt (expand) -->
<g id="node14" class="node">
<title>[root] kubernetes_namespace.dbt (expand)</title>
<polygon fill="none" stroke="black" points="1069,-252 902,-252 902,-216 1069,-216 1069,-252"/>
<text text-anchor="middle" x="985.5" y="-230.3" font-family="Times,serif" font-size="14.00">kubernetes_namespace.dbt</text>
</g>
<!-- [root] data.kubernetes_secret.postgresql (expand)&#45;&gt;[root] kubernetes_namespace.dbt (expand) -->
<g id="edge1" class="edge">
<title>[root] data.kubernetes_secret.postgresql (expand)&#45;&gt;[root] kubernetes_namespace.dbt (expand)</title>
<path fill="none" stroke="black" d="M1442.72,-289.07C1439.95,-288.7 1437.21,-288.34 1434.5,-288 1279.97,-268.37 1237.68,-274.07 1079.21,-252.03"/>
<polygon fill="black" stroke="black" points="1079.49,-248.53 1069.1,-250.61 1078.52,-255.47 1079.49,-248.53"/>
</g>
<!-- [root] helm_release.airflow (expand) -->
<g id="node2" class="node">
<title>[root] helm_release.airflow (expand)</title>
<polygon fill="none" stroke="black" points="495.5,-396 361.5,-396 361.5,-360 495.5,-360 495.5,-396"/>
<text text-anchor="middle" x="428.5" y="-374.3" font-family="Times,serif" font-size="14.00">helm_release.airflow</text>
</g>
<!-- [root] kubernetes_namespace.airflow (expand) -->
<g id="node13" class="node">
<title>[root] kubernetes_namespace.airflow (expand)</title>
<polygon fill="none" stroke="black" points="964,-324 775,-324 775,-288 964,-288 964,-324"/>
<text text-anchor="middle" x="869.5" y="-302.3" font-family="Times,serif" font-size="14.00">kubernetes_namespace.airflow</text>
</g>
<!-- [root] helm_release.airflow (expand)&#45;&gt;[root] kubernetes_namespace.airflow (expand) -->
<g id="edge2" class="edge">
<title>[root] helm_release.airflow (expand)&#45;&gt;[root] kubernetes_namespace.airflow (expand)</title>
<path fill="none" stroke="black" d="M495.58,-361.68C498.59,-361.09 501.57,-360.53 504.5,-360 617.01,-339.72 648.57,-341.46 764.92,-324.21"/>
<polygon fill="black" stroke="black" points="765.57,-327.65 774.94,-322.71 764.53,-320.73 765.57,-327.65"/>
</g>
<!-- [root] provider[&quot;registry.terraform.io/hashicorp/helm&quot;] -->
<g id="node19" class="node">
<title>[root] provider[&quot;registry.terraform.io/hashicorp/helm&quot;]</title>
<polygon fill="none" stroke="black" points="493.5,-324 229.9,-306 493.5,-288 757.1,-306 493.5,-324"/>
<text text-anchor="middle" x="493.5" y="-302.3" font-family="Times,serif" font-size="14.00">provider[&quot;registry.terraform.io/hashicorp/helm&quot;]</text>
</g>
<!-- [root] helm_release.airflow (expand)&#45;&gt;[root] provider[&quot;registry.terraform.io/hashicorp/helm&quot;] -->
<g id="edge3" class="edge">
<title>[root] helm_release.airflow (expand)&#45;&gt;[root] provider[&quot;registry.terraform.io/hashicorp/helm&quot;]</title>
<path fill="none" stroke="black" d="M444.57,-359.7C452.67,-350.97 462.63,-340.24 471.44,-330.75"/>
<polygon fill="black" stroke="black" points="474.27,-332.85 478.51,-323.14 469.14,-328.09 474.27,-332.85"/>
</g>
<!-- [root] helm_release.grafana (expand) -->
<g id="node3" class="node">
<title>[root] helm_release.grafana (expand)</title>
<polygon fill="none" stroke="black" points="649.5,-396 513.5,-396 513.5,-360 649.5,-360 649.5,-396"/>
<text text-anchor="middle" x="581.5" y="-374.3" font-family="Times,serif" font-size="14.00">helm_release.grafana</text>
</g>
<!-- [root] kubernetes_namespace.grafana (expand) -->
<g id="node15" class="node">
<title>[root] kubernetes_namespace.grafana (expand)</title>
<polygon fill="none" stroke="black" points="1212,-324 1021,-324 1021,-288 1212,-288 1212,-324"/>
<text text-anchor="middle" x="1116.5" y="-302.3" font-family="Times,serif" font-size="14.00">kubernetes_namespace.grafana</text>
</g>
<!-- [root] helm_release.grafana (expand)&#45;&gt;[root] kubernetes_namespace.grafana (expand) -->
<g id="edge4" class="edge">
<title>[root] helm_release.grafana (expand)&#45;&gt;[root] kubernetes_namespace.grafana (expand)</title>
<path fill="none" stroke="black" d="M649.86,-361.52C652.78,-360.98 655.66,-360.47 658.5,-360 797.48,-336.78 833.54,-340.32 973.5,-324 985.55,-322.6 998.17,-321.11 1010.71,-319.63"/>
<polygon fill="black" stroke="black" points="1011.22,-323.1 1020.74,-318.44 1010.4,-316.14 1011.22,-323.1"/>
</g>
<!-- [root] helm_release.grafana (expand)&#45;&gt;[root] provider[&quot;registry.terraform.io/hashicorp/helm&quot;] -->
<g id="edge5" class="edge">
<title>[root] helm_release.grafana (expand)&#45;&gt;[root] provider[&quot;registry.terraform.io/hashicorp/helm&quot;]</title>
<path fill="none" stroke="black" d="M559.75,-359.7C548.06,-350.4 533.52,-338.84 521.05,-328.91"/>
<polygon fill="black" stroke="black" points="523.21,-326.16 513.2,-322.67 518.85,-331.64 523.21,-326.16"/>
</g>
<!-- [root] helm_release.metrics&#45;server (expand) -->
<g id="node4" class="node">
<title>[root] helm_release.metrics&#45;server (expand)</title>
<polygon fill="none" stroke="black" points="343.5,-396 169.5,-396 169.5,-360 343.5,-360 343.5,-396"/>
<text text-anchor="middle" x="256.5" y="-374.3" font-family="Times,serif" font-size="14.00">helm_release.metrics&#45;server</text>
</g>
<!-- [root] helm_release.metrics&#45;server (expand)&#45;&gt;[root] provider[&quot;registry.terraform.io/hashicorp/helm&quot;] -->
<g id="edge6" class="edge">
<title>[root] helm_release.metrics&#45;server (expand)&#45;&gt;[root] provider[&quot;registry.terraform.io/hashicorp/helm&quot;]</title>
<path fill="none" stroke="black" d="M314.17,-359.97C351.53,-348.93 399.95,-334.63 437.06,-323.67"/>
<polygon fill="black" stroke="black" points="438.12,-327.01 446.72,-320.82 436.14,-320.29 438.12,-327.01"/>
</g>
<!-- [root] helm_release.postgresql (expand) -->
<g id="node5" class="node">
<title>[root] helm_release.postgresql (expand)</title>
<polygon fill="none" stroke="black" points="151,-396 0,-396 0,-360 151,-360 151,-396"/>
<text text-anchor="middle" x="75.5" y="-374.3" font-family="Times,serif" font-size="14.00">helm_release.postgresql</text>
</g>
<!-- [root] helm_release.postgresql (expand)&#45;&gt;[root] kubernetes_namespace.dbt (expand) -->
<g id="edge7" class="edge">
<title>[root] helm_release.postgresql (expand)&#45;&gt;[root] kubernetes_namespace.dbt (expand)</title>
<path fill="none" stroke="black" d="M96,-359.91C122.72,-338.75 171.83,-303.58 220.5,-288 342.93,-248.8 716.01,-238.58 891.89,-235.93"/>
<polygon fill="black" stroke="black" points="891.96,-239.43 901.9,-235.78 891.85,-232.43 891.96,-239.43"/>
</g>
<!-- [root] helm_release.postgresql (expand)&#45;&gt;[root] provider[&quot;registry.terraform.io/hashicorp/helm&quot;] -->
<g id="edge8" class="edge">
<title>[root] helm_release.postgresql (expand)&#45;&gt;[root] provider[&quot;registry.terraform.io/hashicorp/helm&quot;]</title>
<path fill="none" stroke="black" d="M151.01,-361.74C154.22,-361.14 157.39,-360.56 160.5,-360 242.98,-345.19 337.34,-330.37 404.51,-320.19"/>
<polygon fill="black" stroke="black" points="405.27,-323.61 414.63,-318.65 404.22,-316.69 405.27,-323.61"/>
</g>
<!-- [root] helm_release.prometheus (expand) -->
<g id="node6" class="node">
<title>[root] helm_release.prometheus (expand)</title>
<polygon fill="none" stroke="black" points="985,-396 826,-396 826,-360 985,-360 985,-396"/>
<text text-anchor="middle" x="905.5" y="-374.3" font-family="Times,serif" font-size="14.00">helm_release.prometheus</text>
</g>
<!-- [root] kubernetes_namespace.prometheus (expand) -->
<g id="node16" class="node">
<title>[root] kubernetes_namespace.prometheus (expand)</title>
<polygon fill="none" stroke="black" points="1880.5,-324 1666.5,-324 1666.5,-288 1880.5,-288 1880.5,-324"/>
<text text-anchor="middle" x="1773.5" y="-302.3" font-family="Times,serif" font-size="14.00">kubernetes_namespace.prometheus</text>
</g>
<!-- [root] helm_release.prometheus (expand)&#45;&gt;[root] kubernetes_namespace.prometheus (expand) -->
<g id="edge9" class="edge">
<title>[root] helm_release.prometheus (expand)&#45;&gt;[root] kubernetes_namespace.prometheus (expand)</title>
<path fill="none" stroke="black" d="M985.47,-361.2C988.52,-360.76 991.53,-360.36 994.5,-360 1284.14,-324.64 1362.13,-352.78 1656.31,-324.06"/>
<polygon fill="black" stroke="black" points="1656.81,-327.53 1666.41,-323.06 1656.12,-320.56 1656.81,-327.53"/>
</g>
<!-- [root] helm_release.prometheus (expand)&#45;&gt;[root] provider[&quot;registry.terraform.io/hashicorp/helm&quot;] -->
<g id="edge10" class="edge">
<title>[root] helm_release.prometheus (expand)&#45;&gt;[root] provider[&quot;registry.terraform.io/hashicorp/helm&quot;]</title>
<path fill="none" stroke="black" d="M825.94,-361.7C822.75,-361.12 819.6,-360.55 816.5,-360 736.3,-345.76 644.66,-330.85 579.52,-320.49"/>
<polygon fill="black" stroke="black" points="579.73,-316.98 569.3,-318.87 578.63,-323.89 579.73,-316.98"/>
</g>
<!-- [root] helm_release.superset (expand) -->
<g id="node7" class="node">
<title>[root] helm_release.superset (expand)</title>
<polygon fill="none" stroke="black" points="807.5,-396 667.5,-396 667.5,-360 807.5,-360 807.5,-396"/>
<text text-anchor="middle" x="737.5" y="-374.3" font-family="Times,serif" font-size="14.00">helm_release.superset</text>
</g>
<!-- [root] helm_release.superset (expand)&#45;&gt;[root] data.kubernetes_secret.postgresql (expand) -->
<g id="edge11" class="edge">
<title>[root] helm_release.superset (expand)&#45;&gt;[root] data.kubernetes_secret.postgresql (expand)</title>
<path fill="none" stroke="black" d="M807.64,-361.47C810.96,-360.93 814.26,-360.44 817.5,-360 1086.41,-323.79 1159.55,-352.11 1432.52,-324.15"/>
<polygon fill="black" stroke="black" points="1433.15,-327.6 1442.74,-323.09 1432.43,-320.64 1433.15,-327.6"/>
</g>
<!-- [root] kubernetes_namespace.superset (expand) -->
<g id="node17" class="node">
<title>[root] kubernetes_namespace.superset (expand)</title>
<polygon fill="none" stroke="black" points="1425,-324 1230,-324 1230,-288 1425,-288 1425,-324"/>
<text text-anchor="middle" x="1327.5" y="-302.3" font-family="Times,serif" font-size="14.00">kubernetes_namespace.superset</text>
</g>
<!-- [root] helm_release.superset (expand)&#45;&gt;[root] kubernetes_namespace.superset (expand) -->
<g id="edge12" class="edge">
<title>[root] helm_release.superset (expand)&#45;&gt;[root] kubernetes_namespace.superset (expand)</title>
<path fill="none" stroke="black" d="M807.65,-361.59C810.98,-361.02 814.27,-360.49 817.5,-360 992.55,-333.7 1040.88,-345.83 1219.91,-324.14"/>
<polygon fill="black" stroke="black" points="1220.43,-327.61 1229.93,-322.91 1219.57,-320.66 1220.43,-327.61"/>
</g>
<!-- [root] helm_release.superset (expand)&#45;&gt;[root] provider[&quot;registry.terraform.io/hashicorp/helm&quot;] -->
<g id="edge13" class="edge">
<title>[root] helm_release.superset (expand)&#45;&gt;[root] provider[&quot;registry.terraform.io/hashicorp/helm&quot;]</title>
<path fill="none" stroke="black" d="M678.12,-359.97C639.66,-348.93 589.81,-334.63 551.61,-323.67"/>
<polygon fill="black" stroke="black" points="552.24,-320.21 541.66,-320.82 550.31,-326.94 552.24,-320.21"/>
</g>
<!-- [root] kind_cluster.default (expand) -->
<g id="node8" class="node">
<title>[root] kind_cluster.default (expand)</title>
<polygon fill="none" stroke="black" points="1351,-108 1224,-108 1224,-72 1351,-72 1351,-108"/>
<text text-anchor="middle" x="1287.5" y="-86.3" font-family="Times,serif" font-size="14.00">kind_cluster.default</text>
</g>
<!-- [root] provider[&quot;registry.terraform.io/kyma&#45;incubator/kind&quot;] -->
<g id="node21" class="node">
<title>[root] provider[&quot;registry.terraform.io/kyma&#45;incubator/kind&quot;]</title>
<polygon fill="none" stroke="black" points="1287.5,-36 994.08,-18 1287.5,0 1580.92,-18 1287.5,-36"/>
<text text-anchor="middle" x="1287.5" y="-14.3" font-family="Times,serif" font-size="14.00">provider[&quot;registry.terraform.io/kyma&#45;incubator/kind&quot;]</text>
</g>
<!-- [root] kind_cluster.default (expand)&#45;&gt;[root] provider[&quot;registry.terraform.io/kyma&#45;incubator/kind&quot;] -->
<g id="edge14" class="edge">
<title>[root] kind_cluster.default (expand)&#45;&gt;[root] provider[&quot;registry.terraform.io/kyma&#45;incubator/kind&quot;]</title>
<path fill="none" stroke="black" d="M1287.5,-71.7C1287.5,-63.98 1287.5,-54.71 1287.5,-46.11"/>
<polygon fill="black" stroke="black" points="1291,-46.1 1287.5,-36.1 1284,-46.1 1291,-46.1"/>
</g>
<!-- [root] kubernetes_cluster_role.dbt (expand) -->
<g id="node9" class="node">
<title>[root] kubernetes_cluster_role.dbt (expand)</title>
<polygon fill="none" stroke="black" points="1259.5,-252 1087.5,-252 1087.5,-216 1259.5,-216 1259.5,-252"/>
<text text-anchor="middle" x="1173.5" y="-230.3" font-family="Times,serif" font-size="14.00">kubernetes_cluster_role.dbt</text>
</g>
<!-- [root] provider[&quot;registry.terraform.io/hashicorp/kubernetes&quot;] -->
<g id="node20" class="node">
<title>[root] provider[&quot;registry.terraform.io/hashicorp/kubernetes&quot;]</title>
<polygon fill="none" stroke="black" points="1287.5,-180 993.24,-162 1287.5,-144 1581.76,-162 1287.5,-180"/>
<text text-anchor="middle" x="1287.5" y="-158.3" font-family="Times,serif" font-size="14.00">provider[&quot;registry.terraform.io/hashicorp/kubernetes&quot;]</text>
</g>
<!-- [root] kubernetes_cluster_role.dbt (expand)&#45;&gt;[root] provider[&quot;registry.terraform.io/hashicorp/kubernetes&quot;] -->
<g id="edge15" class="edge">
<title>[root] kubernetes_cluster_role.dbt (expand)&#45;&gt;[root] provider[&quot;registry.terraform.io/hashicorp/kubernetes&quot;]</title>
<path fill="none" stroke="black" d="M1201.39,-215.88C1217.07,-206.25 1236.78,-194.15 1253.38,-183.95"/>
<polygon fill="black" stroke="black" points="1255.54,-186.73 1262.23,-178.51 1251.88,-180.76 1255.54,-186.73"/>
</g>
<!-- [root] kubernetes_cluster_role_binding.dbt (expand) -->
<g id="node10" class="node">
<title>[root] kubernetes_cluster_role_binding.dbt (expand)</title>
<polygon fill="none" stroke="black" points="1224,-396 1003,-396 1003,-360 1224,-360 1224,-396"/>
<text text-anchor="middle" x="1113.5" y="-374.3" font-family="Times,serif" font-size="14.00">kubernetes_cluster_role_binding.dbt</text>
</g>
<!-- [root] kubernetes_cluster_role_binding.dbt (expand)&#45;&gt;[root] kubernetes_cluster_role.dbt (expand) -->
<g id="edge16" class="edge">
<title>[root] kubernetes_cluster_role_binding.dbt (expand)&#45;&gt;[root] kubernetes_cluster_role.dbt (expand)</title>
<path fill="none" stroke="black" d="M1056.25,-359.96C1039.17,-351.91 1022.39,-340.35 1012.5,-324 1004.22,-310.31 1003.12,-300.96 1012.5,-288 1021.8,-275.14 1051.84,-263.72 1083.49,-254.79"/>
<polygon fill="black" stroke="black" points="1084.62,-258.11 1093.34,-252.1 1082.77,-251.36 1084.62,-258.11"/>
</g>
<!-- [root] kubernetes_cluster_role_binding.dbt (expand)&#45;&gt;[root] kubernetes_namespace.airflow (expand) -->
<g id="edge17" class="edge">
<title>[root] kubernetes_cluster_role_binding.dbt (expand)&#45;&gt;[root] kubernetes_namespace.airflow (expand)</title>
<path fill="none" stroke="black" d="M1054.12,-359.97C1019.44,-350.01 975.49,-337.41 939.17,-326.99"/>
<polygon fill="black" stroke="black" points="939.72,-323.5 929.14,-324.11 937.79,-330.23 939.72,-323.5"/>
</g>
<!-- [root] kubernetes_config_map.prometheus_dashboard (expand) -->
<g id="node11" class="node">
<title>[root] kubernetes_config_map.prometheus_dashboard (expand)</title>
<polygon fill="none" stroke="black" points="1526.5,-396 1242.5,-396 1242.5,-360 1526.5,-360 1526.5,-396"/>
<text text-anchor="middle" x="1384.5" y="-374.3" font-family="Times,serif" font-size="14.00">kubernetes_config_map.prometheus_dashboard</text>
</g>
<!-- [root] kubernetes_config_map.prometheus_dashboard (expand)&#45;&gt;[root] kubernetes_namespace.grafana (expand) -->
<g id="edge18" class="edge">
<title>[root] kubernetes_config_map.prometheus_dashboard (expand)&#45;&gt;[root] kubernetes_namespace.grafana (expand)</title>
<path fill="none" stroke="black" d="M1319.28,-359.97C1280.78,-349.91 1231.88,-337.14 1191.75,-326.65"/>
<polygon fill="black" stroke="black" points="1192.57,-323.25 1182.01,-324.11 1190.8,-330.02 1192.57,-323.25"/>
</g>
<!-- [root] kubernetes_namespace.airbyte (expand) -->
<g id="node12" class="node">
<title>[root] kubernetes_namespace.airbyte (expand)</title>
<polygon fill="none" stroke="black" points="2002.5,-396 1814.5,-396 1814.5,-360 2002.5,-360 2002.5,-396"/>
<text text-anchor="middle" x="1908.5" y="-374.3" font-family="Times,serif" font-size="14.00">kubernetes_namespace.airbyte</text>
</g>
<!-- [root] kubernetes_namespace.airbyte (expand)&#45;&gt;[root] provider[&quot;registry.terraform.io/hashicorp/kubernetes&quot;] -->
<g id="edge19" class="edge">
<title>[root] kubernetes_namespace.airbyte (expand)&#45;&gt;[root] provider[&quot;registry.terraform.io/hashicorp/kubernetes&quot;]</title>
<path fill="none" stroke="black" d="M1909.97,-359.68C1910.64,-339.59 1908.42,-306.84 1889.5,-288 1824.45,-223.25 1575.13,-189.08 1418.47,-173.63"/>
<polygon fill="black" stroke="black" points="1418.58,-170.13 1408.28,-172.64 1417.9,-177.09 1418.58,-170.13"/>
</g>
<!-- [root] kubernetes_namespace.airflow (expand)&#45;&gt;[root] provider[&quot;registry.terraform.io/hashicorp/kubernetes&quot;] -->
<g id="edge20" class="edge">
<title>[root] kubernetes_namespace.airflow (expand)&#45;&gt;[root] provider[&quot;registry.terraform.io/hashicorp/kubernetes&quot;]</title>
<path fill="none" stroke="black" d="M868.88,-287.69C869.18,-267.31 873.06,-233.95 893.5,-216 923.75,-189.44 1008.21,-176.08 1091.22,-169.41"/>
<polygon fill="black" stroke="black" points="1091.63,-172.89 1101.33,-168.63 1091.09,-165.91 1091.63,-172.89"/>
</g>
<!-- [root] kubernetes_namespace.dbt (expand)&#45;&gt;[root] provider[&quot;registry.terraform.io/hashicorp/kubernetes&quot;] -->
<g id="edge21" class="edge">
<title>[root] kubernetes_namespace.dbt (expand)&#45;&gt;[root] provider[&quot;registry.terraform.io/hashicorp/kubernetes&quot;]</title>
<path fill="none" stroke="black" d="M1058.99,-215.97C1107.89,-204.63 1171.67,-189.85 1219.42,-178.78"/>
<polygon fill="black" stroke="black" points="1220.4,-182.15 1229.35,-176.48 1218.82,-175.33 1220.4,-182.15"/>
</g>
<!-- [root] kubernetes_namespace.grafana (expand)&#45;&gt;[root] provider[&quot;registry.terraform.io/hashicorp/kubernetes&quot;] -->
<g id="edge22" class="edge">
<title>[root] kubernetes_namespace.grafana (expand)&#45;&gt;[root] provider[&quot;registry.terraform.io/hashicorp/kubernetes&quot;]</title>
<path fill="none" stroke="black" d="M1212.28,-288.07C1233.32,-280.23 1253.71,-268.77 1268.5,-252 1283.31,-235.2 1287.55,-209.72 1288.38,-190.32"/>
<polygon fill="black" stroke="black" points="1291.88,-190.32 1288.53,-180.26 1284.88,-190.21 1291.88,-190.32"/>
</g>
<!-- [root] kubernetes_namespace.prometheus (expand)&#45;&gt;[root] provider[&quot;registry.terraform.io/hashicorp/kubernetes&quot;] -->
<g id="edge23" class="edge">
<title>[root] kubernetes_namespace.prometheus (expand)&#45;&gt;[root] provider[&quot;registry.terraform.io/hashicorp/kubernetes&quot;]</title>
<path fill="none" stroke="black" d="M1714.88,-287.87C1621.22,-260.51 1438.91,-207.24 1345.59,-179.97"/>
<polygon fill="black" stroke="black" points="1346.33,-176.54 1335.75,-177.1 1344.37,-183.26 1346.33,-176.54"/>
</g>
<!-- [root] kubernetes_namespace.superset (expand)&#45;&gt;[root] provider[&quot;registry.terraform.io/hashicorp/kubernetes&quot;] -->
<g id="edge24" class="edge">
<title>[root] kubernetes_namespace.superset (expand)&#45;&gt;[root] provider[&quot;registry.terraform.io/hashicorp/kubernetes&quot;]</title>
<path fill="none" stroke="black" d="M1322.68,-287.87C1315.79,-263.43 1303.09,-218.33 1294.98,-189.55"/>
<polygon fill="black" stroke="black" points="1298.3,-188.42 1292.22,-179.75 1291.56,-190.32 1298.3,-188.42"/>
</g>
<!-- [root] kubernetes_secret.prometheus_datasource (expand) -->
<g id="node18" class="node">
<title>[root] kubernetes_secret.prometheus_datasource (expand)</title>
<polygon fill="none" stroke="black" points="1796.5,-396 1544.5,-396 1544.5,-360 1796.5,-360 1796.5,-396"/>
<text text-anchor="middle" x="1670.5" y="-374.3" font-family="Times,serif" font-size="14.00">kubernetes_secret.prometheus_datasource</text>
</g>
<!-- [root] kubernetes_secret.prometheus_datasource (expand)&#45;&gt;[root] kubernetes_namespace.grafana (expand) -->
<g id="edge25" class="edge">
<title>[root] kubernetes_secret.prometheus_datasource (expand)&#45;&gt;[root] kubernetes_namespace.grafana (expand)</title>
<path fill="none" stroke="black" d="M1544.39,-361.07C1541.4,-360.71 1538.43,-360.35 1535.5,-360 1399.3,-343.62 1362.36,-343.24 1222.31,-324.07"/>
<polygon fill="black" stroke="black" points="1222.42,-320.56 1212.04,-322.66 1221.47,-327.49 1222.42,-320.56"/>
</g>
<!-- [root] provider[&quot;registry.terraform.io/hashicorp/helm&quot;]&#45;&gt;[root] kind_cluster.default (expand) -->
<g id="edge42" class="edge">
<title>[root] provider[&quot;registry.terraform.io/hashicorp/helm&quot;]&#45;&gt;[root] kind_cluster.default (expand)</title>
<path fill="none" stroke="black" d="M531.46,-290.47C613.2,-259.65 812.4,-187.03 984.5,-144 1061.92,-124.64 1152.19,-109.83 1213.94,-100.84"/>
<polygon fill="black" stroke="black" points="1214.58,-104.29 1223.98,-99.4 1213.58,-97.36 1214.58,-104.29"/>
</g>
<!-- [root] provider[&quot;registry.terraform.io/hashicorp/kubernetes&quot;]&#45;&gt;[root] kind_cluster.default (expand) -->
<g id="edge50" class="edge">
<title>[root] provider[&quot;registry.terraform.io/hashicorp/kubernetes&quot;]&#45;&gt;[root] kind_cluster.default (expand)</title>
<path fill="none" stroke="black" d="M1287.5,-143.7C1287.5,-135.98 1287.5,-126.71 1287.5,-118.11"/>
<polygon fill="black" stroke="black" points="1291,-118.1 1287.5,-108.1 1284,-118.1 1291,-118.1"/>
</g>
<!-- [root] meta.count&#45;boundary (EachMode fixup) -->
<g id="node22" class="node">
<title>[root] meta.count&#45;boundary (EachMode fixup)</title>
<ellipse fill="none" stroke="black" cx="960.5" cy="-450" rx="180.87" ry="18"/>
<text text-anchor="middle" x="960.5" y="-446.3" font-family="Times,serif" font-size="14.00">[root] meta.count&#45;boundary (EachMode fixup)</text>
</g>
<!-- [root] meta.count&#45;boundary (EachMode fixup)&#45;&gt;[root] helm_release.airflow (expand) -->
<g id="edge26" class="edge">
<title>[root] meta.count&#45;boundary (EachMode fixup)&#45;&gt;[root] helm_release.airflow (expand)</title>
<path fill="none" stroke="black" d="M830.26,-437.51C741.37,-428.8 620.78,-415.3 505.62,-396.09"/>
<polygon fill="black" stroke="black" points="506,-392.61 495.56,-394.4 504.84,-399.51 506,-392.61"/>
</g>
<!-- [root] meta.count&#45;boundary (EachMode fixup)&#45;&gt;[root] helm_release.grafana (expand) -->
<g id="edge27" class="edge">
<title>[root] meta.count&#45;boundary (EachMode fixup)&#45;&gt;[root] helm_release.grafana (expand)</title>
<path fill="none" stroke="black" d="M870.78,-434.31C813.08,-424.61 736.25,-411.24 659.72,-396.2"/>
<polygon fill="black" stroke="black" points="660.39,-392.77 649.9,-394.26 659.03,-399.63 660.39,-392.77"/>
</g>
<!-- [root] meta.count&#45;boundary (EachMode fixup)&#45;&gt;[root] helm_release.metrics&#45;server (expand) -->
<g id="edge28" class="edge">
<title>[root] meta.count&#45;boundary (EachMode fixup)&#45;&gt;[root] helm_release.metrics&#45;server (expand)</title>
<path fill="none" stroke="black" d="M831.64,-437.34C811.51,-435.54 790.94,-433.71 771.5,-432 588.58,-415.92 539.53,-420.16 353.68,-396.09"/>
<polygon fill="black" stroke="black" points="353.94,-392.59 343.57,-394.77 353.03,-399.53 353.94,-392.59"/>
</g>
<!-- [root] meta.count&#45;boundary (EachMode fixup)&#45;&gt;[root] helm_release.postgresql (expand) -->
<g id="edge29" class="edge">
<title>[root] meta.count&#45;boundary (EachMode fixup)&#45;&gt;[root] helm_release.postgresql (expand)</title>
<path fill="none" stroke="black" d="M834.23,-437.1C813.28,-435.28 791.79,-433.51 771.5,-432 503.54,-412.06 432.03,-430.3 161.53,-396.02"/>
<polygon fill="black" stroke="black" points="161.78,-392.52 151.41,-394.72 160.89,-399.47 161.78,-392.52"/>
</g>
<!-- [root] meta.count&#45;boundary (EachMode fixup)&#45;&gt;[root] helm_release.prometheus (expand) -->
<g id="edge30" class="edge">
<title>[root] meta.count&#45;boundary (EachMode fixup)&#45;&gt;[root] helm_release.prometheus (expand)</title>
<path fill="none" stroke="black" d="M946.9,-431.7C940.38,-423.39 932.43,-413.28 925.25,-404.14"/>
<polygon fill="black" stroke="black" points="927.87,-401.81 918.94,-396.1 922.37,-406.13 927.87,-401.81"/>
</g>
<!-- [root] meta.count&#45;boundary (EachMode fixup)&#45;&gt;[root] helm_release.superset (expand) -->
<g id="edge31" class="edge">
<title>[root] meta.count&#45;boundary (EachMode fixup)&#45;&gt;[root] helm_release.superset (expand)</title>
<path fill="none" stroke="black" d="M908.5,-432.68C876.64,-422.68 835.61,-409.8 801.73,-399.16"/>
<polygon fill="black" stroke="black" points="802.51,-395.74 791.92,-396.08 800.41,-402.42 802.51,-395.74"/>
</g>
<!-- [root] meta.count&#45;boundary (EachMode fixup)&#45;&gt;[root] kubernetes_cluster_role_binding.dbt (expand) -->
<g id="edge32" class="edge">
<title>[root] meta.count&#45;boundary (EachMode fixup)&#45;&gt;[root] kubernetes_cluster_role_binding.dbt (expand)</title>
<path fill="none" stroke="black" d="M997.15,-432.23C1018.03,-422.68 1044.42,-410.61 1066.78,-400.38"/>
<polygon fill="black" stroke="black" points="1068.45,-403.46 1076.09,-396.12 1065.54,-397.09 1068.45,-403.46"/>
</g>
<!-- [root] meta.count&#45;boundary (EachMode fixup)&#45;&gt;[root] kubernetes_config_map.prometheus_dashboard (expand) -->
<g id="edge33" class="edge">
<title>[root] meta.count&#45;boundary (EachMode fixup)&#45;&gt;[root] kubernetes_config_map.prometheus_dashboard (expand)</title>
<path fill="none" stroke="black" d="M1049.38,-434.33C1113.84,-423.68 1201.54,-409.21 1271.05,-397.73"/>
<polygon fill="black" stroke="black" points="1271.88,-401.14 1281.17,-396.06 1270.74,-394.23 1271.88,-401.14"/>
</g>
<!-- [root] meta.count&#45;boundary (EachMode fixup)&#45;&gt;[root] kubernetes_namespace.airbyte (expand) -->
<g id="edge34" class="edge">
<title>[root] meta.count&#45;boundary (EachMode fixup)&#45;&gt;[root] kubernetes_namespace.airbyte (expand)</title>
<path fill="none" stroke="black" d="M1128.88,-443.44C1297.4,-436.73 1564.22,-422.95 1804.29,-396.07"/>
<polygon fill="black" stroke="black" points="1804.71,-399.55 1814.25,-394.95 1803.92,-392.59 1804.71,-399.55"/>
</g>
<!-- [root] meta.count&#45;boundary (EachMode fixup)&#45;&gt;[root] kubernetes_secret.prometheus_datasource (expand) -->
<g id="edge35" class="edge">
<title>[root] meta.count&#45;boundary (EachMode fixup)&#45;&gt;[root] kubernetes_secret.prometheus_datasource (expand)</title>
<path fill="none" stroke="black" d="M1094.53,-437.92C1208.64,-428.19 1377.21,-413.11 1534.09,-396.13"/>
<polygon fill="black" stroke="black" points="1534.84,-399.57 1544.4,-395.01 1534.08,-392.61 1534.84,-399.57"/>
</g>
<!-- [root] provider[&quot;registry.terraform.io/hashicorp/helm&quot;] (close) -->
<g id="node23" class="node">
<title>[root] provider[&quot;registry.terraform.io/hashicorp/helm&quot;] (close)</title>
<ellipse fill="none" stroke="black" cx="525.5" cy="-450" rx="236.66" ry="18"/>
<text text-anchor="middle" x="525.5" y="-446.3" font-family="Times,serif" font-size="14.00">[root] provider[&quot;registry.terraform.io/hashicorp/helm&quot;] (close)</text>
</g>
<!-- [root] provider[&quot;registry.terraform.io/hashicorp/helm&quot;] (close)&#45;&gt;[root] helm_release.airflow (expand) -->
<g id="edge36" class="edge">
<title>[root] provider[&quot;registry.terraform.io/hashicorp/helm&quot;] (close)&#45;&gt;[root] helm_release.airflow (expand)</title>
<path fill="none" stroke="black" d="M502.02,-432.05C489.48,-423.01 473.87,-411.74 460.27,-401.93"/>
<polygon fill="black" stroke="black" points="462.26,-399.05 452.1,-396.03 458.16,-404.72 462.26,-399.05"/>
</g>
<!-- [root] provider[&quot;registry.terraform.io/hashicorp/helm&quot;] (close)&#45;&gt;[root] helm_release.grafana (expand) -->
<g id="edge37" class="edge">
<title>[root] provider[&quot;registry.terraform.io/hashicorp/helm&quot;] (close)&#45;&gt;[root] helm_release.grafana (expand)</title>
<path fill="none" stroke="black" d="M539.34,-431.7C545.99,-423.39 554.08,-413.28 561.39,-404.14"/>
<polygon fill="black" stroke="black" points="564.3,-406.1 567.82,-396.1 558.84,-401.73 564.3,-406.1"/>
</g>
<!-- [root] provider[&quot;registry.terraform.io/hashicorp/helm&quot;] (close)&#45;&gt;[root] helm_release.metrics&#45;server (expand) -->
<g id="edge38" class="edge">
<title>[root] provider[&quot;registry.terraform.io/hashicorp/helm&quot;] (close)&#45;&gt;[root] helm_release.metrics&#45;server (expand)</title>
<path fill="none" stroke="black" d="M462.43,-432.59C423.33,-422.41 372.88,-409.28 331.7,-398.57"/>
<polygon fill="black" stroke="black" points="332.54,-395.17 321.98,-396.04 330.78,-401.95 332.54,-395.17"/>
</g>
<!-- [root] provider[&quot;registry.terraform.io/hashicorp/helm&quot;] (close)&#45;&gt;[root] helm_release.postgresql (expand) -->
<g id="edge39" class="edge">
<title>[root] provider[&quot;registry.terraform.io/hashicorp/helm&quot;] (close)&#45;&gt;[root] helm_release.postgresql (expand)</title>
<path fill="none" stroke="black" d="M412.22,-434.13C342.56,-424.61 251.26,-411.47 160.88,-396.02"/>
<polygon fill="black" stroke="black" points="161.45,-392.56 151,-394.32 160.27,-399.46 161.45,-392.56"/>
</g>
<!-- [root] provider[&quot;registry.terraform.io/hashicorp/helm&quot;] (close)&#45;&gt;[root] helm_release.prometheus (expand) -->
<g id="edge40" class="edge">
<title>[root] provider[&quot;registry.terraform.io/hashicorp/helm&quot;] (close)&#45;&gt;[root] helm_release.prometheus (expand)</title>
<path fill="none" stroke="black" d="M613.08,-433.25C668.38,-423.26 741.61,-409.94 815.92,-396.1"/>
<polygon fill="black" stroke="black" points="816.74,-399.51 825.93,-394.23 815.46,-392.63 816.74,-399.51"/>
</g>
<!-- [root] provider[&quot;registry.terraform.io/hashicorp/helm&quot;] (close)&#45;&gt;[root] helm_release.superset (expand) -->
<g id="edge41" class="edge">
<title>[root] provider[&quot;registry.terraform.io/hashicorp/helm&quot;] (close)&#45;&gt;[root] helm_release.superset (expand)</title>
<path fill="none" stroke="black" d="M576.01,-432.32C606.09,-422.39 644.47,-409.72 676.26,-399.22"/>
<polygon fill="black" stroke="black" points="677.51,-402.5 685.9,-396.04 675.31,-395.85 677.51,-402.5"/>
</g>
<!-- [root] provider[&quot;registry.terraform.io/hashicorp/kubernetes&quot;] (close) -->
<g id="node24" class="node">
<title>[root] provider[&quot;registry.terraform.io/hashicorp/kubernetes&quot;] (close)</title>
<ellipse fill="none" stroke="black" cx="1788.5" cy="-450" rx="258.05" ry="18"/>
<text text-anchor="middle" x="1788.5" y="-446.3" font-family="Times,serif" font-size="14.00">[root] provider[&quot;registry.terraform.io/hashicorp/kubernetes&quot;] (close)</text>
</g>
<!-- [root] provider[&quot;registry.terraform.io/hashicorp/kubernetes&quot;] (close)&#45;&gt;[root] data.kubernetes_secret.postgresql (expand) -->
<g id="edge43" class="edge">
<title>[root] provider[&quot;registry.terraform.io/hashicorp/kubernetes&quot;] (close)&#45;&gt;[root] data.kubernetes_secret.postgresql (expand)</title>
<path fill="none" stroke="black" d="M1956.85,-436.32C2026.61,-424.72 2083.25,-402.52 2044.5,-360 2016.95,-329.76 1732.8,-329.21 1658.4,-323.76"/>
<polygon fill="black" stroke="black" points="1658.29,-320.24 1648.01,-322.8 1657.64,-327.21 1658.29,-320.24"/>
</g>
<!-- [root] provider[&quot;registry.terraform.io/hashicorp/kubernetes&quot;] (close)&#45;&gt;[root] kubernetes_cluster_role_binding.dbt (expand) -->
<g id="edge44" class="edge">
<title>[root] provider[&quot;registry.terraform.io/hashicorp/kubernetes&quot;] (close)&#45;&gt;[root] kubernetes_cluster_role_binding.dbt (expand)</title>
<path fill="none" stroke="black" d="M1629.81,-435.78C1521.3,-426.28 1373.96,-412.47 1234.34,-396.07"/>
<polygon fill="black" stroke="black" points="1234.64,-392.58 1224.3,-394.88 1233.82,-399.53 1234.64,-392.58"/>
</g>
<!-- [root] provider[&quot;registry.terraform.io/hashicorp/kubernetes&quot;] (close)&#45;&gt;[root] kubernetes_config_map.prometheus_dashboard (expand) -->
<g id="edge45" class="edge">
<title>[root] provider[&quot;registry.terraform.io/hashicorp/kubernetes&quot;] (close)&#45;&gt;[root] kubernetes_config_map.prometheus_dashboard (expand)</title>
<path fill="none" stroke="black" d="M1697.08,-433.16C1636.43,-422.65 1556.56,-408.81 1492.73,-397.75"/>
<polygon fill="black" stroke="black" points="1493.08,-394.26 1482.63,-396 1491.89,-401.16 1493.08,-394.26"/>
</g>
<!-- [root] provider[&quot;registry.terraform.io/hashicorp/kubernetes&quot;] (close)&#45;&gt;[root] kubernetes_namespace.airbyte (expand) -->
<g id="edge46" class="edge">
<title>[root] provider[&quot;registry.terraform.io/hashicorp/kubernetes&quot;] (close)&#45;&gt;[root] kubernetes_namespace.airbyte (expand)</title>
<path fill="none" stroke="black" d="M1817.55,-432.05C1833.5,-422.75 1853.46,-411.11 1870.62,-401.1"/>
<polygon fill="black" stroke="black" points="1872.43,-404.09 1879.3,-396.03 1868.9,-398.05 1872.43,-404.09"/>
</g>
<!-- [root] provider[&quot;registry.terraform.io/hashicorp/kubernetes&quot;] (close)&#45;&gt;[root] kubernetes_namespace.prometheus (expand) -->
<g id="edge47" class="edge">
<title>[root] provider[&quot;registry.terraform.io/hashicorp/kubernetes&quot;] (close)&#45;&gt;[root] kubernetes_namespace.prometheus (expand)</title>
<path fill="none" stroke="black" d="M1999.46,-439.55C2069.54,-428.41 2121,-405.67 2082.5,-360 2057.91,-330.83 1967.57,-317.71 1890.87,-311.82"/>
<polygon fill="black" stroke="black" points="1890.86,-308.31 1880.63,-311.06 1890.35,-315.29 1890.86,-308.31"/>
</g>
<!-- [root] provider[&quot;registry.terraform.io/hashicorp/kubernetes&quot;] (close)&#45;&gt;[root] kubernetes_namespace.superset (expand) -->
<g id="edge48" class="edge">
<title>[root] provider[&quot;registry.terraform.io/hashicorp/kubernetes&quot;] (close)&#45;&gt;[root] kubernetes_namespace.superset (expand)</title>
<path fill="none" stroke="black" d="M1922.44,-434.6C1989.39,-422.25 2048.96,-399.87 2011.5,-360 1969.19,-314.97 1533.47,-329.78 1435.17,-323.73"/>
<polygon fill="black" stroke="black" points="1435.38,-320.23 1425.12,-322.9 1434.8,-327.21 1435.38,-320.23"/>
</g>
<!-- [root] provider[&quot;registry.terraform.io/hashicorp/kubernetes&quot;] (close)&#45;&gt;[root] kubernetes_secret.prometheus_datasource (expand) -->
<g id="edge49" class="edge">
<title>[root] provider[&quot;registry.terraform.io/hashicorp/kubernetes&quot;] (close)&#45;&gt;[root] kubernetes_secret.prometheus_datasource (expand)</title>
<path fill="none" stroke="black" d="M1759.94,-432.05C1744.4,-422.84 1724.98,-411.32 1708.21,-401.37"/>
<polygon fill="black" stroke="black" points="1709.6,-398.12 1699.21,-396.03 1706.03,-404.14 1709.6,-398.12"/>
</g>
<!-- [root] provider[&quot;registry.terraform.io/kyma&#45;incubator/kind&quot;] (close) -->
<g id="node25" class="node">
<title>[root] provider[&quot;registry.terraform.io/kyma&#45;incubator/kind&quot;] (close)</title>
<ellipse fill="none" stroke="black" cx="2193.5" cy="-234" rx="257.25" ry="18"/>
<text text-anchor="middle" x="2193.5" y="-230.3" font-family="Times,serif" font-size="14.00">[root] provider[&quot;registry.terraform.io/kyma&#45;incubator/kind&quot;] (close)</text>
</g>
<!-- [root] provider[&quot;registry.terraform.io/kyma&#45;incubator/kind&quot;] (close)&#45;&gt;[root] kind_cluster.default (expand) -->
<g id="edge51" class="edge">
<title>[root] provider[&quot;registry.terraform.io/kyma&#45;incubator/kind&quot;] (close)&#45;&gt;[root] kind_cluster.default (expand)</title>
<path fill="none" stroke="black" d="M2093.95,-217.4C1910.66,-188.67 1523.73,-128.02 1361.52,-102.6"/>
<polygon fill="black" stroke="black" points="1361.58,-99.07 1351.16,-100.98 1360.5,-105.98 1361.58,-99.07"/>
</g>
<!-- [root] root -->
<g id="node26" class="node">
<title>[root] root</title>
<ellipse fill="none" stroke="black" cx="1342.5" cy="-522" rx="48.19" ry="18"/>
<text text-anchor="middle" x="1342.5" y="-518.3" font-family="Times,serif" font-size="14.00">[root] root</text>
</g>
<!-- [root] root&#45;&gt;[root] meta.count&#45;boundary (EachMode fixup) -->
<g id="edge52" class="edge">
<title>[root] root&#45;&gt;[root] meta.count&#45;boundary (EachMode fixup)</title>
<path fill="none" stroke="black" d="M1300.16,-513.24C1240.83,-502.37 1131.41,-482.32 1052.78,-467.91"/>
<polygon fill="black" stroke="black" points="1053.33,-464.45 1042.86,-466.09 1052.07,-471.34 1053.33,-464.45"/>
</g>
<!-- [root] root&#45;&gt;[root] provider[&quot;registry.terraform.io/hashicorp/helm&quot;] (close) -->
<g id="edge53" class="edge">
<title>[root] root&#45;&gt;[root] provider[&quot;registry.terraform.io/hashicorp/helm&quot;] (close)</title>
<path fill="none" stroke="black" d="M1296.23,-517.04C1180.91,-507.16 876.33,-481.06 686.41,-464.79"/>
<polygon fill="black" stroke="black" points="686.59,-461.29 676.32,-463.92 685.99,-468.26 686.59,-461.29"/>
</g>
<!-- [root] root&#45;&gt;[root] provider[&quot;registry.terraform.io/hashicorp/kubernetes&quot;] (close) -->
<g id="edge54" class="edge">
<title>[root] root&#45;&gt;[root] provider[&quot;registry.terraform.io/hashicorp/kubernetes&quot;] (close)</title>
<path fill="none" stroke="black" d="M1386.08,-514.16C1453.33,-503.61 1584.49,-483.02 1678.82,-468.21"/>
<polygon fill="black" stroke="black" points="1679.64,-471.63 1688.98,-466.62 1678.56,-464.71 1679.64,-471.63"/>
</g>
<!-- [root] root&#45;&gt;[root] provider[&quot;registry.terraform.io/kyma&#45;incubator/kind&quot;] (close) -->
<g id="edge55" class="edge">
<title>[root] root&#45;&gt;[root] provider[&quot;registry.terraform.io/kyma&#45;incubator/kind&quot;] (close)</title>
<path fill="none" stroke="black" d="M1390.48,-519.88C1541.18,-516.03 1998.48,-501.66 2055.5,-468 2133.55,-421.92 2172.31,-313.1 2186.69,-262.17"/>
<polygon fill="black" stroke="black" points="2190.15,-262.8 2189.39,-252.23 2183.39,-260.96 2190.15,-262.8"/>
</g>
</g>
</svg>
