<?xml version="1.0" encoding="UTF-8" standalone="no"?>
<!DOCTYPE svg PUBLIC "-//W3C//DTD SVG 1.1//EN"
 "http://www.w3.org/Graphics/SVG/1.1/DTD/svg11.dtd">
<!-- Generated by graphviz version 2.49.3 (20211023.0002)
 -->
<!-- Pages: 1 -->
<svg width="2597pt" height="620pt"
 viewBox="0.00 0.00 2596.80 620.00" xmlns="http://www.w3.org/2000/svg" xmlns:xlink="http://www.w3.org/1999/xlink">
<g id="graph0" class="graph" transform="scale(1 1) rotate(0) translate(4 616)">
<polygon fill="white" stroke="transparent" points="-4,4 -4,-616 2592.8,-616 2592.8,4 -4,4"/>
<!-- [root] data.kubernetes_secret.postgresql (expand) -->
<g id="node1" class="node">
<title>[root] data.kubernetes_secret.postgresql (expand)</title>
<polygon fill="none" stroke="black" points="1254.3,-396 1049.3,-396 1049.3,-360 1254.3,-360 1254.3,-396"/>
<text text-anchor="middle" x="1151.8" y="-374.3" font-family="Times,serif" font-size="14.00">data.kubernetes_secret.postgresql</text>
</g>
<!-- [root] helm_release.postgresql (expand) -->
<g id="node7" class="node">
<title>[root] helm_release.postgresql (expand)</title>
<polygon fill="none" stroke="black" points="1227.3,-324 1076.3,-324 1076.3,-288 1227.3,-288 1227.3,-324"/>
<text text-anchor="middle" x="1151.8" y="-302.3" font-family="Times,serif" font-size="14.00">helm_release.postgresql</text>
</g>
<!-- [root] data.kubernetes_secret.postgresql (expand)&#45;&gt;[root] helm_release.postgresql (expand) -->
<g id="edge1" class="edge">
<title>[root] data.kubernetes_secret.postgresql (expand)&#45;&gt;[root] helm_release.postgresql (expand)</title>
<path fill="none" stroke="black" d="M1151.8,-359.7C1151.8,-351.98 1151.8,-342.71 1151.8,-334.11"/>
<polygon fill="black" stroke="black" points="1155.3,-334.1 1151.8,-324.1 1148.3,-334.1 1155.3,-334.1"/>
</g>
<!-- [root] helm_release.airbyte (expand) -->
<g id="node2" class="node">
<title>[root] helm_release.airbyte (expand)</title>
<polygon fill="none" stroke="black" points="855.3,-468 722.3,-468 722.3,-432 855.3,-432 855.3,-468"/>
<text text-anchor="middle" x="788.8" y="-446.3" font-family="Times,serif" font-size="14.00">helm_release.airbyte</text>
</g>
<!-- [root] kubernetes_namespace.airbyte (expand) -->
<g id="node14" class="node">
<title>[root] kubernetes_namespace.airbyte (expand)</title>
<polygon fill="none" stroke="black" points="992.8,-396 804.8,-396 804.8,-360 992.8,-360 992.8,-396"/>
<text text-anchor="middle" x="898.8" y="-374.3" font-family="Times,serif" font-size="14.00">kubernetes_namespace.airbyte</text>
</g>
<!-- [root] helm_release.airbyte (expand)&#45;&gt;[root] kubernetes_namespace.airbyte (expand) -->
<g id="edge2" class="edge">
<title>[root] helm_release.airbyte (expand)&#45;&gt;[root] kubernetes_namespace.airbyte (expand)</title>
<path fill="none" stroke="black" d="M815.71,-431.88C829.96,-422.81 847.64,-411.55 863.03,-401.76"/>
<polygon fill="black" stroke="black" points="865.23,-404.51 871.79,-396.19 861.47,-398.61 865.23,-404.51"/>
</g>
<!-- [root] provider[&quot;registry.terraform.io/hashicorp/helm&quot;] -->
<g id="node23" class="node">
<title>[root] provider[&quot;registry.terraform.io/hashicorp/helm&quot;]</title>
<polygon fill="none" stroke="black" points="263.8,-252 0.2,-234 263.8,-216 527.39,-234 263.8,-252"/>
<text text-anchor="middle" x="263.8" y="-230.3" font-family="Times,serif" font-size="14.00">provider[&quot;registry.terraform.io/hashicorp/helm&quot;]</text>
</g>
<!-- [root] helm_release.airbyte (expand)&#45;&gt;[root] provider[&quot;registry.terraform.io/hashicorp/helm&quot;] -->
<g id="edge3" class="edge">
<title>[root] helm_release.airbyte (expand)&#45;&gt;[root] provider[&quot;registry.terraform.io/hashicorp/helm&quot;]</title>
<path fill="none" stroke="black" d="M722.17,-433.55C719.01,-432.99 715.87,-432.47 712.8,-432 663.86,-424.58 302.91,-431.86 268.8,-396 234.76,-360.23 245.3,-297.21 255.11,-261.55"/>
<polygon fill="black" stroke="black" points="258.51,-262.42 257.96,-251.84 251.79,-260.45 258.51,-262.42"/>
</g>
<!-- [root] helm_release.airflow (expand) -->
<g id="node3" class="node">
<title>[root] helm_release.airflow (expand)</title>
<polygon fill="none" stroke="black" points="1161.8,-468 1027.8,-468 1027.8,-432 1161.8,-432 1161.8,-468"/>
<text text-anchor="middle" x="1094.8" y="-446.3" font-family="Times,serif" font-size="14.00">helm_release.airflow</text>
</g>
<!-- [root] kubernetes_secret.airflow_webserver (expand) -->
<g id="node21" class="node">
<title>[root] kubernetes_secret.airflow_webserver (expand)</title>
<polygon fill="none" stroke="black" points="1710.3,-396 1485.3,-396 1485.3,-360 1710.3,-360 1710.3,-396"/>
<text text-anchor="middle" x="1597.8" y="-374.3" font-family="Times,serif" font-size="14.00">kubernetes_secret.airflow_webserver</text>
</g>
<!-- [root] helm_release.airflow (expand)&#45;&gt;[root] kubernetes_secret.airflow_webserver (expand) -->
<g id="edge4" class="edge">
<title>[root] helm_release.airflow (expand)&#45;&gt;[root] kubernetes_secret.airflow_webserver (expand)</title>
<path fill="none" stroke="black" d="M1161.86,-433.61C1164.88,-433.04 1167.87,-432.5 1170.8,-432 1302.2,-409.61 1338.72,-413.23 1475.14,-396.06"/>
<polygon fill="black" stroke="black" points="1475.66,-399.52 1485.14,-394.79 1474.78,-392.58 1475.66,-399.52"/>
</g>
<!-- [root] helm_release.airflow (expand)&#45;&gt;[root] provider[&quot;registry.terraform.io/hashicorp/helm&quot;] -->
<g id="edge5" class="edge">
<title>[root] helm_release.airflow (expand)&#45;&gt;[root] provider[&quot;registry.terraform.io/hashicorp/helm&quot;]</title>
<path fill="none" stroke="black" d="M1027.77,-433.37C1024.75,-432.87 1021.74,-432.4 1018.8,-432 943.95,-421.72 402.52,-438.12 339.8,-396 316.02,-380.04 286.85,-302.83 272.55,-261.41"/>
<polygon fill="black" stroke="black" points="275.78,-260.04 269.24,-251.7 269.15,-262.3 275.78,-260.04"/>
</g>
<!-- [root] helm_release.grafana (expand) -->
<g id="node4" class="node">
<title>[root] helm_release.grafana (expand)</title>
<polygon fill="none" stroke="black" points="1009.8,-468 873.8,-468 873.8,-432 1009.8,-432 1009.8,-468"/>
<text text-anchor="middle" x="941.8" y="-446.3" font-family="Times,serif" font-size="14.00">helm_release.grafana</text>
</g>
<!-- [root] kubernetes_namespace.grafana (expand) -->
<g id="node17" class="node">
<title>[root] kubernetes_namespace.grafana (expand)</title>
<polygon fill="none" stroke="black" points="1485.3,-324 1294.3,-324 1294.3,-288 1485.3,-288 1485.3,-324"/>
<text text-anchor="middle" x="1389.8" y="-302.3" font-family="Times,serif" font-size="14.00">kubernetes_namespace.grafana</text>
</g>
<!-- [root] helm_release.grafana (expand)&#45;&gt;[root] kubernetes_namespace.grafana (expand) -->
<g id="edge6" class="edge">
<title>[root] helm_release.grafana (expand)&#45;&gt;[root] kubernetes_namespace.grafana (expand)</title>
<path fill="none" stroke="black" d="M961.41,-431.98C973.2,-421.67 988.47,-408.2 1001.8,-396 1018.96,-380.3 1018.89,-370.21 1039.8,-360 1061.57,-349.37 1189.29,-331.73 1284.19,-319.75"/>
<polygon fill="black" stroke="black" points="1284.65,-323.22 1294.14,-318.5 1283.78,-316.27 1284.65,-323.22"/>
</g>
<!-- [root] helm_release.grafana (expand)&#45;&gt;[root] provider[&quot;registry.terraform.io/hashicorp/helm&quot;] -->
<g id="edge7" class="edge">
<title>[root] helm_release.grafana (expand)&#45;&gt;[root] provider[&quot;registry.terraform.io/hashicorp/helm&quot;]</title>
<path fill="none" stroke="black" d="M873.42,-433.49C870.17,-432.94 866.95,-432.44 863.8,-432 802.38,-423.37 354.74,-435.34 306.8,-396 267.28,-363.57 261.83,-299.19 262.24,-262.43"/>
<polygon fill="black" stroke="black" points="265.76,-262.06 262.53,-251.97 258.76,-261.87 265.76,-262.06"/>
</g>
<!-- [root] helm_release.localstack (expand) -->
<g id="node5" class="node">
<title>[root] helm_release.localstack (expand)</title>
<polygon fill="none" stroke="black" points="703.8,-468 553.8,-468 553.8,-432 703.8,-432 703.8,-468"/>
<text text-anchor="middle" x="628.8" y="-446.3" font-family="Times,serif" font-size="14.00">helm_release.localstack</text>
</g>
<!-- [root] kubernetes_namespace.localstack (expand) -->
<g id="node18" class="node">
<title>[root] kubernetes_namespace.localstack (expand)</title>
<polygon fill="none" stroke="black" points="786.3,-396 581.3,-396 581.3,-360 786.3,-360 786.3,-396"/>
<text text-anchor="middle" x="683.8" y="-374.3" font-family="Times,serif" font-size="14.00">kubernetes_namespace.localstack</text>
</g>
<!-- [root] helm_release.localstack (expand)&#45;&gt;[root] kubernetes_namespace.localstack (expand) -->
<g id="edge8" class="edge">
<title>[root] helm_release.localstack (expand)&#45;&gt;[root] kubernetes_namespace.localstack (expand)</title>
<path fill="none" stroke="black" d="M642.39,-431.7C648.92,-423.39 656.87,-413.28 664.04,-404.14"/>
<polygon fill="black" stroke="black" points="666.93,-406.13 670.36,-396.1 661.43,-401.81 666.93,-406.13"/>
</g>
<!-- [root] helm_release.localstack (expand)&#45;&gt;[root] provider[&quot;registry.terraform.io/hashicorp/helm&quot;] -->
<g id="edge9" class="edge">
<title>[root] helm_release.localstack (expand)&#45;&gt;[root] provider[&quot;registry.terraform.io/hashicorp/helm&quot;]</title>
<path fill="none" stroke="black" d="M553.77,-433.64C550.41,-433.07 547.07,-432.51 543.8,-432 474.63,-421.13 277.39,-448.26 230.8,-396 198.85,-360.17 217.6,-334.15 230.8,-288 233.63,-278.1 238.9,-268.25 244.42,-259.77"/>
<polygon fill="black" stroke="black" points="247.34,-261.71 250.16,-251.5 241.58,-257.72 247.34,-261.71"/>
</g>
<!-- [root] helm_release.metrics&#45;server (expand) -->
<g id="node6" class="node">
<title>[root] helm_release.metrics&#45;server (expand)</title>
<polygon fill="none" stroke="black" points="357.8,-468 183.8,-468 183.8,-432 357.8,-432 357.8,-468"/>
<text text-anchor="middle" x="270.8" y="-446.3" font-family="Times,serif" font-size="14.00">helm_release.metrics&#45;server</text>
</g>
<!-- [root] helm_release.metrics&#45;server (expand)&#45;&gt;[root] provider[&quot;registry.terraform.io/hashicorp/helm&quot;] -->
<g id="edge10" class="edge">
<title>[root] helm_release.metrics&#45;server (expand)&#45;&gt;[root] provider[&quot;registry.terraform.io/hashicorp/helm&quot;]</title>
<path fill="none" stroke="black" d="M200.71,-431.93C182.72,-424.04 165.45,-412.58 154.8,-396 128.85,-355.62 129.34,-328.69 154.8,-288 164.97,-271.75 181.71,-260.35 199.05,-252.41"/>
<polygon fill="black" stroke="black" points="200.85,-255.45 208.72,-248.34 198.14,-249 200.85,-255.45"/>
</g>
<!-- [root] kubernetes_namespace.dbt (expand) -->
<g id="node16" class="node">
<title>[root] kubernetes_namespace.dbt (expand)</title>
<polygon fill="none" stroke="black" points="1236.3,-252 1069.3,-252 1069.3,-216 1236.3,-216 1236.3,-252"/>
<text text-anchor="middle" x="1152.8" y="-230.3" font-family="Times,serif" font-size="14.00">kubernetes_namespace.dbt</text>
</g>
<!-- [root] helm_release.postgresql (expand)&#45;&gt;[root] kubernetes_namespace.dbt (expand) -->
<g id="edge11" class="edge">
<title>[root] helm_release.postgresql (expand)&#45;&gt;[root] kubernetes_namespace.dbt (expand)</title>
<path fill="none" stroke="black" d="M1152.05,-287.7C1152.16,-279.98 1152.29,-270.71 1152.41,-262.11"/>
<polygon fill="black" stroke="black" points="1155.91,-262.15 1152.55,-252.1 1148.91,-262.05 1155.91,-262.15"/>
</g>
<!-- [root] helm_release.postgresql (expand)&#45;&gt;[root] provider[&quot;registry.terraform.io/hashicorp/helm&quot;] -->
<g id="edge12" class="edge">
<title>[root] helm_release.postgresql (expand)&#45;&gt;[root] provider[&quot;registry.terraform.io/hashicorp/helm&quot;]</title>
<path fill="none" stroke="black" d="M1076.09,-299.03C923.4,-287 577.17,-259.7 389.83,-244.93"/>
<polygon fill="black" stroke="black" points="389.89,-241.43 379.65,-244.13 389.34,-248.41 389.89,-241.43"/>
</g>
<!-- [root] helm_release.prometheus (expand) -->
<g id="node8" class="node">
<title>[root] helm_release.prometheus (expand)</title>
<polygon fill="none" stroke="black" points="535.3,-468 376.3,-468 376.3,-432 535.3,-432 535.3,-468"/>
<text text-anchor="middle" x="455.8" y="-446.3" font-family="Times,serif" font-size="14.00">helm_release.prometheus</text>
</g>
<!-- [root] kubernetes_namespace.prometheus (expand) -->
<g id="node19" class="node">
<title>[root] kubernetes_namespace.prometheus (expand)</title>
<polygon fill="none" stroke="black" points="562.8,-396 348.8,-396 348.8,-360 562.8,-360 562.8,-396"/>
<text text-anchor="middle" x="455.8" y="-374.3" font-family="Times,serif" font-size="14.00">kubernetes_namespace.prometheus</text>
</g>
<!-- [root] helm_release.prometheus (expand)&#45;&gt;[root] kubernetes_namespace.prometheus (expand) -->
<g id="edge13" class="edge">
<title>[root] helm_release.prometheus (expand)&#45;&gt;[root] kubernetes_namespace.prometheus (expand)</title>
<path fill="none" stroke="black" d="M455.8,-431.7C455.8,-423.98 455.8,-414.71 455.8,-406.11"/>
<polygon fill="black" stroke="black" points="459.3,-406.1 455.8,-396.1 452.3,-406.1 459.3,-406.1"/>
</g>
<!-- [root] helm_release.prometheus (expand)&#45;&gt;[root] provider[&quot;registry.terraform.io/hashicorp/helm&quot;] -->
<g id="edge14" class="edge">
<title>[root] helm_release.prometheus (expand)&#45;&gt;[root] provider[&quot;registry.terraform.io/hashicorp/helm&quot;]</title>
<path fill="none" stroke="black" d="M376.06,-433.55C299.21,-418.56 194.29,-397.82 192.8,-396 162.39,-358.86 171.28,-330.91 192.8,-288 199.46,-274.72 211.19,-263.92 223.23,-255.62"/>
<polygon fill="black" stroke="black" points="225.45,-258.35 231.98,-250.01 221.67,-252.46 225.45,-258.35"/>
</g>
<!-- [root] helm_release.superset (expand) -->
<g id="node9" class="node">
<title>[root] helm_release.superset (expand)</title>
<polygon fill="none" stroke="black" points="1319.8,-468 1179.8,-468 1179.8,-432 1319.8,-432 1319.8,-468"/>
<text text-anchor="middle" x="1249.8" y="-446.3" font-family="Times,serif" font-size="14.00">helm_release.superset</text>
</g>
<!-- [root] helm_release.superset (expand)&#45;&gt;[root] data.kubernetes_secret.postgresql (expand) -->
<g id="edge15" class="edge">
<title>[root] helm_release.superset (expand)&#45;&gt;[root] data.kubernetes_secret.postgresql (expand)</title>
<path fill="none" stroke="black" d="M1225.82,-431.88C1213.25,-422.89 1197.67,-411.76 1184.05,-402.03"/>
<polygon fill="black" stroke="black" points="1186.04,-399.15 1175.86,-396.19 1181.97,-404.85 1186.04,-399.15"/>
</g>
<!-- [root] kubernetes_namespace.superset (expand) -->
<g id="node20" class="node">
<title>[root] kubernetes_namespace.superset (expand)</title>
<polygon fill="none" stroke="black" points="1467.3,-396 1272.3,-396 1272.3,-360 1467.3,-360 1467.3,-396"/>
<text text-anchor="middle" x="1369.8" y="-374.3" font-family="Times,serif" font-size="14.00">kubernetes_namespace.superset</text>
</g>
<!-- [root] helm_release.superset (expand)&#45;&gt;[root] kubernetes_namespace.superset (expand) -->
<g id="edge16" class="edge">
<title>[root] helm_release.superset (expand)&#45;&gt;[root] kubernetes_namespace.superset (expand)</title>
<path fill="none" stroke="black" d="M1279.15,-431.88C1294.84,-422.72 1314.36,-411.34 1331.25,-401.48"/>
<polygon fill="black" stroke="black" points="1333.46,-404.25 1340.33,-396.19 1329.93,-398.21 1333.46,-404.25"/>
</g>
<!-- [root] kind_cluster.default (expand) -->
<g id="node10" class="node">
<title>[root] kind_cluster.default (expand)</title>
<polygon fill="none" stroke="black" points="1272.3,-108 1145.3,-108 1145.3,-72 1272.3,-72 1272.3,-108"/>
<text text-anchor="middle" x="1208.8" y="-86.3" font-family="Times,serif" font-size="14.00">kind_cluster.default</text>
</g>
<!-- [root] provider[&quot;registry.terraform.io/kyma&#45;incubator/kind&quot;] -->
<g id="node26" class="node">
<title>[root] provider[&quot;registry.terraform.io/kyma&#45;incubator/kind&quot;]</title>
<polygon fill="none" stroke="black" points="1208.8,-36 915.38,-18 1208.8,0 1502.22,-18 1208.8,-36"/>
<text text-anchor="middle" x="1208.8" y="-14.3" font-family="Times,serif" font-size="14.00">provider[&quot;registry.terraform.io/kyma&#45;incubator/kind&quot;]</text>
</g>
<!-- [root] kind_cluster.default (expand)&#45;&gt;[root] provider[&quot;registry.terraform.io/kyma&#45;incubator/kind&quot;] -->
<g id="edge17" class="edge">
<title>[root] kind_cluster.default (expand)&#45;&gt;[root] provider[&quot;registry.terraform.io/kyma&#45;incubator/kind&quot;]</title>
<path fill="none" stroke="black" d="M1208.8,-71.7C1208.8,-63.98 1208.8,-54.71 1208.8,-46.11"/>
<polygon fill="black" stroke="black" points="1212.3,-46.1 1208.8,-36.1 1205.3,-46.1 1212.3,-46.1"/>
</g>
<!-- [root] kubernetes_cluster_role.dbt (expand) -->
<g id="node11" class="node">
<title>[root] kubernetes_cluster_role.dbt (expand)</title>
<polygon fill="none" stroke="black" points="2368.8,-252 2196.8,-252 2196.8,-216 2368.8,-216 2368.8,-252"/>
<text text-anchor="middle" x="2282.8" y="-230.3" font-family="Times,serif" font-size="14.00">kubernetes_cluster_role.dbt</text>
</g>
<!-- [root] provider[&quot;registry.terraform.io/hashicorp/kubernetes&quot;] -->
<g id="node24" class="node">
<title>[root] provider[&quot;registry.terraform.io/hashicorp/kubernetes&quot;]</title>
<polygon fill="none" stroke="black" points="1208.8,-180 914.54,-162 1208.8,-144 1503.06,-162 1208.8,-180"/>
<text text-anchor="middle" x="1208.8" y="-158.3" font-family="Times,serif" font-size="14.00">provider[&quot;registry.terraform.io/hashicorp/kubernetes&quot;]</text>
</g>
<!-- [root] kubernetes_cluster_role.dbt (expand)&#45;&gt;[root] provider[&quot;registry.terraform.io/hashicorp/kubernetes&quot;] -->
<g id="edge18" class="edge">
<title>[root] kubernetes_cluster_role.dbt (expand)&#45;&gt;[root] provider[&quot;registry.terraform.io/hashicorp/kubernetes&quot;]</title>
<path fill="none" stroke="black" d="M2196.75,-219.51C2186.67,-218.19 2176.52,-216.98 2166.8,-216 1905.34,-189.66 1602.32,-175.66 1408.26,-168.79"/>
<polygon fill="black" stroke="black" points="1408.35,-165.29 1398.23,-168.44 1408.1,-172.29 1408.35,-165.29"/>
</g>
<!-- [root] kubernetes_cluster_role_binding.dbt (expand) -->
<g id="node12" class="node">
<title>[root] kubernetes_cluster_role_binding.dbt (expand)</title>
<polygon fill="none" stroke="black" points="2522.3,-396 2301.3,-396 2301.3,-360 2522.3,-360 2522.3,-396"/>
<text text-anchor="middle" x="2411.8" y="-374.3" font-family="Times,serif" font-size="14.00">kubernetes_cluster_role_binding.dbt</text>
</g>
<!-- [root] kubernetes_cluster_role_binding.dbt (expand)&#45;&gt;[root] kubernetes_cluster_role.dbt (expand) -->
<g id="edge19" class="edge">
<title>[root] kubernetes_cluster_role_binding.dbt (expand)&#45;&gt;[root] kubernetes_cluster_role.dbt (expand)</title>
<path fill="none" stroke="black" d="M2396.24,-359.87C2373.57,-334.92 2331.35,-288.45 2305.3,-259.77"/>
<polygon fill="black" stroke="black" points="2307.73,-257.24 2298.41,-252.19 2302.55,-261.94 2307.73,-257.24"/>
</g>
<!-- [root] kubernetes_namespace.airflow (expand) -->
<g id="node15" class="node">
<title>[root] kubernetes_namespace.airflow (expand)</title>
<polygon fill="none" stroke="black" points="1692.3,-324 1503.3,-324 1503.3,-288 1692.3,-288 1692.3,-324"/>
<text text-anchor="middle" x="1597.8" y="-302.3" font-family="Times,serif" font-size="14.00">kubernetes_namespace.airflow</text>
</g>
<!-- [root] kubernetes_cluster_role_binding.dbt (expand)&#45;&gt;[root] kubernetes_namespace.airflow (expand) -->
<g id="edge20" class="edge">
<title>[root] kubernetes_cluster_role_binding.dbt (expand)&#45;&gt;[root] kubernetes_namespace.airflow (expand)</title>
<path fill="none" stroke="black" d="M2301.01,-360.99C2297.91,-360.64 2294.83,-360.31 2291.8,-360 2040.16,-334.24 1975.52,-348.93 1723.8,-324 1716.78,-323.3 1709.54,-322.52 1702.26,-321.67"/>
<polygon fill="black" stroke="black" points="1702.66,-318.2 1692.32,-320.49 1701.83,-325.15 1702.66,-318.2"/>
</g>
<!-- [root] kubernetes_config_map.prometheus_dashboard (expand) -->
<g id="node13" class="node">
<title>[root] kubernetes_config_map.prometheus_dashboard (expand)</title>
<polygon fill="none" stroke="black" points="2282.8,-396 1998.8,-396 1998.8,-360 2282.8,-360 2282.8,-396"/>
<text text-anchor="middle" x="2140.8" y="-374.3" font-family="Times,serif" font-size="14.00">kubernetes_config_map.prometheus_dashboard</text>
</g>
<!-- [root] kubernetes_config_map.prometheus_dashboard (expand)&#45;&gt;[root] kubernetes_namespace.grafana (expand) -->
<g id="edge21" class="edge">
<title>[root] kubernetes_config_map.prometheus_dashboard (expand)&#45;&gt;[root] kubernetes_namespace.grafana (expand)</title>
<path fill="none" stroke="black" d="M1998.55,-360.83C1995.61,-360.54 1992.69,-360.27 1989.8,-360 1773.05,-339.94 1715.05,-349.55 1495.75,-324.17"/>
<polygon fill="black" stroke="black" points="1495.86,-320.66 1485.52,-322.98 1495.05,-327.62 1495.86,-320.66"/>
</g>
<!-- [root] kubernetes_namespace.airbyte (expand)&#45;&gt;[root] provider[&quot;registry.terraform.io/hashicorp/kubernetes&quot;] -->
<g id="edge22" class="edge">
<title>[root] kubernetes_namespace.airbyte (expand)&#45;&gt;[root] provider[&quot;registry.terraform.io/hashicorp/kubernetes&quot;]</title>
<path fill="none" stroke="black" d="M911.53,-359.95C936.55,-327.57 995.31,-256.76 1059.8,-216 1085.02,-200.06 1115.67,-188.11 1142.6,-179.62"/>
<polygon fill="black" stroke="black" points="1143.79,-182.92 1152.34,-176.65 1141.75,-176.22 1143.79,-182.92"/>
</g>
<!-- [root] kubernetes_namespace.airflow (expand)&#45;&gt;[root] provider[&quot;registry.terraform.io/hashicorp/kubernetes&quot;] -->
<g id="edge23" class="edge">
<title>[root] kubernetes_namespace.airflow (expand)&#45;&gt;[root] provider[&quot;registry.terraform.io/hashicorp/kubernetes&quot;]</title>
<path fill="none" stroke="black" d="M1550.88,-287.87C1477,-260.9 1334.22,-208.78 1258.6,-181.18"/>
<polygon fill="black" stroke="black" points="1259.42,-177.75 1248.83,-177.61 1257.02,-184.33 1259.42,-177.75"/>
</g>
<!-- [root] kubernetes_namespace.dbt (expand)&#45;&gt;[root] provider[&quot;registry.terraform.io/hashicorp/kubernetes&quot;] -->
<g id="edge24" class="edge">
<title>[root] kubernetes_namespace.dbt (expand)&#45;&gt;[root] provider[&quot;registry.terraform.io/hashicorp/kubernetes&quot;]</title>
<path fill="none" stroke="black" d="M1166.64,-215.7C1173.45,-207.18 1181.79,-196.76 1189.24,-187.45"/>
<polygon fill="black" stroke="black" points="1191.99,-189.62 1195.5,-179.62 1186.52,-185.24 1191.99,-189.62"/>
</g>
<!-- [root] kubernetes_namespace.grafana (expand)&#45;&gt;[root] provider[&quot;registry.terraform.io/hashicorp/kubernetes&quot;] -->
<g id="edge25" class="edge">
<title>[root] kubernetes_namespace.grafana (expand)&#45;&gt;[root] provider[&quot;registry.terraform.io/hashicorp/kubernetes&quot;]</title>
<path fill="none" stroke="black" d="M1368.66,-287.76C1346.43,-269.7 1310.36,-240.6 1278.8,-216 1265.61,-205.72 1250.87,-194.52 1238.33,-185.08"/>
<polygon fill="black" stroke="black" points="1240.15,-182.06 1230.05,-178.85 1235.94,-187.66 1240.15,-182.06"/>
</g>
<!-- [root] kubernetes_namespace.localstack (expand)&#45;&gt;[root] provider[&quot;registry.terraform.io/hashicorp/kubernetes&quot;] -->
<g id="edge26" class="edge">
<title>[root] kubernetes_namespace.localstack (expand)&#45;&gt;[root] provider[&quot;registry.terraform.io/hashicorp/kubernetes&quot;]</title>
<path fill="none" stroke="black" d="M713.46,-359.84C769.7,-327.88 896.35,-258.64 1009.8,-216 1050.81,-200.59 1098.16,-187.78 1136.38,-178.63"/>
<polygon fill="black" stroke="black" points="1137.47,-181.96 1146.4,-176.26 1135.86,-175.15 1137.47,-181.96"/>
</g>
<!-- [root] kubernetes_namespace.prometheus (expand)&#45;&gt;[root] provider[&quot;registry.terraform.io/hashicorp/kubernetes&quot;] -->
<g id="edge27" class="edge">
<title>[root] kubernetes_namespace.prometheus (expand)&#45;&gt;[root] provider[&quot;registry.terraform.io/hashicorp/kubernetes&quot;]</title>
<path fill="none" stroke="black" d="M498.08,-359.93C578.98,-327.82 761.77,-257.91 920.8,-216 985.03,-199.07 1058.72,-185.62 1115.47,-176.5"/>
<polygon fill="black" stroke="black" points="1116.18,-179.93 1125.51,-174.91 1115.08,-173.02 1116.18,-179.93"/>
</g>
<!-- [root] kubernetes_namespace.superset (expand)&#45;&gt;[root] provider[&quot;registry.terraform.io/hashicorp/kubernetes&quot;] -->
<g id="edge28" class="edge">
<title>[root] kubernetes_namespace.superset (expand)&#45;&gt;[root] provider[&quot;registry.terraform.io/hashicorp/kubernetes&quot;]</title>
<path fill="none" stroke="black" d="M1331.05,-359.89C1314.91,-351.13 1297.11,-339.1 1284.8,-324 1252.45,-284.33 1268.24,-261.5 1244.8,-216 1239.83,-206.36 1233.43,-196.37 1227.4,-187.7"/>
<polygon fill="black" stroke="black" points="1230.22,-185.64 1221.56,-179.54 1224.53,-189.71 1230.22,-185.64"/>
</g>
<!-- [root] kubernetes_secret.airflow_webserver (expand)&#45;&gt;[root] kubernetes_namespace.airflow (expand) -->
<g id="edge29" class="edge">
<title>[root] kubernetes_secret.airflow_webserver (expand)&#45;&gt;[root] kubernetes_namespace.airflow (expand)</title>
<path fill="none" stroke="black" d="M1597.8,-359.7C1597.8,-351.98 1597.8,-342.71 1597.8,-334.11"/>
<polygon fill="black" stroke="black" points="1601.3,-334.1 1597.8,-324.1 1594.3,-334.1 1601.3,-334.1"/>
</g>
<!-- [root] random_password.airflow_webserver_secret_key (expand) -->
<g id="node27" class="node">
<title>[root] random_password.airflow_webserver_secret_key (expand)</title>
<polygon fill="none" stroke="black" points="2026.8,-324 1732.8,-324 1732.8,-288 2026.8,-288 2026.8,-324"/>
<text text-anchor="middle" x="1879.8" y="-302.3" font-family="Times,serif" font-size="14.00">random_password.airflow_webserver_secret_key</text>
</g>
<!-- [root] kubernetes_secret.airflow_webserver (expand)&#45;&gt;[root] random_password.airflow_webserver_secret_key (expand) -->
<g id="edge30" class="edge">
<title>[root] kubernetes_secret.airflow_webserver (expand)&#45;&gt;[root] random_password.airflow_webserver_secret_key (expand)</title>
<path fill="none" stroke="black" d="M1666.42,-359.97C1707.11,-349.87 1758.83,-337.03 1801.16,-326.52"/>
<polygon fill="black" stroke="black" points="1802,-329.92 1810.87,-324.11 1800.32,-323.12 1802,-329.92"/>
</g>
<!-- [root] kubernetes_secret.prometheus_datasource (expand) -->
<g id="node22" class="node">
<title>[root] kubernetes_secret.prometheus_datasource (expand)</title>
<polygon fill="none" stroke="black" points="1980.8,-396 1728.8,-396 1728.8,-360 1980.8,-360 1980.8,-396"/>
<text text-anchor="middle" x="1854.8" y="-374.3" font-family="Times,serif" font-size="14.00">kubernetes_secret.prometheus_datasource</text>
</g>
<!-- [root] kubernetes_secret.prometheus_datasource (expand)&#45;&gt;[root] kubernetes_namespace.grafana (expand) -->
<g id="edge31" class="edge">
<title>[root] kubernetes_secret.prometheus_datasource (expand)&#45;&gt;[root] kubernetes_namespace.grafana (expand)</title>
<path fill="none" stroke="black" d="M1735.21,-359.94C1667.56,-350.17 1581.11,-337.49 1495.7,-324.28"/>
<polygon fill="black" stroke="black" points="1495.98,-320.79 1485.56,-322.71 1494.91,-327.7 1495.98,-320.79"/>
</g>
<!-- [root] provider[&quot;registry.terraform.io/hashicorp/helm&quot;]&#45;&gt;[root] kind_cluster.default (expand) -->
<g id="edge49" class="edge">
<title>[root] provider[&quot;registry.terraform.io/hashicorp/helm&quot;]&#45;&gt;[root] kind_cluster.default (expand)</title>
<path fill="none" stroke="black" d="M341.94,-221.26C521.22,-194.32 960.11,-128.37 1135.06,-102.08"/>
<polygon fill="black" stroke="black" points="1135.83,-105.5 1145.19,-100.56 1134.79,-98.58 1135.83,-105.5"/>
</g>
<!-- [root] provider[&quot;registry.terraform.io/hashicorp/kubernetes&quot;]&#45;&gt;[root] kind_cluster.default (expand) -->
<g id="edge59" class="edge">
<title>[root] provider[&quot;registry.terraform.io/hashicorp/kubernetes&quot;]&#45;&gt;[root] kind_cluster.default (expand)</title>
<path fill="none" stroke="black" d="M1208.8,-143.7C1208.8,-135.98 1208.8,-126.71 1208.8,-118.11"/>
<polygon fill="black" stroke="black" points="1212.3,-118.1 1208.8,-108.1 1205.3,-118.1 1212.3,-118.1"/>
</g>
<!-- [root] provider[&quot;registry.terraform.io/hashicorp/random&quot;] -->
<g id="node25" class="node">
<title>[root] provider[&quot;registry.terraform.io/hashicorp/random&quot;]</title>
<polygon fill="none" stroke="black" points="1879.8,-252 1602.13,-234 1879.8,-216 2157.47,-234 1879.8,-252"/>
<text text-anchor="middle" x="1879.8" y="-230.3" font-family="Times,serif" font-size="14.00">provider[&quot;registry.terraform.io/hashicorp/random&quot;]</text>
</g>
<!-- [root] random_password.airflow_webserver_secret_key (expand)&#45;&gt;[root] provider[&quot;registry.terraform.io/hashicorp/random&quot;] -->
<g id="edge62" class="edge">
<title>[root] random_password.airflow_webserver_secret_key (expand)&#45;&gt;[root] provider[&quot;registry.terraform.io/hashicorp/random&quot;]</title>
<path fill="none" stroke="black" d="M1879.8,-287.7C1879.8,-279.98 1879.8,-270.71 1879.8,-262.11"/>
<polygon fill="black" stroke="black" points="1883.3,-262.1 1879.8,-252.1 1876.3,-262.1 1883.3,-262.1"/>
</g>
<!-- [root] meta.count&#45;boundary (EachMode fixup) -->
<g id="node28" class="node">
<title>[root] meta.count&#45;boundary (EachMode fixup)</title>
<ellipse fill="none" stroke="black" cx="1223.8" cy="-522" rx="180.87" ry="18"/>
<text text-anchor="middle" x="1223.8" y="-518.3" font-family="Times,serif" font-size="14.00">[root] meta.count&#45;boundary (EachMode fixup)</text>
</g>
<!-- [root] meta.count&#45;boundary (EachMode fixup)&#45;&gt;[root] helm_release.airbyte (expand) -->
<g id="edge32" class="edge">
<title>[root] meta.count&#45;boundary (EachMode fixup)&#45;&gt;[root] helm_release.airbyte (expand)</title>
<path fill="none" stroke="black" d="M1117.43,-507.38C1048.32,-498.04 956.11,-484.66 865.38,-468.03"/>
<polygon fill="black" stroke="black" points="865.94,-464.58 855.47,-466.2 864.67,-471.46 865.94,-464.58"/>
</g>
<!-- [root] meta.count&#45;boundary (EachMode fixup)&#45;&gt;[root] helm_release.airflow (expand) -->
<g id="edge33" class="edge">
<title>[root] meta.count&#45;boundary (EachMode fixup)&#45;&gt;[root] helm_release.airflow (expand)</title>
<path fill="none" stroke="black" d="M1192.9,-504.23C1175.6,-494.85 1153.84,-483.04 1135.2,-472.93"/>
<polygon fill="black" stroke="black" points="1136.8,-469.81 1126.34,-468.12 1133.46,-475.96 1136.8,-469.81"/>
</g>
<!-- [root] meta.count&#45;boundary (EachMode fixup)&#45;&gt;[root] helm_release.grafana (expand) -->
<g id="edge34" class="edge">
<title>[root] meta.count&#45;boundary (EachMode fixup)&#45;&gt;[root] helm_release.grafana (expand)</title>
<path fill="none" stroke="black" d="M1159.81,-505.12C1118.26,-494.8 1063.85,-481.3 1019.78,-470.36"/>
<polygon fill="black" stroke="black" points="1020.51,-466.93 1009.96,-467.92 1018.83,-473.73 1020.51,-466.93"/>
</g>
<!-- [root] meta.count&#45;boundary (EachMode fixup)&#45;&gt;[root] helm_release.localstack (expand) -->
<g id="edge35" class="edge">
<title>[root] meta.count&#45;boundary (EachMode fixup)&#45;&gt;[root] helm_release.localstack (expand)</title>
<path fill="none" stroke="black" d="M1096.3,-509.19C974.66,-497.68 798.91,-480.35 713.98,-468.07"/>
<polygon fill="black" stroke="black" points="714.25,-464.57 703.84,-466.56 713.22,-471.49 714.25,-464.57"/>
</g>
<!-- [root] meta.count&#45;boundary (EachMode fixup)&#45;&gt;[root] helm_release.metrics&#45;server (expand) -->
<g id="edge36" class="edge">
<title>[root] meta.count&#45;boundary (EachMode fixup)&#45;&gt;[root] helm_release.metrics&#45;server (expand)</title>
<path fill="none" stroke="black" d="M1098.04,-509.05C1076.94,-507.23 1055.25,-505.47 1034.8,-504 741.57,-482.92 663.91,-501.56 368.02,-468.05"/>
<polygon fill="black" stroke="black" points="368.18,-464.55 357.85,-466.89 367.39,-471.5 368.18,-464.55"/>
</g>
<!-- [root] meta.count&#45;boundary (EachMode fixup)&#45;&gt;[root] helm_release.prometheus (expand) -->
<g id="edge37" class="edge">
<title>[root] meta.count&#45;boundary (EachMode fixup)&#45;&gt;[root] helm_release.prometheus (expand)</title>
<path fill="none" stroke="black" d="M1096.23,-509.24C1075.7,-507.43 1054.66,-505.62 1034.8,-504 820.45,-486.49 763.02,-496.23 545.45,-467.99"/>
<polygon fill="black" stroke="black" points="545.67,-464.49 535.3,-466.66 544.76,-471.43 545.67,-464.49"/>
</g>
<!-- [root] meta.count&#45;boundary (EachMode fixup)&#45;&gt;[root] helm_release.superset (expand) -->
<g id="edge38" class="edge">
<title>[root] meta.count&#45;boundary (EachMode fixup)&#45;&gt;[root] helm_release.superset (expand)</title>
<path fill="none" stroke="black" d="M1230.23,-503.7C1233.15,-495.81 1236.69,-486.3 1239.94,-477.55"/>
<polygon fill="black" stroke="black" points="1243.24,-478.7 1243.45,-468.1 1236.68,-476.26 1243.24,-478.7"/>
</g>
<!-- [root] meta.count&#45;boundary (EachMode fixup)&#45;&gt;[root] kubernetes_cluster_role_binding.dbt (expand) -->
<g id="edge39" class="edge">
<title>[root] meta.count&#45;boundary (EachMode fixup)&#45;&gt;[root] kubernetes_cluster_role_binding.dbt (expand)</title>
<path fill="none" stroke="black" d="M1389.46,-514.79C1538.61,-507.83 1763.57,-493.95 1957.8,-468 2088.63,-450.52 2238.58,-418.8 2329.19,-398.34"/>
<polygon fill="black" stroke="black" points="2330.15,-401.71 2339.12,-396.08 2328.6,-394.88 2330.15,-401.71"/>
</g>
<!-- [root] meta.count&#45;boundary (EachMode fixup)&#45;&gt;[root] kubernetes_config_map.prometheus_dashboard (expand) -->
<g id="edge40" class="edge">
<title>[root] meta.count&#45;boundary (EachMode fixup)&#45;&gt;[root] kubernetes_config_map.prometheus_dashboard (expand)</title>
<path fill="none" stroke="black" d="M1401.74,-518.78C1535.34,-514.21 1722.14,-501.61 1882.8,-468 1957.74,-452.32 2040.86,-420.98 2091.98,-399.99"/>
<polygon fill="black" stroke="black" points="2093.56,-403.13 2101.46,-396.07 2090.88,-396.66 2093.56,-403.13"/>
</g>
<!-- [root] meta.count&#45;boundary (EachMode fixup)&#45;&gt;[root] kubernetes_secret.prometheus_datasource (expand) -->
<g id="edge41" class="edge">
<title>[root] meta.count&#45;boundary (EachMode fixup)&#45;&gt;[root] kubernetes_secret.prometheus_datasource (expand)</title>
<path fill="none" stroke="black" d="M1400.9,-518.37C1579.11,-513.85 1831.94,-501.53 1862.8,-468 1877.99,-451.5 1873.47,-425.25 1866.66,-405.53"/>
<polygon fill="black" stroke="black" points="1869.92,-404.27 1863.09,-396.17 1863.38,-406.76 1869.92,-404.27"/>
</g>
<!-- [root] provider[&quot;registry.terraform.io/hashicorp/helm&quot;] (close) -->
<g id="node29" class="node">
<title>[root] provider[&quot;registry.terraform.io/hashicorp/helm&quot;] (close)</title>
<ellipse fill="none" stroke="black" cx="788.8" cy="-522" rx="236.66" ry="18"/>
<text text-anchor="middle" x="788.8" y="-518.3" font-family="Times,serif" font-size="14.00">[root] provider[&quot;registry.terraform.io/hashicorp/helm&quot;] (close)</text>
</g>
<!-- [root] provider[&quot;registry.terraform.io/hashicorp/helm&quot;] (close)&#45;&gt;[root] helm_release.airbyte (expand) -->
<g id="edge42" class="edge">
<title>[root] provider[&quot;registry.terraform.io/hashicorp/helm&quot;] (close)&#45;&gt;[root] helm_release.airbyte (expand)</title>
<path fill="none" stroke="black" d="M788.8,-503.7C788.8,-495.98 788.8,-486.71 788.8,-478.11"/>
<polygon fill="black" stroke="black" points="792.3,-478.1 788.8,-468.1 785.3,-478.1 792.3,-478.1"/>
</g>
<!-- [root] provider[&quot;registry.terraform.io/hashicorp/helm&quot;] (close)&#45;&gt;[root] helm_release.airflow (expand) -->
<g id="edge43" class="edge">
<title>[root] provider[&quot;registry.terraform.io/hashicorp/helm&quot;] (close)&#45;&gt;[root] helm_release.airflow (expand)</title>
<path fill="none" stroke="black" d="M859.77,-504.76C907.09,-493.94 969.28,-479.71 1017.8,-468.61"/>
<polygon fill="black" stroke="black" points="1018.65,-472.01 1027.62,-466.37 1017.09,-465.19 1018.65,-472.01"/>
</g>
<!-- [root] provider[&quot;registry.terraform.io/hashicorp/helm&quot;] (close)&#45;&gt;[root] helm_release.grafana (expand) -->
<g id="edge44" class="edge">
<title>[root] provider[&quot;registry.terraform.io/hashicorp/helm&quot;] (close)&#45;&gt;[root] helm_release.grafana (expand)</title>
<path fill="none" stroke="black" d="M825.84,-504.05C846.73,-494.5 873.03,-482.46 895.3,-472.27"/>
<polygon fill="black" stroke="black" points="896.93,-475.37 904.57,-468.03 894.02,-469.01 896.93,-475.37"/>
</g>
<!-- [root] provider[&quot;registry.terraform.io/hashicorp/helm&quot;] (close)&#45;&gt;[root] helm_release.localstack (expand) -->
<g id="edge45" class="edge">
<title>[root] provider[&quot;registry.terraform.io/hashicorp/helm&quot;] (close)&#45;&gt;[root] helm_release.localstack (expand)</title>
<path fill="none" stroke="black" d="M750.47,-504.23C728.54,-494.63 700.79,-482.5 677.34,-472.24"/>
<polygon fill="black" stroke="black" points="678.49,-468.92 667.92,-468.12 675.68,-475.33 678.49,-468.92"/>
</g>
<!-- [root] provider[&quot;registry.terraform.io/hashicorp/helm&quot;] (close)&#45;&gt;[root] helm_release.metrics&#45;server (expand) -->
<g id="edge46" class="edge">
<title>[root] provider[&quot;registry.terraform.io/hashicorp/helm&quot;] (close)&#45;&gt;[root] helm_release.metrics&#45;server (expand)</title>
<path fill="none" stroke="black" d="M662.08,-506.77C580.78,-497.24 472.72,-483.83 368.01,-468.14"/>
<polygon fill="black" stroke="black" points="368.3,-464.65 357.89,-466.62 367.25,-471.57 368.3,-464.65"/>
</g>
<!-- [root] provider[&quot;registry.terraform.io/hashicorp/helm&quot;] (close)&#45;&gt;[root] helm_release.prometheus (expand) -->
<g id="edge47" class="edge">
<title>[root] provider[&quot;registry.terraform.io/hashicorp/helm&quot;] (close)&#45;&gt;[root] helm_release.prometheus (expand)</title>
<path fill="none" stroke="black" d="M712.4,-504.94C662.61,-494.47 597.44,-480.78 545.24,-469.8"/>
<polygon fill="black" stroke="black" points="545.82,-466.35 535.32,-467.72 544.38,-473.2 545.82,-466.35"/>
</g>
<!-- [root] provider[&quot;registry.terraform.io/hashicorp/helm&quot;] (close)&#45;&gt;[root] helm_release.superset (expand) -->
<g id="edge48" class="edge">
<title>[root] provider[&quot;registry.terraform.io/hashicorp/helm&quot;] (close)&#45;&gt;[root] helm_release.superset (expand)</title>
<path fill="none" stroke="black" d="M910.02,-506.51C982.65,-497.28 1077.02,-484.3 1169.54,-468.16"/>
<polygon fill="black" stroke="black" points="1170.4,-471.56 1179.64,-466.38 1169.18,-464.66 1170.4,-471.56"/>
</g>
<!-- [root] provider[&quot;registry.terraform.io/hashicorp/kubernetes&quot;] (close) -->
<g id="node30" class="node">
<title>[root] provider[&quot;registry.terraform.io/hashicorp/kubernetes&quot;] (close)</title>
<ellipse fill="none" stroke="black" cx="1595.8" cy="-450" rx="258.05" ry="18"/>
<text text-anchor="middle" x="1595.8" y="-446.3" font-family="Times,serif" font-size="14.00">[root] provider[&quot;registry.terraform.io/hashicorp/kubernetes&quot;] (close)</text>
</g>
<!-- [root] provider[&quot;registry.terraform.io/hashicorp/kubernetes&quot;] (close)&#45;&gt;[root] data.kubernetes_secret.postgresql (expand) -->
<g id="edge50" class="edge">
<title>[root] provider[&quot;registry.terraform.io/hashicorp/kubernetes&quot;] (close)&#45;&gt;[root] data.kubernetes_secret.postgresql (expand)</title>
<path fill="none" stroke="black" d="M1496.71,-433.38C1427.87,-422.53 1336.01,-408.04 1264.4,-396.75"/>
<polygon fill="black" stroke="black" points="1264.86,-393.28 1254.44,-395.18 1263.77,-400.2 1264.86,-393.28"/>
</g>
<!-- [root] provider[&quot;registry.terraform.io/hashicorp/kubernetes&quot;] (close)&#45;&gt;[root] kubernetes_cluster_role_binding.dbt (expand) -->
<g id="edge51" class="edge">
<title>[root] provider[&quot;registry.terraform.io/hashicorp/kubernetes&quot;] (close)&#45;&gt;[root] kubernetes_cluster_role_binding.dbt (expand)</title>
<path fill="none" stroke="black" d="M1786.27,-437.83C1923.73,-428.97 2113.97,-415.09 2290.98,-396.05"/>
<polygon fill="black" stroke="black" points="2291.44,-399.52 2301.01,-394.96 2290.69,-392.56 2291.44,-399.52"/>
</g>
<!-- [root] provider[&quot;registry.terraform.io/hashicorp/kubernetes&quot;] (close)&#45;&gt;[root] kubernetes_config_map.prometheus_dashboard (expand) -->
<g id="edge52" class="edge">
<title>[root] provider[&quot;registry.terraform.io/hashicorp/kubernetes&quot;] (close)&#45;&gt;[root] kubernetes_config_map.prometheus_dashboard (expand)</title>
<path fill="none" stroke="black" d="M1713.05,-433.94C1796.64,-423.2 1909.49,-408.71 1998.28,-397.3"/>
<polygon fill="black" stroke="black" points="1998.96,-400.75 2008.44,-396 1998.07,-393.8 1998.96,-400.75"/>
</g>
<!-- [root] provider[&quot;registry.terraform.io/hashicorp/kubernetes&quot;] (close)&#45;&gt;[root] kubernetes_namespace.airbyte (expand) -->
<g id="edge53" class="edge">
<title>[root] provider[&quot;registry.terraform.io/hashicorp/kubernetes&quot;] (close)&#45;&gt;[root] kubernetes_namespace.airbyte (expand)</title>
<path fill="none" stroke="black" d="M1443.19,-435.49C1331.42,-425.34 1176.09,-410.71 1039.8,-396 1027.81,-394.71 1015.25,-393.29 1002.78,-391.83"/>
<polygon fill="black" stroke="black" points="1003.15,-388.35 992.81,-390.67 1002.33,-395.31 1003.15,-388.35"/>
</g>
<!-- [root] provider[&quot;registry.terraform.io/hashicorp/kubernetes&quot;] (close)&#45;&gt;[root] kubernetes_namespace.localstack (expand) -->
<g id="edge54" class="edge">
<title>[root] provider[&quot;registry.terraform.io/hashicorp/kubernetes&quot;] (close)&#45;&gt;[root] kubernetes_namespace.localstack (expand)</title>
<path fill="none" stroke="black" d="M1412.87,-437.27C1199.49,-423.54 867.72,-401.99 796.73,-395.9"/>
<polygon fill="black" stroke="black" points="796.88,-392.4 786.59,-394.95 796.22,-399.37 796.88,-392.4"/>
</g>
<!-- [root] provider[&quot;registry.terraform.io/hashicorp/kubernetes&quot;] (close)&#45;&gt;[root] kubernetes_namespace.prometheus (expand) -->
<g id="edge55" class="edge">
<title>[root] provider[&quot;registry.terraform.io/hashicorp/kubernetes&quot;] (close)&#45;&gt;[root] kubernetes_namespace.prometheus (expand)</title>
<path fill="none" stroke="black" d="M1415.22,-437.11C1386.32,-435.32 1356.74,-433.55 1328.8,-432 995.78,-413.48 908.75,-428.17 572.89,-396.05"/>
<polygon fill="black" stroke="black" points="573.17,-392.56 562.88,-395.08 572.5,-399.53 573.17,-392.56"/>
</g>
<!-- [root] provider[&quot;registry.terraform.io/hashicorp/kubernetes&quot;] (close)&#45;&gt;[root] kubernetes_namespace.superset (expand) -->
<g id="edge56" class="edge">
<title>[root] provider[&quot;registry.terraform.io/hashicorp/kubernetes&quot;] (close)&#45;&gt;[root] kubernetes_namespace.superset (expand)</title>
<path fill="none" stroke="black" d="M1541.95,-432.32C1509.75,-422.35 1468.62,-409.61 1434.64,-399.08"/>
<polygon fill="black" stroke="black" points="1435.39,-395.65 1424.8,-396.04 1433.32,-402.34 1435.39,-395.65"/>
</g>
<!-- [root] provider[&quot;registry.terraform.io/hashicorp/kubernetes&quot;] (close)&#45;&gt;[root] kubernetes_secret.airflow_webserver (expand) -->
<g id="edge57" class="edge">
<title>[root] provider[&quot;registry.terraform.io/hashicorp/kubernetes&quot;] (close)&#45;&gt;[root] kubernetes_secret.airflow_webserver (expand)</title>
<path fill="none" stroke="black" d="M1596.29,-431.7C1596.51,-423.98 1596.78,-414.71 1597.02,-406.11"/>
<polygon fill="black" stroke="black" points="1600.52,-406.2 1597.31,-396.1 1593.53,-406 1600.52,-406.2"/>
</g>
<!-- [root] provider[&quot;registry.terraform.io/hashicorp/kubernetes&quot;] (close)&#45;&gt;[root] kubernetes_secret.prometheus_datasource (expand) -->
<g id="edge58" class="edge">
<title>[root] provider[&quot;registry.terraform.io/hashicorp/kubernetes&quot;] (close)&#45;&gt;[root] kubernetes_secret.prometheus_datasource (expand)</title>
<path fill="none" stroke="black" d="M1656.85,-432.5C1694.21,-422.4 1742.24,-409.42 1781.63,-398.77"/>
<polygon fill="black" stroke="black" points="1782.71,-402.11 1791.45,-396.12 1780.89,-395.35 1782.71,-402.11"/>
</g>
<!-- [root] provider[&quot;registry.terraform.io/hashicorp/random&quot;] (close) -->
<g id="node31" class="node">
<title>[root] provider[&quot;registry.terraform.io/hashicorp/random&quot;] (close)</title>
<ellipse fill="none" stroke="black" cx="2092.8" cy="-522" rx="246.16" ry="18"/>
<text text-anchor="middle" x="2092.8" y="-518.3" font-family="Times,serif" font-size="14.00">[root] provider[&quot;registry.terraform.io/hashicorp/random&quot;] (close)</text>
</g>
<!-- [root] provider[&quot;registry.terraform.io/hashicorp/random&quot;] (close)&#45;&gt;[root] random_password.airflow_webserver_secret_key (expand) -->
<g id="edge60" class="edge">
<title>[root] provider[&quot;registry.terraform.io/hashicorp/random&quot;] (close)&#45;&gt;[root] random_password.airflow_webserver_secret_key (expand)</title>
<path fill="none" stroke="black" d="M2274.4,-509.78C2430.84,-493.59 2618.81,-454.37 2531.8,-360 2498.91,-324.33 2219.38,-312.66 2037.16,-308.85"/>
<polygon fill="black" stroke="black" points="2037,-305.35 2026.93,-308.64 2036.86,-312.35 2037,-305.35"/>
</g>
<!-- [root] provider[&quot;registry.terraform.io/kyma&#45;incubator/kind&quot;] (close) -->
<g id="node32" class="node">
<title>[root] provider[&quot;registry.terraform.io/kyma&#45;incubator/kind&quot;] (close)</title>
<ellipse fill="none" stroke="black" cx="2211.8" cy="-162" rx="257.25" ry="18"/>
<text text-anchor="middle" x="2211.8" y="-158.3" font-family="Times,serif" font-size="14.00">[root] provider[&quot;registry.terraform.io/kyma&#45;incubator/kind&quot;] (close)</text>
</g>
<!-- [root] provider[&quot;registry.terraform.io/kyma&#45;incubator/kind&quot;] (close)&#45;&gt;[root] kind_cluster.default (expand) -->
<g id="edge61" class="edge">
<title>[root] provider[&quot;registry.terraform.io/kyma&#45;incubator/kind&quot;] (close)&#45;&gt;[root] kind_cluster.default (expand)</title>
<path fill="none" stroke="black" d="M2036.8,-148.79C1814.32,-133.26 1440.18,-107.15 1282.45,-96.14"/>
<polygon fill="black" stroke="black" points="1282.6,-92.64 1272.38,-95.44 1282.11,-99.63 1282.6,-92.64"/>
</g>
<!-- [root] root -->
<g id="node33" class="node">
<title>[root] root</title>
<ellipse fill="none" stroke="black" cx="1595.8" cy="-594" rx="48.19" ry="18"/>
<text text-anchor="middle" x="1595.8" y="-590.3" font-family="Times,serif" font-size="14.00">[root] root</text>
</g>
<!-- [root] root&#45;&gt;[root] meta.count&#45;boundary (EachMode fixup) -->
<g id="edge63" class="edge">
<title>[root] root&#45;&gt;[root] meta.count&#45;boundary (EachMode fixup)</title>
<path fill="none" stroke="black" d="M1553.85,-585.11C1496.11,-574.24 1390.66,-554.4 1314.46,-540.06"/>
<polygon fill="black" stroke="black" points="1314.86,-536.57 1304.38,-538.16 1313.56,-543.45 1314.86,-536.57"/>
</g>
<!-- [root] root&#45;&gt;[root] provider[&quot;registry.terraform.io/hashicorp/helm&quot;] (close) -->
<g id="edge64" class="edge">
<title>[root] root&#45;&gt;[root] provider[&quot;registry.terraform.io/hashicorp/helm&quot;] (close)</title>
<path fill="none" stroke="black" d="M1549.51,-588.99C1435.31,-579.08 1135.83,-553.1 948.5,-536.85"/>
<polygon fill="black" stroke="black" points="948.54,-533.34 938.28,-535.97 947.94,-540.32 948.54,-533.34"/>
</g>
<!-- [root] root&#45;&gt;[root] provider[&quot;registry.terraform.io/hashicorp/kubernetes&quot;] (close) -->
<g id="edge65" class="edge">
<title>[root] root&#45;&gt;[root] provider[&quot;registry.terraform.io/hashicorp/kubernetes&quot;] (close)</title>
<path fill="none" stroke="black" d="M1595.8,-575.87C1595.8,-551.67 1595.8,-507.21 1595.8,-478.39"/>
<polygon fill="black" stroke="black" points="1599.3,-478.19 1595.8,-468.19 1592.3,-478.19 1599.3,-478.19"/>
</g>
<!-- [root] root&#45;&gt;[root] provider[&quot;registry.terraform.io/hashicorp/random&quot;] (close) -->
<g id="edge66" class="edge">
<title>[root] root&#45;&gt;[root] provider[&quot;registry.terraform.io/hashicorp/random&quot;] (close)</title>
<path fill="none" stroke="black" d="M1639.9,-586.79C1714.37,-576.3 1867.42,-554.74 1974.91,-539.6"/>
<polygon fill="black" stroke="black" points="1975.42,-543.07 1984.84,-538.21 1974.45,-536.13 1975.42,-543.07"/>
</g>
<!-- [root] root&#45;&gt;[root] provider[&quot;registry.terraform.io/kyma&#45;incubator/kind&quot;] (close) -->
<g id="edge67" class="edge">
<title>[root] root&#45;&gt;[root] provider[&quot;registry.terraform.io/kyma&#45;incubator/kind&quot;] (close)</title>
<path fill="none" stroke="black" d="M1643.55,-591.4C1786.97,-586.32 2212.41,-569.15 2347.8,-540 2459.42,-515.97 2588.8,-565.18 2588.8,-451 2588.8,-451 2588.8,-451 2588.8,-305 2588.8,-246.1 2425.63,-203.24 2313.98,-180.81"/>
<polygon fill="black" stroke="black" points="2314.51,-177.35 2304.02,-178.83 2313.15,-184.21 2314.51,-177.35"/>
</g>
</g>
</svg>
