<?xml version="1.0" encoding="UTF-8" standalone="no"?>
<!DOCTYPE svg PUBLIC "-//W3C//DTD SVG 1.1//EN"
 "http://www.w3.org/Graphics/SVG/1.1/DTD/svg11.dtd">
<!-- Generated by graphviz version 2.49.3 (20211023.0002)
 -->
<!-- Pages: 1 -->
<svg width="2366pt" height="620pt"
 viewBox="0.00 0.00 2366.18 620.00" xmlns="http://www.w3.org/2000/svg" xmlns:xlink="http://www.w3.org/1999/xlink">
<g id="graph0" class="graph" transform="scale(1 1) rotate(0) translate(4 616)">
<polygon fill="white" stroke="transparent" points="-4,4 -4,-616 2362.18,-616 2362.18,4 -4,4"/>
<!-- [root] data.kubernetes_secret.postgresql (expand) -->
<g id="node1" class="node">
<title>[root] data.kubernetes_secret.postgresql (expand)</title>
<polygon fill="none" stroke="black" points="1011.3,-396 806.3,-396 806.3,-360 1011.3,-360 1011.3,-396"/>
<text text-anchor="middle" x="908.8" y="-374.3" font-family="Times,serif" font-size="14.00">data.kubernetes_secret.postgresql</text>
</g>
<!-- [root] helm_release.postgresql (expand) -->
<g id="node6" class="node">
<title>[root] helm_release.postgresql (expand)</title>
<polygon fill="none" stroke="black" points="978.3,-324 827.3,-324 827.3,-288 978.3,-288 978.3,-324"/>
<text text-anchor="middle" x="902.8" y="-302.3" font-family="Times,serif" font-size="14.00">helm_release.postgresql</text>
</g>
<!-- [root] data.kubernetes_secret.postgresql (expand)&#45;&gt;[root] helm_release.postgresql (expand) -->
<g id="edge1" class="edge">
<title>[root] data.kubernetes_secret.postgresql (expand)&#45;&gt;[root] helm_release.postgresql (expand)</title>
<path fill="none" stroke="black" d="M907.31,-359.7C906.65,-351.98 905.86,-342.71 905.12,-334.11"/>
<polygon fill="black" stroke="black" points="908.61,-333.77 904.26,-324.1 901.63,-334.37 908.61,-333.77"/>
</g>
<!-- [root] helm_release.airbyte (expand) -->
<g id="node2" class="node">
<title>[root] helm_release.airbyte (expand)</title>
<polygon fill="none" stroke="black" points="452.3,-468 319.3,-468 319.3,-432 452.3,-432 452.3,-468"/>
<text text-anchor="middle" x="385.8" y="-446.3" font-family="Times,serif" font-size="14.00">helm_release.airbyte</text>
</g>
<!-- [root] kubernetes_namespace.airbyte (expand) -->
<g id="node13" class="node">
<title>[root] kubernetes_namespace.airbyte (expand)</title>
<polygon fill="none" stroke="black" points="517.8,-396 329.8,-396 329.8,-360 517.8,-360 517.8,-396"/>
<text text-anchor="middle" x="423.8" y="-374.3" font-family="Times,serif" font-size="14.00">kubernetes_namespace.airbyte</text>
</g>
<!-- [root] helm_release.airbyte (expand)&#45;&gt;[root] kubernetes_namespace.airbyte (expand) -->
<g id="edge2" class="edge">
<title>[root] helm_release.airbyte (expand)&#45;&gt;[root] kubernetes_namespace.airbyte (expand)</title>
<path fill="none" stroke="black" d="M395.19,-431.7C399.56,-423.64 404.86,-413.89 409.69,-404.98"/>
<polygon fill="black" stroke="black" points="412.82,-406.56 414.51,-396.1 406.67,-403.22 412.82,-406.56"/>
</g>
<!-- [root] provider[&quot;registry.terraform.io/hashicorp/helm&quot;] -->
<g id="node21" class="node">
<title>[root] provider[&quot;registry.terraform.io/hashicorp/helm&quot;]</title>
<polygon fill="none" stroke="black" points="263.8,-252 0.2,-234 263.8,-216 527.39,-234 263.8,-252"/>
<text text-anchor="middle" x="263.8" y="-230.3" font-family="Times,serif" font-size="14.00">provider[&quot;registry.terraform.io/hashicorp/helm&quot;]</text>
</g>
<!-- [root] helm_release.airbyte (expand)&#45;&gt;[root] provider[&quot;registry.terraform.io/hashicorp/helm&quot;] -->
<g id="edge3" class="edge">
<title>[root] helm_release.airbyte (expand)&#45;&gt;[root] provider[&quot;registry.terraform.io/hashicorp/helm&quot;]</title>
<path fill="none" stroke="black" d="M318.91,-432.69C272.77,-420.76 218.56,-405.13 211.8,-396 183.23,-357.43 193.64,-332.43 211.8,-288 216.56,-276.35 225.26,-265.87 234.19,-257.37"/>
<polygon fill="black" stroke="black" points="236.53,-259.98 241.67,-250.71 231.88,-254.75 236.53,-259.98"/>
</g>
<!-- [root] helm_release.airflow (expand) -->
<g id="node3" class="node">
<title>[root] helm_release.airflow (expand)</title>
<polygon fill="none" stroke="black" points="935.8,-468 801.8,-468 801.8,-432 935.8,-432 935.8,-468"/>
<text text-anchor="middle" x="868.8" y="-446.3" font-family="Times,serif" font-size="14.00">helm_release.airflow</text>
</g>
<!-- [root] kubernetes_secret.airflow_webserver (expand) -->
<g id="node19" class="node">
<title>[root] kubernetes_secret.airflow_webserver (expand)</title>
<polygon fill="none" stroke="black" points="1254.3,-396 1029.3,-396 1029.3,-360 1254.3,-360 1254.3,-396"/>
<text text-anchor="middle" x="1141.8" y="-374.3" font-family="Times,serif" font-size="14.00">kubernetes_secret.airflow_webserver</text>
</g>
<!-- [root] helm_release.airflow (expand)&#45;&gt;[root] kubernetes_secret.airflow_webserver (expand) -->
<g id="edge4" class="edge">
<title>[root] helm_release.airflow (expand)&#45;&gt;[root] kubernetes_secret.airflow_webserver (expand)</title>
<path fill="none" stroke="black" d="M935.23,-431.97C974.45,-421.91 1024.27,-409.14 1065.15,-398.65"/>
<polygon fill="black" stroke="black" points="1066.25,-401.98 1075.07,-396.11 1064.51,-395.2 1066.25,-401.98"/>
</g>
<!-- [root] helm_release.airflow (expand)&#45;&gt;[root] provider[&quot;registry.terraform.io/hashicorp/helm&quot;] -->
<g id="edge5" class="edge">
<title>[root] helm_release.airflow (expand)&#45;&gt;[root] provider[&quot;registry.terraform.io/hashicorp/helm&quot;]</title>
<path fill="none" stroke="black" d="M801.76,-433.46C798.74,-432.93 795.74,-432.44 792.8,-432 740.78,-424.24 362.56,-427.97 320.8,-396 299.08,-379.38 279.07,-303.13 269.58,-261.81"/>
<polygon fill="black" stroke="black" points="272.95,-260.86 267.35,-251.87 266.12,-262.4 272.95,-260.86"/>
</g>
<!-- [root] helm_release.grafana (expand) -->
<g id="node4" class="node">
<title>[root] helm_release.grafana (expand)</title>
<polygon fill="none" stroke="black" points="783.8,-468 647.8,-468 647.8,-432 783.8,-432 783.8,-468"/>
<text text-anchor="middle" x="715.8" y="-446.3" font-family="Times,serif" font-size="14.00">helm_release.grafana</text>
</g>
<!-- [root] kubernetes_namespace.grafana (expand) -->
<g id="node16" class="node">
<title>[root] kubernetes_namespace.grafana (expand)</title>
<polygon fill="none" stroke="black" points="1542.3,-324 1351.3,-324 1351.3,-288 1542.3,-288 1542.3,-324"/>
<text text-anchor="middle" x="1446.8" y="-302.3" font-family="Times,serif" font-size="14.00">kubernetes_namespace.grafana</text>
</g>
<!-- [root] helm_release.grafana (expand)&#45;&gt;[root] kubernetes_namespace.grafana (expand) -->
<g id="edge6" class="edge">
<title>[root] helm_release.grafana (expand)&#45;&gt;[root] kubernetes_namespace.grafana (expand)</title>
<path fill="none" stroke="black" d="M729,-431.92C747.53,-408.45 780.88,-368.21 797.8,-360 890.84,-314.84 1158.75,-332.73 1261.8,-324 1287.47,-321.82 1315.14,-319.35 1341.06,-316.98"/>
<polygon fill="black" stroke="black" points="1341.64,-320.44 1351.28,-316.04 1341,-313.47 1341.64,-320.44"/>
</g>
<!-- [root] helm_release.grafana (expand)&#45;&gt;[root] provider[&quot;registry.terraform.io/hashicorp/helm&quot;] -->
<g id="edge7" class="edge">
<title>[root] helm_release.grafana (expand)&#45;&gt;[root] provider[&quot;registry.terraform.io/hashicorp/helm&quot;]</title>
<path fill="none" stroke="black" d="M647.44,-433.48C644.53,-432.95 641.64,-432.46 638.8,-432 561.39,-419.53 344.5,-450.16 287.8,-396 251.78,-361.59 253.98,-298.24 258.85,-262.11"/>
<polygon fill="black" stroke="black" points="262.37,-262.25 260.41,-251.84 255.45,-261.2 262.37,-262.25"/>
</g>
<!-- [root] helm_release.metrics&#45;server (expand) -->
<g id="node5" class="node">
<title>[root] helm_release.metrics&#45;server (expand)</title>
<polygon fill="none" stroke="black" points="300.8,-468 126.8,-468 126.8,-432 300.8,-432 300.8,-468"/>
<text text-anchor="middle" x="213.8" y="-446.3" font-family="Times,serif" font-size="14.00">helm_release.metrics&#45;server</text>
</g>
<!-- [root] helm_release.metrics&#45;server (expand)&#45;&gt;[root] provider[&quot;registry.terraform.io/hashicorp/helm&quot;] -->
<g id="edge8" class="edge">
<title>[root] helm_release.metrics&#45;server (expand)&#45;&gt;[root] provider[&quot;registry.terraform.io/hashicorp/helm&quot;]</title>
<path fill="none" stroke="black" d="M196.07,-431.6C187.56,-422 178.27,-409.34 173.8,-396 158.55,-350.49 149.98,-329.67 173.8,-288 182.29,-273.14 196.76,-262.03 211.64,-253.93"/>
<polygon fill="black" stroke="black" points="213.55,-256.89 220.91,-249.27 210.41,-250.63 213.55,-256.89"/>
</g>
<!-- [root] kubernetes_namespace.dbt (expand) -->
<g id="node15" class="node">
<title>[root] kubernetes_namespace.dbt (expand)</title>
<polygon fill="none" stroke="black" points="986.3,-252 819.3,-252 819.3,-216 986.3,-216 986.3,-252"/>
<text text-anchor="middle" x="902.8" y="-230.3" font-family="Times,serif" font-size="14.00">kubernetes_namespace.dbt</text>
</g>
<!-- [root] helm_release.postgresql (expand)&#45;&gt;[root] kubernetes_namespace.dbt (expand) -->
<g id="edge9" class="edge">
<title>[root] helm_release.postgresql (expand)&#45;&gt;[root] kubernetes_namespace.dbt (expand)</title>
<path fill="none" stroke="black" d="M902.8,-287.7C902.8,-279.98 902.8,-270.71 902.8,-262.11"/>
<polygon fill="black" stroke="black" points="906.3,-262.1 902.8,-252.1 899.3,-262.1 906.3,-262.1"/>
</g>
<!-- [root] helm_release.postgresql (expand)&#45;&gt;[root] provider[&quot;registry.terraform.io/hashicorp/helm&quot;] -->
<g id="edge10" class="edge">
<title>[root] helm_release.postgresql (expand)&#45;&gt;[root] provider[&quot;registry.terraform.io/hashicorp/helm&quot;]</title>
<path fill="none" stroke="black" d="M826.99,-296.7C713.44,-284.26 498.81,-260.74 369.8,-246.61"/>
<polygon fill="black" stroke="black" points="369.83,-243.1 359.51,-245.49 369.07,-250.05 369.83,-243.1"/>
</g>
<!-- [root] helm_release.prometheus (expand) -->
<g id="node7" class="node">
<title>[root] helm_release.prometheus (expand)</title>
<polygon fill="none" stroke="black" points="629.3,-468 470.3,-468 470.3,-432 629.3,-432 629.3,-468"/>
<text text-anchor="middle" x="549.8" y="-446.3" font-family="Times,serif" font-size="14.00">helm_release.prometheus</text>
</g>
<!-- [root] kubernetes_namespace.prometheus (expand) -->
<g id="node17" class="node">
<title>[root] kubernetes_namespace.prometheus (expand)</title>
<polygon fill="none" stroke="black" points="749.8,-396 535.8,-396 535.8,-360 749.8,-360 749.8,-396"/>
<text text-anchor="middle" x="642.8" y="-374.3" font-family="Times,serif" font-size="14.00">kubernetes_namespace.prometheus</text>
</g>
<!-- [root] helm_release.prometheus (expand)&#45;&gt;[root] kubernetes_namespace.prometheus (expand) -->
<g id="edge11" class="edge">
<title>[root] helm_release.prometheus (expand)&#45;&gt;[root] kubernetes_namespace.prometheus (expand)</title>
<path fill="none" stroke="black" d="M572.79,-431.7C584.61,-422.8 599.19,-411.82 611.98,-402.2"/>
<polygon fill="black" stroke="black" points="614.19,-404.91 620.07,-396.1 609.98,-399.32 614.19,-404.91"/>
</g>
<!-- [root] helm_release.prometheus (expand)&#45;&gt;[root] provider[&quot;registry.terraform.io/hashicorp/helm&quot;] -->
<g id="edge12" class="edge">
<title>[root] helm_release.prometheus (expand)&#45;&gt;[root] provider[&quot;registry.terraform.io/hashicorp/helm&quot;]</title>
<path fill="none" stroke="black" d="M470.24,-433.72C467.05,-433.14 463.89,-432.56 460.8,-432 413.99,-423.54 280.47,-432.35 249.8,-396 218.01,-358.33 236.44,-296.55 251.14,-261.49"/>
<polygon fill="black" stroke="black" points="254.52,-262.5 255.33,-251.93 248.1,-259.69 254.52,-262.5"/>
</g>
<!-- [root] helm_release.superset (expand) -->
<g id="node8" class="node">
<title>[root] helm_release.superset (expand)</title>
<polygon fill="none" stroke="black" points="1093.8,-468 953.8,-468 953.8,-432 1093.8,-432 1093.8,-468"/>
<text text-anchor="middle" x="1023.8" y="-446.3" font-family="Times,serif" font-size="14.00">helm_release.superset</text>
</g>
<!-- [root] helm_release.superset (expand)&#45;&gt;[root] data.kubernetes_secret.postgresql (expand) -->
<g id="edge13" class="edge">
<title>[root] helm_release.superset (expand)&#45;&gt;[root] data.kubernetes_secret.postgresql (expand)</title>
<path fill="none" stroke="black" d="M995.67,-431.88C980.63,-422.72 961.93,-411.34 945.74,-401.48"/>
<polygon fill="black" stroke="black" points="947.4,-398.4 937.04,-396.19 943.76,-404.38 947.4,-398.4"/>
</g>
<!-- [root] kubernetes_namespace.superset (expand) -->
<g id="node18" class="node">
<title>[root] kubernetes_namespace.superset (expand)</title>
<polygon fill="none" stroke="black" points="1467.3,-396 1272.3,-396 1272.3,-360 1467.3,-360 1467.3,-396"/>
<text text-anchor="middle" x="1369.8" y="-374.3" font-family="Times,serif" font-size="14.00">kubernetes_namespace.superset</text>
</g>
<!-- [root] helm_release.superset (expand)&#45;&gt;[root] kubernetes_namespace.superset (expand) -->
<g id="edge14" class="edge">
<title>[root] helm_release.superset (expand)&#45;&gt;[root] kubernetes_namespace.superset (expand)</title>
<path fill="none" stroke="black" d="M1094,-433.83C1096.97,-433.21 1099.91,-432.6 1102.8,-432 1158.88,-420.4 1221.69,-407.91 1272.29,-397.97"/>
<polygon fill="black" stroke="black" points="1273.1,-401.37 1282.24,-396.01 1271.76,-394.5 1273.1,-401.37"/>
</g>
<!-- [root] kind_cluster.default (expand) -->
<g id="node9" class="node">
<title>[root] kind_cluster.default (expand)</title>
<polygon fill="none" stroke="black" points="1386.3,-108 1259.3,-108 1259.3,-72 1386.3,-72 1386.3,-108"/>
<text text-anchor="middle" x="1322.8" y="-86.3" font-family="Times,serif" font-size="14.00">kind_cluster.default</text>
</g>
<!-- [root] provider[&quot;registry.terraform.io/kyma&#45;incubator/kind&quot;] -->
<g id="node23" class="node">
<title>[root] provider[&quot;registry.terraform.io/kyma&#45;incubator/kind&quot;]</title>
<polygon fill="none" stroke="black" points="1322.8,-36 1029.38,-18 1322.8,0 1616.22,-18 1322.8,-36"/>
<text text-anchor="middle" x="1322.8" y="-14.3" font-family="Times,serif" font-size="14.00">provider[&quot;registry.terraform.io/kyma&#45;incubator/kind&quot;]</text>
</g>
<!-- [root] kind_cluster.default (expand)&#45;&gt;[root] provider[&quot;registry.terraform.io/kyma&#45;incubator/kind&quot;] -->
<g id="edge15" class="edge">
<title>[root] kind_cluster.default (expand)&#45;&gt;[root] provider[&quot;registry.terraform.io/kyma&#45;incubator/kind&quot;]</title>
<path fill="none" stroke="black" d="M1322.8,-71.7C1322.8,-63.98 1322.8,-54.71 1322.8,-46.11"/>
<polygon fill="black" stroke="black" points="1326.3,-46.1 1322.8,-36.1 1319.3,-46.1 1326.3,-46.1"/>
</g>
<!-- [root] kubernetes_cluster_role.dbt (expand) -->
<g id="node10" class="node">
<title>[root] kubernetes_cluster_role.dbt (expand)</title>
<polygon fill="none" stroke="black" points="1891.8,-252 1719.8,-252 1719.8,-216 1891.8,-216 1891.8,-252"/>
<text text-anchor="middle" x="1805.8" y="-230.3" font-family="Times,serif" font-size="14.00">kubernetes_cluster_role.dbt</text>
</g>
<!-- [root] provider[&quot;registry.terraform.io/hashicorp/kubernetes&quot;] -->
<g id="node22" class="node">
<title>[root] provider[&quot;registry.terraform.io/hashicorp/kubernetes&quot;]</title>
<polygon fill="none" stroke="black" points="1322.8,-180 1028.54,-162 1322.8,-144 1617.06,-162 1322.8,-180"/>
<text text-anchor="middle" x="1322.8" y="-158.3" font-family="Times,serif" font-size="14.00">provider[&quot;registry.terraform.io/hashicorp/kubernetes&quot;]</text>
</g>
<!-- [root] kubernetes_cluster_role.dbt (expand)&#45;&gt;[root] provider[&quot;registry.terraform.io/hashicorp/kubernetes&quot;] -->
<g id="edge16" class="edge">
<title>[root] kubernetes_cluster_role.dbt (expand)&#45;&gt;[root] provider[&quot;registry.terraform.io/hashicorp/kubernetes&quot;]</title>
<path fill="none" stroke="black" d="M1719.73,-220.53C1634.2,-208.13 1503.45,-189.18 1415.63,-176.45"/>
<polygon fill="black" stroke="black" points="1416.08,-172.98 1405.68,-175.01 1415.07,-179.91 1416.08,-172.98"/>
</g>
<!-- [root] kubernetes_cluster_role_binding.dbt (expand) -->
<g id="node11" class="node">
<title>[root] kubernetes_cluster_role_binding.dbt (expand)</title>
<polygon fill="none" stroke="black" points="2279.3,-396 2058.3,-396 2058.3,-360 2279.3,-360 2279.3,-396"/>
<text text-anchor="middle" x="2168.8" y="-374.3" font-family="Times,serif" font-size="14.00">kubernetes_cluster_role_binding.dbt</text>
</g>
<!-- [root] kubernetes_cluster_role_binding.dbt (expand)&#45;&gt;[root] kubernetes_cluster_role.dbt (expand) -->
<g id="edge17" class="edge">
<title>[root] kubernetes_cluster_role_binding.dbt (expand)&#45;&gt;[root] kubernetes_cluster_role.dbt (expand)</title>
<path fill="none" stroke="black" d="M2125.01,-359.87C2058.15,-333.72 1930.8,-283.9 1858.81,-255.74"/>
<polygon fill="black" stroke="black" points="1860.04,-252.46 1849.46,-252.08 1857.49,-258.98 1860.04,-252.46"/>
</g>
<!-- [root] kubernetes_namespace.airflow (expand) -->
<g id="node14" class="node">
<title>[root] kubernetes_namespace.airflow (expand)</title>
<polygon fill="none" stroke="black" points="1749.3,-324 1560.3,-324 1560.3,-288 1749.3,-288 1749.3,-324"/>
<text text-anchor="middle" x="1654.8" y="-302.3" font-family="Times,serif" font-size="14.00">kubernetes_namespace.airflow</text>
</g>
<!-- [root] kubernetes_cluster_role_binding.dbt (expand)&#45;&gt;[root] kubernetes_namespace.airflow (expand) -->
<g id="edge18" class="edge">
<title>[root] kubernetes_cluster_role_binding.dbt (expand)&#45;&gt;[root] kubernetes_namespace.airflow (expand)</title>
<path fill="none" stroke="black" d="M2057.98,-361.27C2054.89,-360.84 2051.82,-360.42 2048.8,-360 1950.78,-346.46 1838.97,-331.47 1759.57,-320.89"/>
<polygon fill="black" stroke="black" points="1759.93,-317.41 1749.56,-319.56 1759.01,-324.35 1759.93,-317.41"/>
</g>
<!-- [root] kubernetes_config_map.prometheus_dashboard (expand) -->
<g id="node12" class="node">
<title>[root] kubernetes_config_map.prometheus_dashboard (expand)</title>
<polygon fill="none" stroke="black" points="1769.8,-396 1485.8,-396 1485.8,-360 1769.8,-360 1769.8,-396"/>
<text text-anchor="middle" x="1627.8" y="-374.3" font-family="Times,serif" font-size="14.00">kubernetes_config_map.prometheus_dashboard</text>
</g>
<!-- [root] kubernetes_config_map.prometheus_dashboard (expand)&#45;&gt;[root] kubernetes_namespace.grafana (expand) -->
<g id="edge19" class="edge">
<title>[root] kubernetes_config_map.prometheus_dashboard (expand)&#45;&gt;[root] kubernetes_namespace.grafana (expand)</title>
<path fill="none" stroke="black" d="M1583.52,-359.88C1558.45,-350.18 1526.9,-337.98 1500.43,-327.74"/>
<polygon fill="black" stroke="black" points="1501.52,-324.41 1490.93,-324.07 1499,-330.94 1501.52,-324.41"/>
</g>
<!-- [root] kubernetes_namespace.airbyte (expand)&#45;&gt;[root] provider[&quot;registry.terraform.io/hashicorp/kubernetes&quot;] -->
<g id="edge20" class="edge">
<title>[root] kubernetes_namespace.airbyte (expand)&#45;&gt;[root] provider[&quot;registry.terraform.io/hashicorp/kubernetes&quot;]</title>
<path fill="none" stroke="black" d="M455.82,-359.88C520.71,-326.06 673.26,-250.93 810.8,-216 914.84,-189.58 1033.98,-176.28 1131.13,-169.61"/>
<polygon fill="black" stroke="black" points="1131.62,-173.09 1141.36,-168.93 1131.15,-166.1 1131.62,-173.09"/>
</g>
<!-- [root] kubernetes_namespace.airflow (expand)&#45;&gt;[root] provider[&quot;registry.terraform.io/hashicorp/kubernetes&quot;] -->
<g id="edge21" class="edge">
<title>[root] kubernetes_namespace.airflow (expand)&#45;&gt;[root] provider[&quot;registry.terraform.io/hashicorp/kubernetes&quot;]</title>
<path fill="none" stroke="black" d="M1614.75,-287.87C1552.41,-261.21 1432.59,-209.96 1367.51,-182.13"/>
<polygon fill="black" stroke="black" points="1368.51,-178.75 1357.94,-178.03 1365.76,-185.18 1368.51,-178.75"/>
</g>
<!-- [root] kubernetes_namespace.dbt (expand)&#45;&gt;[root] provider[&quot;registry.terraform.io/hashicorp/kubernetes&quot;] -->
<g id="edge22" class="edge">
<title>[root] kubernetes_namespace.dbt (expand)&#45;&gt;[root] provider[&quot;registry.terraform.io/hashicorp/kubernetes&quot;]</title>
<path fill="none" stroke="black" d="M986.46,-218.44C991.31,-217.61 996.12,-216.79 1000.8,-216 1080.6,-202.51 1171.61,-187.57 1236.47,-177"/>
<polygon fill="black" stroke="black" points="1237.34,-180.41 1246.65,-175.34 1236.21,-173.5 1237.34,-180.41"/>
</g>
<!-- [root] kubernetes_namespace.grafana (expand)&#45;&gt;[root] provider[&quot;registry.terraform.io/hashicorp/kubernetes&quot;] -->
<g id="edge23" class="edge">
<title>[root] kubernetes_namespace.grafana (expand)&#45;&gt;[root] provider[&quot;registry.terraform.io/hashicorp/kubernetes&quot;]</title>
<path fill="none" stroke="black" d="M1431.84,-287.87C1409.82,-262.65 1368.59,-215.44 1343.62,-186.85"/>
<polygon fill="black" stroke="black" points="1346.26,-184.54 1337.04,-179.31 1340.98,-189.15 1346.26,-184.54"/>
</g>
<!-- [root] kubernetes_namespace.prometheus (expand)&#45;&gt;[root] provider[&quot;registry.terraform.io/hashicorp/kubernetes&quot;] -->
<g id="edge24" class="edge">
<title>[root] kubernetes_namespace.prometheus (expand)&#45;&gt;[root] provider[&quot;registry.terraform.io/hashicorp/kubernetes&quot;]</title>
<path fill="none" stroke="black" d="M749.84,-360.87C850.1,-345.72 985,-325.19 987.8,-324 1012,-313.68 1012.12,-301.34 1034.8,-288 1113.35,-241.81 1212.14,-202.63 1271.23,-181.01"/>
<polygon fill="black" stroke="black" points="1272.51,-184.27 1280.72,-177.57 1270.12,-177.69 1272.51,-184.27"/>
</g>
<!-- [root] kubernetes_namespace.superset (expand)&#45;&gt;[root] provider[&quot;registry.terraform.io/hashicorp/kubernetes&quot;] -->
<g id="edge25" class="edge">
<title>[root] kubernetes_namespace.superset (expand)&#45;&gt;[root] provider[&quot;registry.terraform.io/hashicorp/kubernetes&quot;]</title>
<path fill="none" stroke="black" d="M1359.2,-359.98C1353.42,-349.89 1346.67,-336.64 1342.8,-324 1328.86,-278.51 1324.61,-222.96 1323.33,-190.43"/>
<polygon fill="black" stroke="black" points="1326.82,-190.21 1323,-180.33 1319.83,-190.44 1326.82,-190.21"/>
</g>
<!-- [root] kubernetes_secret.airflow_webserver (expand)&#45;&gt;[root] kubernetes_namespace.airflow (expand) -->
<g id="edge26" class="edge">
<title>[root] kubernetes_secret.airflow_webserver (expand)&#45;&gt;[root] kubernetes_namespace.airflow (expand)</title>
<path fill="none" stroke="black" d="M1254.46,-361.24C1257.61,-360.82 1260.72,-360.41 1263.8,-360 1388.44,-343.53 1422.43,-342.55 1550.08,-324.22"/>
<polygon fill="black" stroke="black" points="1550.85,-327.65 1560.25,-322.75 1549.85,-320.72 1550.85,-327.65"/>
</g>
<!-- [root] var.airflow_webserver_secret_key -->
<g id="node24" class="node">
<title>[root] var.airflow_webserver_secret_key</title>
<polygon fill="none" stroke="black" points="1246.3,-324 1043.3,-324 1043.3,-288 1252.3,-288 1252.3,-318 1246.3,-324"/>
<polyline fill="none" stroke="black" points="1246.3,-324 1246.3,-318 "/>
<polyline fill="none" stroke="black" points="1252.3,-318 1246.3,-318 "/>
<text text-anchor="middle" x="1147.8" y="-302.3" font-family="Times,serif" font-size="14.00">var.airflow_webserver_secret_key</text>
</g>
<!-- [root] kubernetes_secret.airflow_webserver (expand)&#45;&gt;[root] var.airflow_webserver_secret_key -->
<g id="edge27" class="edge">
<title>[root] kubernetes_secret.airflow_webserver (expand)&#45;&gt;[root] var.airflow_webserver_secret_key</title>
<path fill="none" stroke="black" d="M1143.28,-359.7C1143.94,-351.98 1144.74,-342.71 1145.47,-334.11"/>
<polygon fill="black" stroke="black" points="1148.97,-334.37 1146.33,-324.1 1141.99,-333.77 1148.97,-334.37"/>
</g>
<!-- [root] kubernetes_secret.prometheus_datasource (expand) -->
<g id="node20" class="node">
<title>[root] kubernetes_secret.prometheus_datasource (expand)</title>
<polygon fill="none" stroke="black" points="2039.8,-396 1787.8,-396 1787.8,-360 2039.8,-360 2039.8,-396"/>
<text text-anchor="middle" x="1913.8" y="-374.3" font-family="Times,serif" font-size="14.00">kubernetes_secret.prometheus_datasource</text>
</g>
<!-- [root] kubernetes_secret.prometheus_datasource (expand)&#45;&gt;[root] kubernetes_namespace.grafana (expand) -->
<g id="edge28" class="edge">
<title>[root] kubernetes_secret.prometheus_datasource (expand)&#45;&gt;[root] kubernetes_namespace.grafana (expand)</title>
<path fill="none" stroke="black" d="M1794.3,-359.97C1726.33,-350.17 1639.35,-337.44 1552.41,-324.08"/>
<polygon fill="black" stroke="black" points="1552.77,-320.6 1542.36,-322.53 1551.71,-327.52 1552.77,-320.6"/>
</g>
<!-- [root] provider[&quot;registry.terraform.io/hashicorp/helm&quot;]&#45;&gt;[root] kind_cluster.default (expand) -->
<g id="edge44" class="edge">
<title>[root] provider[&quot;registry.terraform.io/hashicorp/helm&quot;]&#45;&gt;[root] kind_cluster.default (expand)</title>
<path fill="none" stroke="black" d="M348.23,-221.68C550.17,-194.6 1058.45,-126.45 1249.07,-100.89"/>
<polygon fill="black" stroke="black" points="1249.55,-104.35 1258.99,-99.56 1248.61,-97.42 1249.55,-104.35"/>
</g>
<!-- [root] provider[&quot;registry.terraform.io/hashicorp/kubernetes&quot;]&#45;&gt;[root] kind_cluster.default (expand) -->
<g id="edge53" class="edge">
<title>[root] provider[&quot;registry.terraform.io/hashicorp/kubernetes&quot;]&#45;&gt;[root] kind_cluster.default (expand)</title>
<path fill="none" stroke="black" d="M1322.8,-143.7C1322.8,-135.98 1322.8,-126.71 1322.8,-118.11"/>
<polygon fill="black" stroke="black" points="1326.3,-118.1 1322.8,-108.1 1319.3,-118.1 1326.3,-118.1"/>
</g>
<!-- [root] meta.count&#45;boundary (EachMode fixup) -->
<g id="node25" class="node">
<title>[root] meta.count&#45;boundary (EachMode fixup)</title>
<ellipse fill="none" stroke="black" cx="1023.8" cy="-522" rx="180.87" ry="18"/>
<text text-anchor="middle" x="1023.8" y="-518.3" font-family="Times,serif" font-size="14.00">[root] meta.count&#45;boundary (EachMode fixup)</text>
</g>
<!-- [root] meta.count&#45;boundary (EachMode fixup)&#45;&gt;[root] helm_release.airbyte (expand) -->
<g id="edge29" class="edge">
<title>[root] meta.count&#45;boundary (EachMode fixup)&#45;&gt;[root] helm_release.airbyte (expand)</title>
<path fill="none" stroke="black" d="M895.38,-509.33C747.69,-495.86 519.11,-474.8 462.53,-467.93"/>
<polygon fill="black" stroke="black" points="462.75,-464.42 452.37,-466.56 461.81,-471.36 462.75,-464.42"/>
</g>
<!-- [root] meta.count&#45;boundary (EachMode fixup)&#45;&gt;[root] helm_release.airflow (expand) -->
<g id="edge30" class="edge">
<title>[root] meta.count&#45;boundary (EachMode fixup)&#45;&gt;[root] helm_release.airflow (expand)</title>
<path fill="none" stroke="black" d="M986.67,-504.23C965.42,-494.63 938.54,-482.5 915.83,-472.24"/>
<polygon fill="black" stroke="black" points="917.25,-469.04 906.7,-468.12 914.37,-475.42 917.25,-469.04"/>
</g>
<!-- [root] meta.count&#45;boundary (EachMode fixup)&#45;&gt;[root] helm_release.grafana (expand) -->
<g id="edge31" class="edge">
<title>[root] meta.count&#45;boundary (EachMode fixup)&#45;&gt;[root] helm_release.grafana (expand)</title>
<path fill="none" stroke="black" d="M954.68,-505.29C906.97,-494.45 843.47,-480.02 793.92,-468.76"/>
<polygon fill="black" stroke="black" points="794.42,-465.28 783.89,-466.48 792.87,-472.11 794.42,-465.28"/>
</g>
<!-- [root] meta.count&#45;boundary (EachMode fixup)&#45;&gt;[root] helm_release.metrics&#45;server (expand) -->
<g id="edge32" class="edge">
<title>[root] meta.count&#45;boundary (EachMode fixup)&#45;&gt;[root] helm_release.metrics&#45;server (expand)</title>
<path fill="none" stroke="black" d="M896.75,-509.2C876.05,-507.38 854.83,-505.59 834.8,-504 604.95,-485.78 543.67,-496.13 310.99,-468.07"/>
<polygon fill="black" stroke="black" points="311.21,-464.57 300.86,-466.83 310.36,-471.52 311.21,-464.57"/>
</g>
<!-- [root] meta.count&#45;boundary (EachMode fixup)&#45;&gt;[root] helm_release.prometheus (expand) -->
<g id="edge33" class="edge">
<title>[root] meta.count&#45;boundary (EachMode fixup)&#45;&gt;[root] helm_release.prometheus (expand)</title>
<path fill="none" stroke="black" d="M915.29,-507.59C840.52,-497.99 738.66,-484.2 639.26,-468.03"/>
<polygon fill="black" stroke="black" points="639.77,-464.57 629.34,-466.41 638.64,-471.47 639.77,-464.57"/>
</g>
<!-- [root] meta.count&#45;boundary (EachMode fixup)&#45;&gt;[root] helm_release.superset (expand) -->
<g id="edge34" class="edge">
<title>[root] meta.count&#45;boundary (EachMode fixup)&#45;&gt;[root] helm_release.superset (expand)</title>
<path fill="none" stroke="black" d="M1023.8,-503.7C1023.8,-495.98 1023.8,-486.71 1023.8,-478.11"/>
<polygon fill="black" stroke="black" points="1027.3,-478.1 1023.8,-468.1 1020.3,-478.1 1027.3,-478.1"/>
</g>
<!-- [root] meta.count&#45;boundary (EachMode fixup)&#45;&gt;[root] kubernetes_cluster_role_binding.dbt (expand) -->
<g id="edge35" class="edge">
<title>[root] meta.count&#45;boundary (EachMode fixup)&#45;&gt;[root] kubernetes_cluster_role_binding.dbt (expand)</title>
<path fill="none" stroke="black" d="M1188.11,-514.49C1331.6,-507.42 1545.19,-493.54 1729.8,-468 1856.26,-450.5 2001.07,-418.85 2088.68,-398.39"/>
<polygon fill="black" stroke="black" points="2089.62,-401.76 2098.55,-396.07 2088.02,-394.95 2089.62,-401.76"/>
</g>
<!-- [root] meta.count&#45;boundary (EachMode fixup)&#45;&gt;[root] kubernetes_config_map.prometheus_dashboard (expand) -->
<g id="edge36" class="edge">
<title>[root] meta.count&#45;boundary (EachMode fixup)&#45;&gt;[root] kubernetes_config_map.prometheus_dashboard (expand)</title>
<path fill="none" stroke="black" d="M1199.62,-517.69C1370.21,-512.62 1607.58,-499.86 1636.8,-468 1651.98,-451.45 1647.14,-425.21 1640.05,-405.5"/>
<polygon fill="black" stroke="black" points="1643.29,-404.16 1636.36,-396.15 1636.78,-406.74 1643.29,-404.16"/>
</g>
<!-- [root] meta.count&#45;boundary (EachMode fixup)&#45;&gt;[root] kubernetes_secret.prometheus_datasource (expand) -->
<g id="edge37" class="edge">
<title>[root] meta.count&#45;boundary (EachMode fixup)&#45;&gt;[root] kubernetes_secret.prometheus_datasource (expand)</title>
<path fill="none" stroke="black" d="M1199.91,-517.83C1327.41,-512.73 1503.25,-499.89 1654.8,-468 1729.98,-452.18 1813.44,-420.87 1864.78,-399.93"/>
<polygon fill="black" stroke="black" points="1866.37,-403.06 1874.29,-396.02 1863.71,-396.59 1866.37,-403.06"/>
</g>
<!-- [root] provider[&quot;registry.terraform.io/hashicorp/helm&quot;] (close) -->
<g id="node26" class="node">
<title>[root] provider[&quot;registry.terraform.io/hashicorp/helm&quot;] (close)</title>
<ellipse fill="none" stroke="black" cx="588.8" cy="-522" rx="236.66" ry="18"/>
<text text-anchor="middle" x="588.8" y="-518.3" font-family="Times,serif" font-size="14.00">[root] provider[&quot;registry.terraform.io/hashicorp/helm&quot;] (close)</text>
</g>
<!-- [root] provider[&quot;registry.terraform.io/hashicorp/helm&quot;] (close)&#45;&gt;[root] helm_release.airbyte (expand) -->
<g id="edge38" class="edge">
<title>[root] provider[&quot;registry.terraform.io/hashicorp/helm&quot;] (close)&#45;&gt;[root] helm_release.airbyte (expand)</title>
<path fill="none" stroke="black" d="M540.43,-504.32C511.76,-494.43 475.2,-481.83 444.83,-471.36"/>
<polygon fill="black" stroke="black" points="445.8,-467.99 435.2,-468.04 443.52,-474.61 445.8,-467.99"/>
</g>
<!-- [root] provider[&quot;registry.terraform.io/hashicorp/helm&quot;] (close)&#45;&gt;[root] helm_release.airflow (expand) -->
<g id="edge39" class="edge">
<title>[root] provider[&quot;registry.terraform.io/hashicorp/helm&quot;] (close)&#45;&gt;[root] helm_release.airflow (expand)</title>
<path fill="none" stroke="black" d="M654.09,-504.68C695.17,-494.41 748.38,-481.1 791.56,-470.31"/>
<polygon fill="black" stroke="black" points="792.6,-473.66 801.45,-467.84 790.9,-466.87 792.6,-473.66"/>
</g>
<!-- [root] provider[&quot;registry.terraform.io/hashicorp/helm&quot;] (close)&#45;&gt;[root] helm_release.grafana (expand) -->
<g id="edge40" class="edge">
<title>[root] provider[&quot;registry.terraform.io/hashicorp/helm&quot;] (close)&#45;&gt;[root] helm_release.grafana (expand)</title>
<path fill="none" stroke="black" d="M619.54,-504.05C636.42,-494.75 657.55,-483.11 675.71,-473.1"/>
<polygon fill="black" stroke="black" points="677.83,-475.92 684.9,-468.03 674.45,-469.79 677.83,-475.92"/>
</g>
<!-- [root] provider[&quot;registry.terraform.io/hashicorp/helm&quot;] (close)&#45;&gt;[root] helm_release.metrics&#45;server (expand) -->
<g id="edge41" class="edge">
<title>[root] provider[&quot;registry.terraform.io/hashicorp/helm&quot;] (close)&#45;&gt;[root] helm_release.metrics&#45;server (expand)</title>
<path fill="none" stroke="black" d="M503.7,-505.12C446.41,-494.42 370.7,-480.29 311.02,-469.15"/>
<polygon fill="black" stroke="black" points="311.3,-465.64 300.83,-467.25 310.02,-472.52 311.3,-465.64"/>
</g>
<!-- [root] provider[&quot;registry.terraform.io/hashicorp/helm&quot;] (close)&#45;&gt;[root] helm_release.prometheus (expand) -->
<g id="edge42" class="edge">
<title>[root] provider[&quot;registry.terraform.io/hashicorp/helm&quot;] (close)&#45;&gt;[root] helm_release.prometheus (expand)</title>
<path fill="none" stroke="black" d="M579.16,-503.7C574.67,-495.64 569.24,-485.89 564.27,-476.98"/>
<polygon fill="black" stroke="black" points="567.25,-475.14 559.33,-468.1 561.14,-478.54 567.25,-475.14"/>
</g>
<!-- [root] provider[&quot;registry.terraform.io/hashicorp/helm&quot;] (close)&#45;&gt;[root] helm_release.superset (expand) -->
<g id="edge43" class="edge">
<title>[root] provider[&quot;registry.terraform.io/hashicorp/helm&quot;] (close)&#45;&gt;[root] helm_release.superset (expand)</title>
<path fill="none" stroke="black" d="M701.34,-506.13C768.93,-496.75 856.84,-483.76 943.61,-468.16"/>
<polygon fill="black" stroke="black" points="944.42,-471.57 953.63,-466.34 943.17,-464.68 944.42,-471.57"/>
</g>
<!-- [root] provider[&quot;registry.terraform.io/hashicorp/kubernetes&quot;] (close) -->
<g id="node27" class="node">
<title>[root] provider[&quot;registry.terraform.io/hashicorp/kubernetes&quot;] (close)</title>
<ellipse fill="none" stroke="black" cx="1369.8" cy="-450" rx="258.05" ry="18"/>
<text text-anchor="middle" x="1369.8" y="-446.3" font-family="Times,serif" font-size="14.00">[root] provider[&quot;registry.terraform.io/hashicorp/kubernetes&quot;] (close)</text>
</g>
<!-- [root] provider[&quot;registry.terraform.io/hashicorp/kubernetes&quot;] (close)&#45;&gt;[root] data.kubernetes_secret.postgresql (expand) -->
<g id="edge45" class="edge">
<title>[root] provider[&quot;registry.terraform.io/hashicorp/kubernetes&quot;] (close)&#45;&gt;[root] data.kubernetes_secret.postgresql (expand)</title>
<path fill="none" stroke="black" d="M1267.49,-433.46C1194.63,-422.4 1096.71,-407.53 1021.59,-396.13"/>
<polygon fill="black" stroke="black" points="1022.03,-392.65 1011.62,-394.61 1020.98,-399.57 1022.03,-392.65"/>
</g>
<!-- [root] provider[&quot;registry.terraform.io/hashicorp/kubernetes&quot;] (close)&#45;&gt;[root] kubernetes_cluster_role_binding.dbt (expand) -->
<g id="edge46" class="edge">
<title>[root] provider[&quot;registry.terraform.io/hashicorp/kubernetes&quot;] (close)&#45;&gt;[root] kubernetes_cluster_role_binding.dbt (expand)</title>
<path fill="none" stroke="black" d="M1556.7,-437.58C1690.65,-428.64 1875.58,-414.76 2047.98,-396.05"/>
<polygon fill="black" stroke="black" points="2048.45,-399.52 2058.01,-394.95 2047.69,-392.56 2048.45,-399.52"/>
</g>
<!-- [root] provider[&quot;registry.terraform.io/hashicorp/kubernetes&quot;] (close)&#45;&gt;[root] kubernetes_config_map.prometheus_dashboard (expand) -->
<g id="edge47" class="edge">
<title>[root] provider[&quot;registry.terraform.io/hashicorp/kubernetes&quot;] (close)&#45;&gt;[root] kubernetes_config_map.prometheus_dashboard (expand)</title>
<path fill="none" stroke="black" d="M1430.61,-432.5C1467.83,-422.4 1515.68,-409.42 1554.92,-398.77"/>
<polygon fill="black" stroke="black" points="1555.96,-402.12 1564.7,-396.12 1554.13,-395.36 1555.96,-402.12"/>
</g>
<!-- [root] provider[&quot;registry.terraform.io/hashicorp/kubernetes&quot;] (close)&#45;&gt;[root] kubernetes_namespace.airbyte (expand) -->
<g id="edge48" class="edge">
<title>[root] provider[&quot;registry.terraform.io/hashicorp/kubernetes&quot;] (close)&#45;&gt;[root] kubernetes_namespace.airbyte (expand)</title>
<path fill="none" stroke="black" d="M1186.67,-437.31C1158.58,-435.53 1129.92,-433.71 1102.8,-432 850.06,-416.06 783.35,-424.7 527.99,-396.07"/>
<polygon fill="black" stroke="black" points="528.37,-392.59 518.04,-394.95 527.59,-399.55 528.37,-392.59"/>
</g>
<!-- [root] provider[&quot;registry.terraform.io/hashicorp/kubernetes&quot;] (close)&#45;&gt;[root] kubernetes_namespace.prometheus (expand) -->
<g id="edge49" class="edge">
<title>[root] provider[&quot;registry.terraform.io/hashicorp/kubernetes&quot;] (close)&#45;&gt;[root] kubernetes_namespace.prometheus (expand)</title>
<path fill="none" stroke="black" d="M1216.48,-435.5C1101.26,-425.18 939.57,-410.34 797.8,-396 785.58,-394.76 772.82,-393.43 760.1,-392.08"/>
<polygon fill="black" stroke="black" points="760.23,-388.57 749.92,-390.99 759.49,-395.53 760.23,-388.57"/>
</g>
<!-- [root] provider[&quot;registry.terraform.io/hashicorp/kubernetes&quot;] (close)&#45;&gt;[root] kubernetes_namespace.superset (expand) -->
<g id="edge50" class="edge">
<title>[root] provider[&quot;registry.terraform.io/hashicorp/kubernetes&quot;] (close)&#45;&gt;[root] kubernetes_namespace.superset (expand)</title>
<path fill="none" stroke="black" d="M1369.8,-431.7C1369.8,-423.98 1369.8,-414.71 1369.8,-406.11"/>
<polygon fill="black" stroke="black" points="1373.3,-406.1 1369.8,-396.1 1366.3,-406.1 1373.3,-406.1"/>
</g>
<!-- [root] provider[&quot;registry.terraform.io/hashicorp/kubernetes&quot;] (close)&#45;&gt;[root] kubernetes_secret.airflow_webserver (expand) -->
<g id="edge51" class="edge">
<title>[root] provider[&quot;registry.terraform.io/hashicorp/kubernetes&quot;] (close)&#45;&gt;[root] kubernetes_secret.airflow_webserver (expand)</title>
<path fill="none" stroke="black" d="M1315.48,-432.32C1282.99,-422.35 1241.5,-409.61 1207.21,-399.08"/>
<polygon fill="black" stroke="black" points="1207.87,-395.63 1197.29,-396.04 1205.82,-402.32 1207.87,-395.63"/>
</g>
<!-- [root] provider[&quot;registry.terraform.io/hashicorp/kubernetes&quot;] (close)&#45;&gt;[root] kubernetes_secret.prometheus_datasource (expand) -->
<g id="edge52" class="edge">
<title>[root] provider[&quot;registry.terraform.io/hashicorp/kubernetes&quot;] (close)&#45;&gt;[root] kubernetes_secret.prometheus_datasource (expand)</title>
<path fill="none" stroke="black" d="M1486.83,-433.94C1572.16,-422.96 1688.03,-408.05 1777.53,-396.53"/>
<polygon fill="black" stroke="black" points="1778.01,-400 1787.48,-395.25 1777.12,-393.06 1778.01,-400"/>
</g>
<!-- [root] provider[&quot;registry.terraform.io/kyma&#45;incubator/kind&quot;] (close) -->
<g id="node28" class="node">
<title>[root] provider[&quot;registry.terraform.io/kyma&#45;incubator/kind&quot;] (close)</title>
<ellipse fill="none" stroke="black" cx="2100.8" cy="-162" rx="257.25" ry="18"/>
<text text-anchor="middle" x="2100.8" y="-158.3" font-family="Times,serif" font-size="14.00">[root] provider[&quot;registry.terraform.io/kyma&#45;incubator/kind&quot;] (close)</text>
</g>
<!-- [root] provider[&quot;registry.terraform.io/kyma&#45;incubator/kind&quot;] (close)&#45;&gt;[root] kind_cluster.default (expand) -->
<g id="edge54" class="edge">
<title>[root] provider[&quot;registry.terraform.io/kyma&#45;incubator/kind&quot;] (close)&#45;&gt;[root] kind_cluster.default (expand)</title>
<path fill="none" stroke="black" d="M1949.41,-147.38C1783.06,-132.41 1522.75,-108.99 1396.45,-97.63"/>
<polygon fill="black" stroke="black" points="1396.76,-94.14 1386.49,-96.73 1396.14,-101.11 1396.76,-94.14"/>
</g>
<!-- [root] root -->
<g id="node29" class="node">
<title>[root] root</title>
<ellipse fill="none" stroke="black" cx="1196.8" cy="-594" rx="48.19" ry="18"/>
<text text-anchor="middle" x="1196.8" y="-590.3" font-family="Times,serif" font-size="14.00">[root] root</text>
</g>
<!-- [root] root&#45;&gt;[root] meta.count&#45;boundary (EachMode fixup) -->
<g id="edge55" class="edge">
<title>[root] root&#45;&gt;[root] meta.count&#45;boundary (EachMode fixup)</title>
<path fill="none" stroke="black" d="M1165.47,-580.32C1139.99,-570.01 1103.55,-555.27 1074.01,-543.32"/>
<polygon fill="black" stroke="black" points="1075.26,-540.05 1064.68,-539.54 1072.64,-546.54 1075.26,-540.05"/>
</g>
<!-- [root] root&#45;&gt;[root] provider[&quot;registry.terraform.io/hashicorp/helm&quot;] (close) -->
<g id="edge56" class="edge">
<title>[root] root&#45;&gt;[root] provider[&quot;registry.terraform.io/hashicorp/helm&quot;] (close)</title>
<path fill="none" stroke="black" d="M1151.6,-587.8C1062.12,-577.49 859.35,-554.15 723.25,-538.48"/>
<polygon fill="black" stroke="black" points="723.49,-534.98 713.16,-537.32 722.69,-541.94 723.49,-534.98"/>
</g>
<!-- [root] root&#45;&gt;[root] provider[&quot;registry.terraform.io/hashicorp/kubernetes&quot;] (close) -->
<g id="edge57" class="edge">
<title>[root] root&#45;&gt;[root] provider[&quot;registry.terraform.io/hashicorp/kubernetes&quot;] (close)</title>
<path fill="none" stroke="black" d="M1215.97,-577.26C1246.27,-552.39 1305.41,-503.85 1340.88,-474.74"/>
<polygon fill="black" stroke="black" points="1343.42,-477.18 1348.92,-468.13 1338.97,-471.77 1343.42,-477.18"/>
</g>
<!-- [root] root&#45;&gt;[root] provider[&quot;registry.terraform.io/kyma&#45;incubator/kind&quot;] (close) -->
<g id="edge58" class="edge">
<title>[root] root&#45;&gt;[root] provider[&quot;registry.terraform.io/kyma&#45;incubator/kind&quot;] (close)</title>
<path fill="none" stroke="black" d="M1244.89,-591.99C1458.14,-586.91 2307.8,-559.83 2307.8,-451 2307.8,-451 2307.8,-451 2307.8,-305 2307.8,-239.98 2237.49,-202.52 2178.83,-182.57"/>
<polygon fill="black" stroke="black" points="2179.74,-179.19 2169.15,-179.4 2177.56,-185.84 2179.74,-179.19"/>
</g>
</g>
</svg>
