<?xml version="1.0" encoding="UTF-8" standalone="no"?>
<!DOCTYPE svg PUBLIC "-//W3C//DTD SVG 1.1//EN"
 "http://www.w3.org/Graphics/SVG/1.1/DTD/svg11.dtd">
<!-- Generated by graphviz version 2.40.1 (0)
 -->
<!-- Title: %3 Pages: 1 -->
<svg width="1740pt" height="332pt"
 viewBox="0.00 0.00 1740.48 332.00" xmlns="http://www.w3.org/2000/svg" xmlns:xlink="http://www.w3.org/1999/xlink">
<g id="graph0" class="graph" transform="scale(1 1) rotate(0) translate(4 328)">
<title>%3</title>
<polygon fill="#ffffff" stroke="transparent" points="-4,4 -4,-328 1736.4815,-328 1736.4815,4 -4,4"/>
<!-- [root] aws_s3_bucket.s3 (expand) -->
<g id="node1" class="node">
<title>[root] aws_s3_bucket.s3 (expand)</title>
<polygon fill="none" stroke="#000000" points="280.9815,-180 134.9815,-180 134.9815,-144 280.9815,-144 280.9815,-180"/>
<text text-anchor="middle" x="207.9815" y="-158.3" font-family="Times,serif" font-size="14.00" fill="#000000">aws_s3_bucket.s3</text>
</g>
<!-- [root] provider[&quot;registry.terraform.io/hashicorp/aws&quot;] -->
<g id="node8" class="node">
<title>[root] provider[&quot;registry.terraform.io/hashicorp/aws&quot;]</title>
<polygon fill="none" stroke="#000000" points="765.9815,-36 438.5414,-18 765.9815,0 1093.4217,-18 765.9815,-36"/>
<text text-anchor="middle" x="765.9815" y="-14.3" font-family="Times,serif" font-size="14.00" fill="#000000">provider[&quot;registry.terraform.io/hashicorp/aws&quot;]</text>
</g>
<!-- [root] aws_s3_bucket.s3 (expand)&#45;&gt;[root] provider[&quot;registry.terraform.io/hashicorp/aws&quot;] -->
<g id="edge1" class="edge">
<title>[root] aws_s3_bucket.s3 (expand)&#45;&gt;[root] provider[&quot;registry.terraform.io/hashicorp/aws&quot;]</title>
<path fill="none" stroke="#000000" d="M226.8515,-143.9864C250.2063,-122.8664 292.1597,-88.6375 334.9815,-72 384.7263,-52.6727 511.2112,-38.2103 614.3746,-29.1412"/>
<polygon fill="#000000" stroke="#000000" points="614.9396,-32.6054 624.5992,-28.2532 614.3338,-25.6317 614.9396,-32.6054"/>
</g>
<!-- [root] aws_secretsmanager_secret.airflow_connection_airbyte (expand) -->
<g id="node2" class="node">
<title>[root] aws_secretsmanager_secret.airflow_connection_airbyte (expand)</title>
<polygon fill="none" stroke="#000000" points="763.4815,-108 344.4815,-108 344.4815,-72 763.4815,-72 763.4815,-108"/>
<text text-anchor="middle" x="553.9815" y="-86.3" font-family="Times,serif" font-size="14.00" fill="#000000">aws_secretsmanager_secret.airflow_connection_airbyte</text>
</g>
<!-- [root] aws_secretsmanager_secret.airflow_connection_airbyte (expand)&#45;&gt;[root] provider[&quot;registry.terraform.io/hashicorp/aws&quot;] -->
<g id="edge2" class="edge">
<title>[root] aws_secretsmanager_secret.airflow_connection_airbyte (expand)&#45;&gt;[root] provider[&quot;registry.terraform.io/hashicorp/aws&quot;]</title>
<path fill="none" stroke="#000000" d="M607.2045,-71.9243C638.7724,-61.2031 678.7246,-47.6344 710.6549,-36.7902"/>
<polygon fill="#000000" stroke="#000000" points="711.9453,-40.0484 720.2886,-33.5184 709.6942,-33.4202 711.9453,-40.0484"/>
</g>
<!-- [root] aws_secretsmanager_secret.airflow_connection_aws (expand) -->
<g id="node3" class="node">
<title>[root] aws_secretsmanager_secret.airflow_connection_aws (expand)</title>
<polygon fill="none" stroke="#000000" points="1206.4815,-108 811.4815,-108 811.4815,-72 1206.4815,-72 1206.4815,-108"/>
<text text-anchor="middle" x="1008.9815" y="-86.3" font-family="Times,serif" font-size="14.00" fill="#000000">aws_secretsmanager_secret.airflow_connection_aws</text>
</g>
<!-- [root] aws_secretsmanager_secret.airflow_connection_aws (expand)&#45;&gt;[root] provider[&quot;registry.terraform.io/hashicorp/aws&quot;] -->
<g id="edge3" class="edge">
<title>[root] aws_secretsmanager_secret.airflow_connection_aws (expand)&#45;&gt;[root] provider[&quot;registry.terraform.io/hashicorp/aws&quot;]</title>
<path fill="none" stroke="#000000" d="M947.976,-71.9243C911.0661,-60.988 864.1562,-47.0888 827.2067,-36.1408"/>
<polygon fill="#000000" stroke="#000000" points="828.1362,-32.7659 817.5539,-33.2807 826.1476,-39.4775 828.1362,-32.7659"/>
</g>
<!-- [root] aws_secretsmanager_secret.airflow_connection_imap (expand) -->
<g id="node4" class="node">
<title>[root] aws_secretsmanager_secret.airflow_connection_imap (expand)</title>
<polygon fill="none" stroke="#000000" points="1672.4815,-108 1269.4815,-108 1269.4815,-72 1672.4815,-72 1672.4815,-108"/>
<text text-anchor="middle" x="1470.9815" y="-86.3" font-family="Times,serif" font-size="14.00" fill="#000000">aws_secretsmanager_secret.airflow_connection_imap</text>
</g>
<!-- [root] aws_secretsmanager_secret.airflow_connection_imap (expand)&#45;&gt;[root] provider[&quot;registry.terraform.io/hashicorp/aws&quot;] -->
<g id="edge4" class="edge">
<title>[root] aws_secretsmanager_secret.airflow_connection_imap (expand)&#45;&gt;[root] provider[&quot;registry.terraform.io/hashicorp/aws&quot;]</title>
<path fill="none" stroke="#000000" d="M1294.4447,-71.9707C1168.7422,-59.133 1002.8877,-42.1947 890.7676,-30.7441"/>
<polygon fill="#000000" stroke="#000000" points="891.0692,-27.2568 880.7654,-29.7226 890.358,-34.2206 891.0692,-27.2568"/>
</g>
<!-- [root] aws_secretsmanager_secret_version.airflow_connection_airbyte (expand) -->
<g id="node5" class="node">
<title>[root] aws_secretsmanager_secret_version.airflow_connection_airbyte (expand)</title>
<polygon fill="none" stroke="#000000" points="778.4815,-180 299.4815,-180 299.4815,-144 778.4815,-144 778.4815,-180"/>
<text text-anchor="middle" x="538.9815" y="-158.3" font-family="Times,serif" font-size="14.00" fill="#000000">aws_secretsmanager_secret_version.airflow_connection_airbyte</text>
</g>
<!-- [root] aws_secretsmanager_secret_version.airflow_connection_airbyte (expand)&#45;&gt;[root] aws_secretsmanager_secret.airflow_connection_airbyte (expand) -->
<g id="edge5" class="edge">
<title>[root] aws_secretsmanager_secret_version.airflow_connection_airbyte (expand)&#45;&gt;[root] aws_secretsmanager_secret.airflow_connection_airbyte (expand)</title>
<path fill="none" stroke="#000000" d="M542.7667,-143.8314C544.3709,-136.131 546.2786,-126.9743 548.0614,-118.4166"/>
<polygon fill="#000000" stroke="#000000" points="551.5323,-118.9169 550.1454,-108.4133 544.6794,-117.4892 551.5323,-118.9169"/>
</g>
<!-- [root] aws_secretsmanager_secret_version.airflow_connection_aws (expand) -->
<g id="node6" class="node">
<title>[root] aws_secretsmanager_secret_version.airflow_connection_aws (expand)</title>
<polygon fill="none" stroke="#000000" points="1251.4815,-180 796.4815,-180 796.4815,-144 1251.4815,-144 1251.4815,-180"/>
<text text-anchor="middle" x="1023.9815" y="-158.3" font-family="Times,serif" font-size="14.00" fill="#000000">aws_secretsmanager_secret_version.airflow_connection_aws</text>
</g>
<!-- [root] aws_secretsmanager_secret_version.airflow_connection_aws (expand)&#45;&gt;[root] aws_secretsmanager_secret.airflow_connection_aws (expand) -->
<g id="edge6" class="edge">
<title>[root] aws_secretsmanager_secret_version.airflow_connection_aws (expand)&#45;&gt;[root] aws_secretsmanager_secret.airflow_connection_aws (expand)</title>
<path fill="none" stroke="#000000" d="M1020.1964,-143.8314C1018.5922,-136.131 1016.6845,-126.9743 1014.9017,-118.4166"/>
<polygon fill="#000000" stroke="#000000" points="1018.2837,-117.4892 1012.8176,-108.4133 1011.4308,-118.9169 1018.2837,-117.4892"/>
</g>
<!-- [root] aws_secretsmanager_secret_version.airflow_connection_imap (expand) -->
<g id="node7" class="node">
<title>[root] aws_secretsmanager_secret_version.airflow_connection_imap (expand)</title>
<polygon fill="none" stroke="#000000" points="1732.4815,-180 1269.4815,-180 1269.4815,-144 1732.4815,-144 1732.4815,-180"/>
<text text-anchor="middle" x="1500.9815" y="-158.3" font-family="Times,serif" font-size="14.00" fill="#000000">aws_secretsmanager_secret_version.airflow_connection_imap</text>
</g>
<!-- [root] aws_secretsmanager_secret_version.airflow_connection_imap (expand)&#45;&gt;[root] aws_secretsmanager_secret.airflow_connection_imap (expand) -->
<g id="edge7" class="edge">
<title>[root] aws_secretsmanager_secret_version.airflow_connection_imap (expand)&#45;&gt;[root] aws_secretsmanager_secret.airflow_connection_imap (expand)</title>
<path fill="none" stroke="#000000" d="M1493.4113,-143.8314C1490.1323,-135.9617 1486.2195,-126.5712 1482.5871,-117.8533"/>
<polygon fill="#000000" stroke="#000000" points="1485.7307,-116.2979 1478.6537,-108.4133 1479.2692,-118.9902 1485.7307,-116.2979"/>
</g>
<!-- [root] output.data&#45;lake&#45;s3&#45;bucket (expand) -->
<g id="node9" class="node">
<title>[root] output.data&#45;lake&#45;s3&#45;bucket (expand)</title>
<ellipse fill="none" stroke="#000000" cx="207.9815" cy="-234" rx="207.9631" ry="18"/>
<text text-anchor="middle" x="207.9815" y="-230.3" font-family="Times,serif" font-size="14.00" fill="#000000">[root] output.data&#45;lake&#45;s3&#45;bucket (expand)</text>
</g>
<!-- [root] output.data&#45;lake&#45;s3&#45;bucket (expand)&#45;&gt;[root] aws_s3_bucket.s3 (expand) -->
<g id="edge8" class="edge">
<title>[root] output.data&#45;lake&#45;s3&#45;bucket (expand)&#45;&gt;[root] aws_s3_bucket.s3 (expand)</title>
<path fill="none" stroke="#000000" d="M207.9815,-215.8314C207.9815,-208.131 207.9815,-198.9743 207.9815,-190.4166"/>
<polygon fill="#000000" stroke="#000000" points="211.4816,-190.4132 207.9815,-180.4133 204.4816,-190.4133 211.4816,-190.4132"/>
</g>
<!-- [root] provider[&quot;registry.terraform.io/hashicorp/aws&quot;] (close) -->
<g id="node10" class="node">
<title>[root] provider[&quot;registry.terraform.io/hashicorp/aws&quot;] (close)</title>
<ellipse fill="none" stroke="#000000" cx="727.9815" cy="-234" rx="293.548" ry="18"/>
<text text-anchor="middle" x="727.9815" y="-230.3" font-family="Times,serif" font-size="14.00" fill="#000000">[root] provider[&quot;registry.terraform.io/hashicorp/aws&quot;] (close)</text>
</g>
<!-- [root] provider[&quot;registry.terraform.io/hashicorp/aws&quot;] (close)&#45;&gt;[root] aws_s3_bucket.s3 (expand) -->
<g id="edge9" class="edge">
<title>[root] provider[&quot;registry.terraform.io/hashicorp/aws&quot;] (close)&#45;&gt;[root] aws_s3_bucket.s3 (expand)</title>
<path fill="none" stroke="#000000" d="M574.4283,-218.621C492.8851,-209.5916 390.8251,-196.927 291.1784,-180.1269"/>
<polygon fill="#000000" stroke="#000000" points="291.678,-176.6617 281.2326,-178.4348 290.5039,-183.5625 291.678,-176.6617"/>
</g>
<!-- [root] provider[&quot;registry.terraform.io/hashicorp/aws&quot;] (close)&#45;&gt;[root] aws_secretsmanager_secret_version.airflow_connection_airbyte (expand) -->
<g id="edge10" class="edge">
<title>[root] provider[&quot;registry.terraform.io/hashicorp/aws&quot;] (close)&#45;&gt;[root] aws_secretsmanager_secret_version.airflow_connection_airbyte (expand)</title>
<path fill="none" stroke="#000000" d="M681.2624,-216.2022C655.4475,-206.368 623.1769,-194.0744 595.8979,-183.6824"/>
<polygon fill="#000000" stroke="#000000" points="597.0669,-180.3824 586.476,-180.0931 594.5749,-186.9238 597.0669,-180.3824"/>
</g>
<!-- [root] provider[&quot;registry.terraform.io/hashicorp/aws&quot;] (close)&#45;&gt;[root] aws_secretsmanager_secret_version.airflow_connection_aws (expand) -->
<g id="edge11" class="edge">
<title>[root] provider[&quot;registry.terraform.io/hashicorp/aws&quot;] (close)&#45;&gt;[root] aws_secretsmanager_secret_version.airflow_connection_aws (expand)</title>
<path fill="none" stroke="#000000" d="M800.0128,-216.4789C842.2523,-206.2044 895.8186,-193.1748 939.9734,-182.4344"/>
<polygon fill="#000000" stroke="#000000" points="940.9318,-185.8034 949.8213,-180.039 939.2773,-179.0017 940.9318,-185.8034"/>
</g>
<!-- [root] provider[&quot;registry.terraform.io/hashicorp/aws&quot;] (close)&#45;&gt;[root] aws_secretsmanager_secret_version.airflow_connection_imap (expand) -->
<g id="edge12" class="edge">
<title>[root] provider[&quot;registry.terraform.io/hashicorp/aws&quot;] (close)&#45;&gt;[root] aws_secretsmanager_secret_version.airflow_connection_imap (expand)</title>
<path fill="none" stroke="#000000" d="M889.557,-218.9503C1008.0603,-207.9125 1169.8303,-192.8446 1297.207,-180.9803"/>
<polygon fill="#000000" stroke="#000000" points="1297.8461,-184.436 1307.4784,-180.0236 1297.1968,-177.4662 1297.8461,-184.436"/>
</g>
<!-- [root] root -->
<g id="node11" class="node">
<title>[root] root</title>
<ellipse fill="none" stroke="#000000" cx="467.9815" cy="-306" rx="58.4896" ry="18"/>
<text text-anchor="middle" x="467.9815" y="-302.3" font-family="Times,serif" font-size="14.00" fill="#000000">[root] root</text>
</g>
<!-- [root] root&#45;&gt;[root] output.data&#45;lake&#45;s3&#45;bucket (expand) -->
<g id="edge13" class="edge">
<title>[root] root&#45;&gt;[root] output.data&#45;lake&#45;s3&#45;bucket (expand)</title>
<path fill="none" stroke="#000000" d="M424.4634,-293.9488C385.0545,-283.0356 326.2404,-266.7486 279.8574,-253.9041"/>
<polygon fill="#000000" stroke="#000000" points="280.7313,-250.5144 270.1599,-251.2186 278.8631,-257.2605 280.7313,-250.5144"/>
</g>
<!-- [root] root&#45;&gt;[root] provider[&quot;registry.terraform.io/hashicorp/aws&quot;] (close) -->
<g id="edge14" class="edge">
<title>[root] root&#45;&gt;[root] provider[&quot;registry.terraform.io/hashicorp/aws&quot;] (close)</title>
<path fill="none" stroke="#000000" d="M511.4997,-293.9488C550.5037,-283.1477 608.5163,-267.0827 654.6722,-254.3011"/>
<polygon fill="#000000" stroke="#000000" points="655.6271,-257.6684 664.3303,-251.6265 653.7589,-250.9223 655.6271,-257.6684"/>
</g>
</g>
</svg>
