<?xml version="1.0" encoding="UTF-8" standalone="no"?>
<!DOCTYPE svg PUBLIC "-//W3C//DTD SVG 1.1//EN"
 "http://www.w3.org/Graphics/SVG/1.1/DTD/svg11.dtd">
<!-- Generated by graphviz version 2.40.1 (0)
 -->
<!-- Title: %3 Pages: 1 -->
<svg width="1637pt" height="332pt"
 viewBox="0.00 0.00 1637.00 332.00" xmlns="http://www.w3.org/2000/svg" xmlns:xlink="http://www.w3.org/1999/xlink">
<g id="graph0" class="graph" transform="scale(1 1) rotate(0) translate(4 328)">
<title>%3</title>
<polygon fill="#ffffff" stroke="transparent" points="-4,4 -4,-328 1633,-328 1633,4 -4,4"/>
<!-- [root] aws_s3_bucket.s3 (expand) -->
<g id="node1" class="node">
<title>[root] aws_s3_bucket.s3 (expand)</title>
<polygon fill="none" stroke="#000000" points="177.5,-180 31.5,-180 31.5,-144 177.5,-144 177.5,-180"/>
<text text-anchor="middle" x="104.5" y="-158.3" font-family="Times,serif" font-size="14.00" fill="#000000">aws_s3_bucket.s3</text>
</g>
<!-- [root] provider[&quot;registry.terraform.io/hashicorp/aws&quot;] -->
<g id="node9" class="node">
<title>[root] provider[&quot;registry.terraform.io/hashicorp/aws&quot;]</title>
<polygon fill="none" stroke="#000000" points="662.5,-36 335.0599,-18 662.5,0 989.9401,-18 662.5,-36"/>
<text text-anchor="middle" x="662.5" y="-14.3" font-family="Times,serif" font-size="14.00" fill="#000000">provider[&quot;registry.terraform.io/hashicorp/aws&quot;]</text>
</g>
<!-- [root] aws_s3_bucket.s3 (expand)&#45;&gt;[root] provider[&quot;registry.terraform.io/hashicorp/aws&quot;] -->
<g id="edge1" class="edge">
<title>[root] aws_s3_bucket.s3 (expand)&#45;&gt;[root] provider[&quot;registry.terraform.io/hashicorp/aws&quot;]</title>
<path fill="none" stroke="#000000" d="M123.3699,-143.9864C146.7248,-122.8664 188.6782,-88.6375 231.5,-72 281.2448,-52.6727 407.7296,-38.2103 510.893,-29.1412"/>
<polygon fill="#000000" stroke="#000000" points="511.458,-32.6054 521.1177,-28.2532 510.8523,-25.6317 511.458,-32.6054"/>
</g>
<!-- [root] aws_secretsmanager_secret.airflow_connection_airbyte (expand) -->
<g id="node2" class="node">
<title>[root] aws_secretsmanager_secret.airflow_connection_airbyte (expand)</title>
<polygon fill="none" stroke="#000000" points="660,-108 241,-108 241,-72 660,-72 660,-108"/>
<text text-anchor="middle" x="450.5" y="-86.3" font-family="Times,serif" font-size="14.00" fill="#000000">aws_secretsmanager_secret.airflow_connection_airbyte</text>
</g>
<!-- [root] aws_secretsmanager_secret.airflow_connection_airbyte (expand)&#45;&gt;[root] provider[&quot;registry.terraform.io/hashicorp/aws&quot;] -->
<g id="edge2" class="edge">
<title>[root] aws_secretsmanager_secret.airflow_connection_airbyte (expand)&#45;&gt;[root] provider[&quot;registry.terraform.io/hashicorp/aws&quot;]</title>
<path fill="none" stroke="#000000" d="M503.7229,-71.9243C535.2908,-61.2031 575.2431,-47.6344 607.1733,-36.7902"/>
<polygon fill="#000000" stroke="#000000" points="608.4638,-40.0484 616.807,-33.5184 606.2126,-33.4202 608.4638,-40.0484"/>
</g>
<!-- [root] aws_secretsmanager_secret.airflow_connection_aws (expand) -->
<g id="node3" class="node">
<title>[root] aws_secretsmanager_secret.airflow_connection_aws (expand)</title>
<polygon fill="none" stroke="#000000" points="1103,-108 708,-108 708,-72 1103,-72 1103,-108"/>
<text text-anchor="middle" x="905.5" y="-86.3" font-family="Times,serif" font-size="14.00" fill="#000000">aws_secretsmanager_secret.airflow_connection_aws</text>
</g>
<!-- [root] aws_secretsmanager_secret.airflow_connection_aws (expand)&#45;&gt;[root] provider[&quot;registry.terraform.io/hashicorp/aws&quot;] -->
<g id="edge3" class="edge">
<title>[root] aws_secretsmanager_secret.airflow_connection_aws (expand)&#45;&gt;[root] provider[&quot;registry.terraform.io/hashicorp/aws&quot;]</title>
<path fill="none" stroke="#000000" d="M844.4945,-71.9243C807.5845,-60.988 760.6747,-47.0888 723.7251,-36.1408"/>
<polygon fill="#000000" stroke="#000000" points="724.6547,-32.7659 714.0724,-33.2807 722.666,-39.4775 724.6547,-32.7659"/>
</g>
<!-- [root] aws_secretsmanager_secret.airflow_connection_imap (expand) -->
<g id="node4" class="node">
<title>[root] aws_secretsmanager_secret.airflow_connection_imap (expand)</title>
<polygon fill="none" stroke="#000000" points="1569,-108 1166,-108 1166,-72 1569,-72 1569,-108"/>
<text text-anchor="middle" x="1367.5" y="-86.3" font-family="Times,serif" font-size="14.00" fill="#000000">aws_secretsmanager_secret.airflow_connection_imap</text>
</g>
<!-- [root] aws_secretsmanager_secret.airflow_connection_imap (expand)&#45;&gt;[root] provider[&quot;registry.terraform.io/hashicorp/aws&quot;] -->
<g id="edge4" class="edge">
<title>[root] aws_secretsmanager_secret.airflow_connection_imap (expand)&#45;&gt;[root] provider[&quot;registry.terraform.io/hashicorp/aws&quot;]</title>
<path fill="none" stroke="#000000" d="M1190.9632,-71.9707C1065.2606,-59.133 899.4061,-42.1947 787.2861,-30.7441"/>
<polygon fill="#000000" stroke="#000000" points="787.5877,-27.2568 777.2838,-29.7226 786.8764,-34.2206 787.5877,-27.2568"/>
</g>
<!-- [root] aws_secretsmanager_secret_version.airflow_connection_airbyte (expand) -->
<g id="node5" class="node">
<title>[root] aws_secretsmanager_secret_version.airflow_connection_airbyte (expand)</title>
<polygon fill="none" stroke="#000000" points="675,-180 196,-180 196,-144 675,-144 675,-180"/>
<text text-anchor="middle" x="435.5" y="-158.3" font-family="Times,serif" font-size="14.00" fill="#000000">aws_secretsmanager_secret_version.airflow_connection_airbyte</text>
</g>
<!-- [root] aws_secretsmanager_secret_version.airflow_connection_airbyte (expand)&#45;&gt;[root] aws_secretsmanager_secret.airflow_connection_airbyte (expand) -->
<g id="edge5" class="edge">
<title>[root] aws_secretsmanager_secret_version.airflow_connection_airbyte (expand)&#45;&gt;[root] aws_secretsmanager_secret.airflow_connection_airbyte (expand)</title>
<path fill="none" stroke="#000000" d="M439.2851,-143.8314C440.8894,-136.131 442.797,-126.9743 444.5799,-118.4166"/>
<polygon fill="#000000" stroke="#000000" points="448.0507,-118.9169 446.6639,-108.4133 441.1979,-117.4892 448.0507,-118.9169"/>
</g>
<!-- [root] aws_secretsmanager_secret_version.airflow_connection_aws (expand) -->
<g id="node6" class="node">
<title>[root] aws_secretsmanager_secret_version.airflow_connection_aws (expand)</title>
<polygon fill="none" stroke="#000000" points="1148,-180 693,-180 693,-144 1148,-144 1148,-180"/>
<text text-anchor="middle" x="920.5" y="-158.3" font-family="Times,serif" font-size="14.00" fill="#000000">aws_secretsmanager_secret_version.airflow_connection_aws</text>
</g>
<!-- [root] aws_secretsmanager_secret_version.airflow_connection_aws (expand)&#45;&gt;[root] aws_secretsmanager_secret.airflow_connection_aws (expand) -->
<g id="edge6" class="edge">
<title>[root] aws_secretsmanager_secret_version.airflow_connection_aws (expand)&#45;&gt;[root] aws_secretsmanager_secret.airflow_connection_aws (expand)</title>
<path fill="none" stroke="#000000" d="M916.7149,-143.8314C915.1106,-136.131 913.203,-126.9743 911.4201,-118.4166"/>
<polygon fill="#000000" stroke="#000000" points="914.8021,-117.4892 909.3361,-108.4133 907.9493,-118.9169 914.8021,-117.4892"/>
</g>
<!-- [root] aws_secretsmanager_secret_version.airflow_connection_imap (expand) -->
<g id="node7" class="node">
<title>[root] aws_secretsmanager_secret_version.airflow_connection_imap (expand)</title>
<polygon fill="none" stroke="#000000" points="1629,-180 1166,-180 1166,-144 1629,-144 1629,-180"/>
<text text-anchor="middle" x="1397.5" y="-158.3" font-family="Times,serif" font-size="14.00" fill="#000000">aws_secretsmanager_secret_version.airflow_connection_imap</text>
</g>
<!-- [root] aws_secretsmanager_secret_version.airflow_connection_imap (expand)&#45;&gt;[root] aws_secretsmanager_secret.airflow_connection_imap (expand) -->
<g id="edge7" class="edge">
<title>[root] aws_secretsmanager_secret_version.airflow_connection_imap (expand)&#45;&gt;[root] aws_secretsmanager_secret.airflow_connection_imap (expand)</title>
<path fill="none" stroke="#000000" d="M1389.9297,-143.8314C1386.6507,-135.9617 1382.738,-126.5712 1379.1055,-117.8533"/>
<polygon fill="#000000" stroke="#000000" points="1382.2492,-116.2979 1375.1722,-108.4133 1375.7876,-118.9902 1382.2492,-116.2979"/>
</g>
<!-- [root] output.data&#45;lake&#45;s3&#45;bucket -->
<g id="node8" class="node">
<title>[root] output.data&#45;lake&#45;s3&#45;bucket</title>
<polygon fill="none" stroke="#000000" points="203,-252 0,-252 0,-216 209,-216 209,-246 203,-252"/>
<polyline fill="none" stroke="#000000" points="203,-252 203,-246 "/>
<polyline fill="none" stroke="#000000" points="209,-246 203,-246 "/>
<text text-anchor="middle" x="104.5" y="-230.3" font-family="Times,serif" font-size="14.00" fill="#000000">output.data&#45;lake&#45;s3&#45;bucket</text>
</g>
<!-- [root] output.data&#45;lake&#45;s3&#45;bucket&#45;&gt;[root] aws_s3_bucket.s3 (expand) -->
<g id="edge8" class="edge">
<title>[root] output.data&#45;lake&#45;s3&#45;bucket&#45;&gt;[root] aws_s3_bucket.s3 (expand)</title>
<path fill="none" stroke="#000000" d="M104.5,-215.8314C104.5,-208.131 104.5,-198.9743 104.5,-190.4166"/>
<polygon fill="#000000" stroke="#000000" points="108.0001,-190.4132 104.5,-180.4133 101.0001,-190.4133 108.0001,-190.4132"/>
</g>
<!-- [root] provider[&quot;registry.terraform.io/hashicorp/aws&quot;] (close) -->
<g id="node10" class="node">
<title>[root] provider[&quot;registry.terraform.io/hashicorp/aws&quot;] (close)</title>
<ellipse fill="none" stroke="#000000" cx="520.5" cy="-234" rx="293.548" ry="18"/>
<text text-anchor="middle" x="520.5" y="-230.3" font-family="Times,serif" font-size="14.00" fill="#000000">[root] provider[&quot;registry.terraform.io/hashicorp/aws&quot;] (close)</text>
</g>
<!-- [root] provider[&quot;registry.terraform.io/hashicorp/aws&quot;] (close)&#45;&gt;[root] aws_s3_bucket.s3 (expand) -->
<g id="edge9" class="edge">
<title>[root] provider[&quot;registry.terraform.io/hashicorp/aws&quot;] (close)&#45;&gt;[root] aws_s3_bucket.s3 (expand)</title>
<path fill="none" stroke="#000000" d="M407.7489,-217.3734C345.541,-207.8162 266.7003,-195.0787 187.887,-180.2158"/>
<polygon fill="#000000" stroke="#000000" points="188.2532,-176.7229 177.7759,-178.2972 186.9481,-183.6002 188.2532,-176.7229"/>
</g>
<!-- [root] provider[&quot;registry.terraform.io/hashicorp/aws&quot;] (close)&#45;&gt;[root] aws_secretsmanager_secret_version.airflow_connection_airbyte (expand) -->
<g id="edge10" class="edge">
<title>[root] provider[&quot;registry.terraform.io/hashicorp/aws&quot;] (close)&#45;&gt;[root] aws_secretsmanager_secret_version.airflow_connection_airbyte (expand)</title>
<path fill="none" stroke="#000000" d="M499.0509,-215.8314C488.6822,-207.0485 476.0771,-196.3712 464.8354,-186.8489"/>
<polygon fill="#000000" stroke="#000000" points="466.8349,-183.9556 456.9422,-180.1628 462.3105,-189.297 466.8349,-183.9556"/>
</g>
<!-- [root] provider[&quot;registry.terraform.io/hashicorp/aws&quot;] (close)&#45;&gt;[root] aws_secretsmanager_secret_version.airflow_connection_aws (expand) -->
<g id="edge11" class="edge">
<title>[root] provider[&quot;registry.terraform.io/hashicorp/aws&quot;] (close)&#45;&gt;[root] aws_secretsmanager_secret_version.airflow_connection_aws (expand)</title>
<path fill="none" stroke="#000000" d="M615.2944,-216.937C673.835,-206.3997 749.1866,-192.8364 810.3707,-181.8233"/>
<polygon fill="#000000" stroke="#000000" points="811.2303,-185.2249 820.452,-180.0086 809.9901,-178.3356 811.2303,-185.2249"/>
</g>
<!-- [root] provider[&quot;registry.terraform.io/hashicorp/aws&quot;] (close)&#45;&gt;[root] aws_secretsmanager_secret_version.airflow_connection_imap (expand) -->
<g id="edge12" class="edge">
<title>[root] provider[&quot;registry.terraform.io/hashicorp/aws&quot;] (close)&#45;&gt;[root] aws_secretsmanager_secret_version.airflow_connection_imap (expand)</title>
<path fill="none" stroke="#000000" d="M696.3924,-219.5596C831.9117,-208.4337 1020.411,-192.9583 1167.8284,-180.8556"/>
<polygon fill="#000000" stroke="#000000" points="1168.2438,-184.3334 1177.9239,-180.0268 1167.671,-177.3568 1168.2438,-184.3334"/>
</g>
<!-- [root] root -->
<g id="node11" class="node">
<title>[root] root</title>
<ellipse fill="none" stroke="#000000" cx="312.5" cy="-306" rx="58.4896" ry="18"/>
<text text-anchor="middle" x="312.5" y="-302.3" font-family="Times,serif" font-size="14.00" fill="#000000">[root] root</text>
</g>
<!-- [root] root&#45;&gt;[root] output.data&#45;lake&#45;s3&#45;bucket -->
<g id="edge13" class="edge">
<title>[root] root&#45;&gt;[root] output.data&#45;lake&#45;s3&#45;bucket</title>
<path fill="none" stroke="#000000" d="M273.3768,-292.4574C243.2579,-282.0316 201.0519,-267.4218 166.3691,-255.4162"/>
<polygon fill="#000000" stroke="#000000" points="167.3973,-252.0685 156.8026,-252.1047 165.1075,-258.6834 167.3973,-252.0685"/>
</g>
<!-- [root] root&#45;&gt;[root] provider[&quot;registry.terraform.io/hashicorp/aws&quot;] (close) -->
<g id="edge14" class="edge">
<title>[root] root&#45;&gt;[root] provider[&quot;registry.terraform.io/hashicorp/aws&quot;] (close)</title>
<path fill="none" stroke="#000000" d="M351.6232,-292.4574C381.9573,-281.9571 424.5516,-267.2129 459.3729,-255.1594"/>
<polygon fill="#000000" stroke="#000000" points="460.6666,-258.4154 468.9716,-251.8368 458.3768,-251.8005 460.6666,-258.4154"/>
</g>
</g>
</svg>
